<svg xmlns="http://www.w3.org/2000/svg" xmlns:xlink="http://www.w3.org/1999/xlink" width="800" zoomAndPan="magnify" viewBox="0 0 600 449.999984" height="600" preserveAspectRatio="xMidYMid meet" version="1.0"><path fill="#804824" d="M 426.785156 246.132812 C 424.996094 246.132812 423.210938 246.25 421.421875 246.371094 L 421.421875 240.058594 C 440.242188 237.558594 455.492188 235.414062 456.324219 234.9375 C 457.636719 234.222656 457.398438 230.292969 456.324219 228.746094 C 455.253906 227.195312 441.792969 214.453125 438.335938 214.335938 C 437.503906 214.335938 430.476562 215.167969 420.46875 216.359375 C 425.117188 214.929688 429.164062 212.785156 431.429688 208.140625 C 434.40625 201.949219 434.527344 194.683594 434.167969 188.015625 C 433.8125 181.820312 433.214844 175.628906 432.382812 169.4375 L 437.148438 120.488281 C 433.214844 118.464844 422.613281 115.964844 416.0625 114.535156 C 409.273438 101.792969 400.21875 88.929688 387.476562 83.808594 C 384.734375 82.734375 381.042969 81.546875 377.46875 80.59375 L 381.28125 65.945312 C 381.996094 63.203125 384.734375 61.65625 387.476562 62.371094 L 416.183594 70.230469 C 419.753906 71.183594 423.328125 69.039062 424.28125 65.585938 L 424.640625 64.394531 C 425.472656 60.941406 423.566406 57.488281 420.113281 56.535156 L 381.160156 45.339844 C 375.5625 43.671875 369.605469 47.007812 368.179688 52.726562 L 361.386719 78.6875 C 360.792969 78.6875 360.195312 78.6875 359.71875 78.6875 C 356.863281 75.351562 355.195312 71.183594 354.359375 68.5625 C 354.835938 68.085938 355.074219 67.375 355.074219 66.777344 C 355.195312 65.585938 355.550781 56.894531 353.765625 49.507812 C 353.40625 48.199219 353.289062 46.890625 353.050781 45.699219 C 351.859375 40.695312 349.59375 35.8125 346.617188 31.644531 C 343.402344 27.121094 339.234375 23.070312 334.347656 20.210938 C 328.511719 16.757812 321.839844 16.757812 315.171875 17.355469 C 313.144531 17.59375 311.238281 17.832031 309.214844 18.308594 C 302.902344 19.734375 297.183594 23.070312 292.65625 27.597656 C 288.132812 32.121094 284.796875 37.957031 282.890625 44.03125 C 282.292969 46.054688 281.222656 49.390625 282.054688 51.535156 C 282.769531 55.34375 284.199219 58.679688 286.941406 61.179688 C 287.058594 61.300781 287.179688 61.417969 287.296875 61.539062 C 287.535156 62.015625 287.65625 62.609375 287.894531 62.964844 C 290.15625 68.921875 293.253906 74.636719 296.46875 80.117188 C 299.328125 84.878906 302.542969 90 307.308594 93.097656 C 298.734375 99.171875 292.417969 107.863281 287.65625 117.75 C 284.796875 123.585938 278.363281 150.621094 280.152344 151.335938 C 280.625 151.570312 281.222656 151.808594 281.816406 152.046875 C 281.9375 159.671875 282.890625 169.554688 283.960938 178.605469 C 267.644531 180.394531 253.585938 181.820312 248.941406 182.296875 C 247.871094 182.417969 246.917969 182.894531 246.320312 183.609375 L 245.84375 184.085938 C 244.535156 185.515625 244.890625 187.417969 246.558594 188.492188 C 251.085938 191.46875 259.902344 196.945312 265.140625 198.019531 C 266.332031 198.257812 270.027344 198.257812 275.386719 197.898438 C 267.523438 201.351562 259.1875 204.210938 253.109375 209.808594 C 249.539062 213.023438 243.582031 214.335938 239.054688 215.644531 C 237.03125 216.238281 227.738281 221.003906 225.355469 226.242188 C 224.761719 227.433594 224.640625 228.625 224.761719 229.9375 C 200.816406 247.203125 185.214844 276.976562 185.214844 310.800781 C 185.214844 318.183594 185.929688 325.210938 187.359375 332.117188 C 183.664062 343.3125 180.808594 353.671875 179.019531 360.820312 C 163.414062 360.222656 145.191406 361.296875 134.46875 362.726562 C 131.253906 363.203125 128.992188 369.273438 131.96875 373.441406 C 146.5 393.808594 187.359375 417.984375 206.179688 427.390625 C 212.253906 430.488281 219.164062 431.917969 225.953125 431.441406 L 273.242188 429.894531 C 273.71875 431.324219 274.910156 432.511719 276.457031 432.75 L 285.273438 434.539062 C 287.65625 435.015625 289.917969 433.585938 290.394531 431.203125 C 290.511719 430.488281 290.75 429.894531 290.871094 429.179688 L 295.160156 429.058594 C 300.398438 428.582031 297.78125 418.816406 297.78125 418.816406 C 296.589844 417.984375 295.398438 417.152344 294.085938 416.316406 C 295.398438 411.671875 296.707031 407.027344 298.257812 402.265625 C 316.601562 395.476562 332.324219 381.898438 342.925781 364.273438 C 351.738281 407.027344 385.925781 438.945312 426.785156 438.945312 C 474.3125 438.945312 512.90625 395.714844 512.90625 342.480469 C 512.90625 289.246094 474.429688 246.132812 426.785156 246.132812 Z M 197.363281 360.222656 C 197.960938 361.296875 198.4375 362.25 199.03125 363.203125 C 198.316406 362.964844 197.484375 362.84375 196.648438 362.605469 C 196.886719 361.890625 197.125 361.058594 197.363281 360.222656 Z M 197.363281 360.222656 " fill-opacity="1" fill-rule="nonzero"/><path fill="#ffffff" d="M 191.167969 321.28125 C 189.859375 324.972656 188.550781 328.546875 187.359375 332.117188 C 185.929688 325.210938 185.214844 318.066406 185.214844 310.800781 C 185.214844 276.976562 200.816406 247.203125 224.402344 229.9375 C 224.523438 231.007812 224.640625 231.960938 225.117188 232.914062 C 226.070312 235.414062 227.976562 236.84375 230.242188 237.914062 C 231.789062 238.628906 233.574219 238.628906 235.242188 238.511719 C 236.316406 239.464844 237.507812 240.058594 238.9375 240.414062 L 244.890625 241.84375 C 241.199219 242.320312 237.625 242.796875 234.171875 244.109375 C 228.574219 246.25 222.855469 251.730469 221.1875 257.921875 C 220.355469 261.019531 220.355469 264.234375 220.472656 267.449219 C 220.472656 268.285156 220.589844 269.117188 220.710938 269.949219 C 209.992188 279.714844 200.34375 296.746094 191.167969 321.28125 Z M 197.363281 360.222656 C 197.960938 361.296875 198.4375 362.25 199.03125 363.203125 C 199.269531 363.320312 199.628906 363.320312 199.867188 363.4375 C 206.894531 365.464844 222.257812 373.324219 239.292969 382.972656 C 242.984375 365.582031 243.699219 346.765625 245.605469 329.378906 C 246.796875 319.019531 248.464844 309.488281 250.015625 299.605469 L 227.859375 288.292969 C 215.707031 303.894531 204.273438 333.902344 197.363281 360.222656 Z M 315.289062 332.953125 L 314.8125 332.953125 L 292.179688 321.28125 C 284.675781 354.03125 272.050781 382.972656 268.953125 389.519531 C 267.882812 391.902344 266.808594 394.164062 265.855469 396.429688 C 266.09375 395.953125 266.332031 395.59375 266.808594 395.59375 C 268.238281 395.476562 267.523438 397.855469 267.523438 398.570312 C 267.523438 398.929688 267.644531 399.167969 267.644531 399.523438 C 271.453125 401.90625 275.265625 404.167969 278.839844 406.433594 C 280.863281 399.40625 283.484375 391.308594 286.464844 383.207031 C 295.039062 359.152344 304.6875 342.480469 315.289062 332.953125 Z M 265.140625 397.738281 C 265.261719 397.5 265.378906 397.144531 265.5 396.785156 C 265.378906 397.144531 265.140625 397.5 265.023438 397.855469 C 265.023438 397.855469 265.140625 397.855469 265.140625 397.738281 Z M 281.578125 152.046875 C 288.964844 155.265625 296.945312 157.40625 304.6875 156.335938 C 306.476562 160.625 308.5 164.195312 310.882812 167.292969 C 304.449219 180.988281 301.828125 196.351562 303.257812 211.355469 C 309.574219 211.59375 316.003906 210.878906 322.4375 211.238281 C 326.726562 211.476562 331.011719 212.191406 335.421875 212.191406 C 336.015625 212.191406 336.730469 212.191406 337.328125 212.191406 C 350.429688 202.78125 365.082031 196.351562 379.492188 189.921875 C 384.617188 187.65625 389.738281 185.394531 394.980469 183.371094 C 392.121094 171.816406 388.070312 158.71875 383.664062 147.878906 C 383.664062 147.761719 383.542969 147.640625 383.542969 147.523438 C 400.578125 130.253906 420.351562 122.988281 420.351562 122.988281 C 419.039062 120.25 417.613281 117.390625 416.183594 114.535156 C 409.390625 101.792969 400.339844 88.929688 387.59375 83.808594 C 384.855469 82.734375 381.160156 81.546875 377.589844 80.59375 C 376.875 80.472656 376.277344 80.234375 375.5625 80.117188 L 375.445312 80.117188 C 373.65625 79.757812 371.988281 79.402344 370.441406 79.28125 C 366.988281 78.925781 364.128906 78.804688 361.507812 78.6875 C 360.910156 78.6875 360.316406 78.6875 359.839844 78.6875 C 360.316406 79.28125 360.792969 79.757812 361.269531 80.234375 C 368.058594 95.242188 349.953125 105.601562 338.996094 106.914062 C 329.941406 107.984375 322.078125 104.054688 321.839844 95.242188 L 320.769531 95.597656 L 321.125 95.359375 C 317.554688 95.957031 314.097656 95.957031 310.882812 94.765625 C 309.574219 94.289062 308.5 93.691406 307.429688 92.976562 C 298.851562 99.050781 292.539062 107.746094 287.773438 117.628906 C 284.914062 123.464844 278.484375 150.5 280.269531 151.214844 C 280.507812 151.570312 280.984375 151.808594 281.578125 152.046875 Z M 309.574219 304.25 C 309.453125 305.082031 309.335938 305.917969 309.214844 306.75 C 314.8125 309.371094 328.273438 309.964844 344.59375 308.894531 C 347.570312 300.082031 351.859375 291.507812 356.863281 284.003906 C 362.816406 274.953125 371.273438 265.425781 381.160156 258.996094 L 381.160156 244.941406 C 364.367188 246.726562 350.667969 247.917969 348.046875 247.203125 C 343.996094 246.132812 337.804688 241.84375 333.15625 238.390625 C 332.679688 239.105469 332.203125 239.820312 331.726562 240.535156 C 329.226562 244.109375 326.128906 247.203125 322.675781 249.945312 C 321.246094 251.015625 319.695312 252.085938 318.03125 252.085938 C 316.601562 252.085938 315.289062 251.371094 313.980469 251.253906 C 311.953125 251.015625 309.929688 251.847656 308.023438 251.132812 C 307.191406 250.777344 306.476562 250.179688 305.640625 249.824219 C 304.6875 249.46875 303.496094 249.707031 302.542969 249.46875 L 294.445312 252.085938 C 292.65625 252.921875 290.511719 253.160156 288.609375 252.683594 L 287.773438 252.445312 C 282.175781 254.589844 277.886719 256.492188 276.457031 257.683594 C 277.648438 257.566406 278.722656 257.445312 279.910156 257.328125 C 308.976562 255.0625 312.074219 284.242188 309.574219 304.25 Z M 512.90625 342.597656 C 512.90625 395.832031 474.3125 439.0625 426.785156 439.0625 C 385.925781 439.0625 351.738281 407.148438 342.925781 364.390625 C 332.324219 382.136719 316.71875 395.59375 298.257812 402.382812 C 307.308594 374.394531 320.410156 347.003906 333.632812 341.765625 C 334.109375 341.527344 334.585938 341.527344 335.183594 341.527344 L 340.78125 341.527344 C 340.78125 338.667969 340.898438 335.691406 341.136719 332.832031 C 341.496094 329.496094 341.851562 326.164062 342.449219 322.828125 C 346.140625 309.964844 349.832031 297.460938 357.21875 286.027344 C 361.386719 279.480469 366.390625 273.40625 372.226562 268.285156 C 378.660156 262.449219 386.046875 258.757812 392.953125 253.875 C 401.769531 249.585938 411.417969 246.964844 421.421875 246.371094 C 423.210938 246.25 424.996094 246.132812 426.785156 246.132812 C 474.429688 246.132812 512.90625 289.363281 512.90625 342.597656 Z M 507.1875 346.527344 C 509.570312 305.917969 482.171875 271.140625 445.84375 269 C 409.511719 266.855469 378.183594 298.058594 375.683594 338.667969 C 373.300781 379.277344 400.695312 414.054688 437.027344 416.199219 C 473.359375 418.339844 504.804688 387.140625 507.1875 346.527344 Z M 507.1875 346.527344 " fill-opacity="1" fill-rule="nonzero"/><path fill="#1b0e18" d="M 245.605469 184.085938 L 246.082031 183.609375 C 246.679688 182.894531 247.632812 182.417969 248.703125 182.296875 C 253.347656 181.820312 267.285156 180.273438 283.722656 178.605469 C 284.320312 183.609375 284.914062 188.371094 285.390625 192.300781 C 282.292969 194.566406 278.722656 196.46875 275.027344 198.136719 C 269.667969 198.496094 265.976562 198.496094 264.785156 198.257812 C 259.542969 197.066406 250.726562 191.707031 246.203125 188.730469 C 244.652344 187.417969 244.296875 185.515625 245.605469 184.085938 Z M 286.820312 61.179688 C 286.941406 61.300781 287.058594 61.417969 287.179688 61.539062 C 286.34375 59.511719 285.273438 56.535156 285.390625 54.273438 C 286.105469 54.511719 286.941406 54.75 287.535156 54.867188 C 307.191406 58.082031 316.839844 53.082031 328.75 49.03125 C 328.75 50.460938 328.75 51.773438 328.871094 53.199219 C 328.988281 54.988281 329.347656 56.773438 329.941406 58.441406 C 330.417969 59.75 331.25 60.703125 332.085938 61.539062 C 331.964844 58.082031 332.085938 53.320312 335.539062 52.367188 C 337.683594 51.773438 340.066406 52.605469 341.257812 54.511719 C 342.449219 56.296875 342.6875 58.679688 342.210938 60.824219 C 342.089844 61.539062 341.851562 62.253906 341.613281 62.847656 C 342.925781 62.609375 344.117188 62.609375 345.425781 63.441406 C 346.738281 64.277344 347.691406 65.707031 348.761719 66.898438 C 349.832031 68.085938 351.261719 69.160156 352.8125 69.039062 C 353.167969 69.039062 353.644531 68.921875 354.003906 68.683594 C 354.003906 68.683594 354.003906 68.683594 354.121094 68.5625 C 354.597656 68.085938 354.835938 67.375 354.835938 66.777344 C 354.957031 65.585938 355.3125 56.894531 353.527344 49.507812 C 353.167969 48.199219 353.050781 46.890625 352.8125 45.699219 C 351.621094 40.695312 349.355469 35.8125 346.378906 31.644531 C 343.164062 27.121094 338.996094 23.070312 334.109375 20.210938 C 328.273438 16.757812 321.601562 16.757812 314.933594 17.355469 C 312.90625 17.59375 311 17.832031 308.976562 18.308594 C 302.664062 19.734375 296.945312 23.070312 292.417969 27.597656 C 287.894531 32.121094 284.558594 37.957031 282.652344 44.03125 C 282.054688 46.054688 280.984375 49.390625 281.816406 51.535156 C 282.652344 55.226562 284.199219 58.679688 286.820312 61.179688 Z M 483.960938 67.492188 L 445.007812 56.296875 C 439.410156 54.628906 433.453125 57.964844 432.023438 63.679688 L 418.683594 115.128906 C 417.851562 114.890625 417.015625 114.773438 416.183594 114.535156 C 417.730469 117.390625 419.039062 120.25 420.351562 122.988281 C 426.308594 137.875 430.355469 153.476562 432.5 169.316406 L 437.265625 120.371094 C 436.550781 120.011719 435.480469 119.535156 434.289062 119.179688 L 445.246094 76.78125 C 445.960938 74.042969 448.699219 72.496094 451.441406 73.207031 L 480.148438 81.070312 C 483.722656 82.023438 487.296875 79.878906 488.246094 76.425781 L 488.605469 75.234375 C 489.320312 72.019531 487.296875 68.5625 483.960938 67.492188 Z M 375.324219 80.234375 L 375.445312 80.234375 C 376.160156 80.355469 376.753906 80.59375 377.46875 80.710938 L 381.28125 66.0625 C 381.996094 63.324219 384.734375 61.777344 387.476562 62.492188 L 416.183594 70.351562 C 419.753906 71.304688 423.328125 69.160156 424.28125 65.707031 L 424.640625 64.515625 C 425.472656 61.0625 423.566406 57.609375 420.113281 56.65625 L 381.160156 45.460938 C 375.5625 43.792969 369.605469 47.128906 368.179688 52.84375 L 361.386719 78.804688 C 364.007812 78.925781 366.988281 79.042969 370.320312 79.402344 C 371.871094 79.519531 373.539062 79.878906 375.324219 80.234375 Z M 438.335938 214.335938 C 437.503906 214.335938 430.476562 215.167969 420.46875 216.359375 C 419.875 216.597656 419.160156 216.714844 418.5625 216.953125 C 411.296875 218.980469 404.152344 220.882812 396.765625 222.074219 C 386.523438 223.742188 356.265625 227.792969 340.78125 227.792969 L 340.660156 227.671875 C 339.828125 228.148438 339.113281 228.507812 338.28125 229.101562 C 336.613281 230.410156 336.136719 232.792969 335.183594 234.582031 C 334.585938 235.769531 333.871094 236.960938 333.039062 238.152344 C 337.683594 241.726562 343.878906 245.894531 347.929688 246.964844 C 350.429688 247.679688 364.128906 246.488281 381.042969 244.703125 L 381.042969 258.757812 C 371.273438 265.066406 362.816406 274.714844 356.742188 283.765625 C 351.738281 291.269531 347.570312 299.84375 344.472656 308.65625 C 328.273438 309.726562 314.8125 309.132812 309.097656 306.511719 C 307.546875 305.917969 306 305.082031 304.449219 304.132812 C 301.710938 304.25 298.851562 304.25 296.113281 304.132812 C 295.875 304.132812 295.515625 304.132812 295.277344 304.132812 C 295.160156 304.726562 295.039062 305.320312 295.039062 305.917969 C 295.515625 299.960938 295.636719 293.890625 295.398438 288.171875 C 295.398438 287.578125 294.445312 287.457031 294.324219 288.171875 C 293.96875 301.75 292.300781 314.730469 290.035156 328.1875 C 290.035156 328.425781 290.035156 328.664062 290.273438 328.785156 C 290.511719 329.019531 291.109375 329.019531 291.226562 328.546875 C 291.824219 326.28125 292.417969 323.898438 292.894531 321.636719 L 314.695312 332.832031 L 315.171875 332.832031 C 304.570312 342.359375 295.039062 359.03125 286.105469 383.207031 C 283.128906 391.308594 280.507812 399.40625 278.484375 406.433594 C 274.195312 403.691406 269.550781 400.953125 264.902344 398.09375 C 262.757812 402.621094 260.496094 407.148438 256.921875 412.03125 C 251.679688 404.882812 242.628906 396.90625 237.746094 389.519531 C 238.339844 387.378906 238.816406 385.234375 239.292969 382.972656 C 222.257812 373.324219 206.894531 365.464844 199.867188 363.4375 C 199.628906 363.320312 199.269531 363.320312 199.03125 363.203125 C 198.316406 362.964844 197.484375 362.84375 196.648438 362.605469 C 196.886719 361.773438 197.125 360.9375 197.246094 360.105469 C 204.152344 333.785156 215.589844 303.65625 227.738281 288.171875 L 249.417969 299.246094 C 249.300781 301.273438 249.0625 303.179688 248.941406 305.203125 C 248.941406 305.320312 248.941406 305.558594 248.941406 305.679688 C 248.941406 306.035156 249.417969 306.035156 249.539062 305.796875 C 251.203125 296.152344 250.964844 286.148438 255.015625 277.214844 C 259.066406 268.402344 266.214844 262.566406 274.789062 258.757812 C 275.980469 258.28125 277.054688 257.804688 278.246094 257.328125 C 278.363281 257.328125 278.363281 257.207031 278.363281 257.207031 C 278.484375 256.96875 278.363281 256.492188 278.007812 256.613281 C 277.53125 256.851562 276.933594 256.96875 276.457031 257.207031 C 268 260.660156 259.425781 265.425781 255.136719 274 C 252.992188 278.167969 251.679688 282.8125 250.847656 287.578125 C 245.011719 287.578125 239.292969 287.101562 233.695312 285.550781 C 230.121094 284.597656 226.546875 283.171875 224.164062 280.3125 C 222.257812 278.050781 221.304688 275.191406 220.710938 272.214844 C 220.589844 271.5 220.472656 270.785156 220.472656 270.070312 C 209.871094 279.835938 200.105469 296.746094 190.929688 321.28125 C 189.621094 324.972656 188.3125 328.546875 187.121094 332.117188 C 183.425781 343.3125 180.570312 353.671875 178.78125 360.820312 C 163.175781 360.222656 144.953125 361.296875 134.230469 362.726562 C 131.015625 363.203125 128.753906 369.273438 131.730469 373.441406 C 132.324219 374.277344 132.921875 374.992188 133.515625 375.824219 C 132.800781 376.777344 132.207031 377.851562 131.847656 379.160156 C 129.707031 385.472656 132.921875 392.261719 138.878906 394.285156 C 139.59375 394.523438 140.425781 394.761719 141.140625 394.761719 L 145.667969 395.117188 C 147.929688 395.355469 150.3125 394.761719 152.21875 393.570312 C 170.207031 407.742188 193.074219 420.84375 205.820312 427.273438 C 211.539062 430.132812 217.734375 431.441406 224.046875 431.324219 C 223.570312 432.15625 223.09375 432.988281 222.734375 433.941406 C 220.589844 440.253906 223.808594 447.042969 229.765625 449.066406 C 230.476562 449.304688 231.3125 449.542969 232.027344 449.542969 L 236.554688 449.902344 C 241.792969 450.257812 246.917969 447.042969 248.703125 441.683594 C 250.015625 437.753906 249.300781 433.585938 247.035156 430.488281 L 272.644531 429.65625 C 273.121094 431.085938 274.3125 432.273438 275.863281 432.511719 L 284.675781 434.300781 C 287.058594 434.777344 289.324219 433.347656 289.800781 430.964844 C 289.917969 430.25 290.15625 429.65625 290.273438 428.941406 L 294.5625 428.820312 C 299.804688 428.34375 297.183594 418.578125 297.183594 418.578125 C 295.992188 417.746094 294.800781 416.914062 293.492188 416.078125 C 294.800781 411.433594 296.113281 406.789062 297.660156 402.027344 C 306.714844 374.039062 319.816406 346.648438 333.039062 341.40625 C 333.515625 341.167969 333.992188 341.167969 334.585938 341.167969 L 340.183594 341.167969 C 340.183594 338.3125 340.304688 335.332031 340.542969 332.476562 C 340.898438 329.140625 341.257812 325.804688 341.851562 322.472656 C 345.546875 309.609375 349.238281 297.105469 356.625 285.671875 C 360.792969 279.121094 365.796875 273.046875 371.632812 267.925781 C 378.066406 262.089844 385.449219 258.398438 392.359375 253.515625 C 401.171875 249.230469 410.820312 246.609375 420.828125 246.011719 L 420.828125 239.703125 C 439.648438 237.199219 454.894531 235.058594 455.730469 234.582031 C 457.039062 233.867188 456.800781 229.9375 455.730469 228.386719 C 455.253906 227.316406 441.792969 214.453125 438.335938 214.335938 Z M 341.734375 69.398438 C 341.734375 68.800781 340.898438 68.683594 340.660156 69.277344 C 337.445312 81.070312 333.277344 92.738281 319.695312 95.359375 C 319.578125 95.359375 319.460938 95.597656 319.460938 95.71875 C 319.460938 95.835938 319.578125 95.957031 319.695312 95.957031 C 320.292969 95.957031 320.886719 95.835938 321.484375 95.71875 C 323.628906 95.359375 325.773438 94.644531 327.679688 93.574219 C 328.394531 95.121094 328.988281 96.671875 329.464844 98.335938 C 329.820312 99.765625 329.820312 101.316406 330.535156 102.503906 C 330.773438 102.980469 331.371094 102.863281 331.488281 102.386719 C 332.324219 99.527344 330.535156 95.242188 328.988281 92.738281 C 336.613281 87.855469 341.375 78.210938 341.734375 69.398438 Z M 305.046875 156.574219 C 303.140625 151.453125 302.542969 146.09375 302.304688 140.734375 C 302.1875 138.472656 302.066406 136.328125 301.949219 134.066406 C 301.949219 133.351562 301.949219 132.636719 301.828125 131.921875 C 301.472656 124.777344 301.351562 117.628906 300.996094 110.484375 C 300.996094 110.128906 300.519531 110.128906 300.519531 110.484375 C 300.398438 117.628906 300.519531 124.894531 300.875 132.160156 C 300.875 132.515625 300.875 132.753906 300.875 133.113281 C 300.875 132.875 300.757812 132.515625 300.757812 132.277344 C 300.042969 128.46875 299.089844 124.65625 298.257812 120.847656 C 298.136719 120.488281 297.542969 120.609375 297.660156 120.964844 C 298.019531 124.894531 298.851562 128.585938 299.566406 132.515625 C 300.042969 134.78125 300.398438 136.921875 300.519531 139.1875 C 300.519531 139.542969 300.875 139.78125 301.234375 139.78125 C 301.234375 140.140625 301.234375 140.617188 301.351562 140.972656 C 301.472656 142.996094 301.589844 145.140625 301.828125 147.164062 C 302.1875 150.382812 302.78125 153.597656 303.855469 156.691406 C 304.332031 158.121094 304.808594 159.433594 305.523438 160.742188 C 306.832031 163.601562 308.621094 166.222656 310.523438 168.722656 C 321.601562 182.65625 341.257812 189.207031 358.769531 188.609375 C 359.601562 188.609375 359.480469 187.539062 358.769531 187.417969 C 346.738281 186.109375 333.992188 183.726562 323.628906 177.890625 C 315.410156 173.128906 308.738281 166.457031 305.046875 156.574219 Z M 419.039062 125.253906 C 419.753906 125.015625 419.398438 124.0625 418.683594 124.179688 C 418.089844 124.300781 417.492188 124.417969 416.898438 124.539062 C 404.269531 127.15625 393.191406 136.210938 385.09375 145.976562 C 384.855469 146.332031 384.617188 146.570312 384.257812 146.925781 C 384.257812 146.925781 384.257812 146.808594 384.257812 146.808594 C 383.664062 143.59375 382.828125 140.496094 382.589844 137.160156 C 382.351562 134.183594 382.472656 131.207031 381.996094 128.230469 C 381.875 127.871094 381.28125 127.871094 381.160156 128.230469 C 380.328125 132.277344 380.804688 137.28125 381.757812 141.804688 C 379.730469 137.160156 377.589844 132.398438 376.515625 127.632812 C 375.921875 125.132812 375.5625 122.511719 375.683594 119.894531 C 375.800781 117.390625 376.160156 114.890625 377.113281 112.269531 C 377.351562 111.675781 376.277344 111.199219 376.039062 111.796875 C 374.847656 114.535156 374.253906 117.273438 374.132812 120.132812 C 374.015625 122.988281 374.492188 125.96875 375.207031 128.824219 C 375.5625 130.136719 375.921875 131.328125 376.277344 132.636719 C 375.683594 131.566406 374.96875 130.613281 374.371094 129.660156 C 372.464844 126.800781 370.558594 123.941406 368.773438 121.085938 C 368.535156 120.609375 368.296875 120.25 367.941406 119.773438 C 367.820312 119.535156 367.34375 119.65625 367.464844 120.011719 C 367.582031 120.371094 367.820312 120.847656 367.941406 121.203125 C 369.25 124.417969 371.035156 127.632812 373.0625 130.730469 C 374.847656 133.351562 376.636719 135.972656 378.542969 138.351562 C 378.78125 138.828125 379.015625 139.304688 379.136719 139.78125 C 380.328125 142.640625 381.519531 145.378906 382.589844 148.238281 C 386.761719 158.957031 390.214844 169.914062 393.3125 180.988281 C 393.429688 181.464844 393.90625 181.582031 394.265625 181.464844 C 394.503906 181.34375 394.742188 181.105469 394.621094 180.632812 C 391.644531 169.675781 388.667969 158.71875 384.378906 148.238281 C 384.378906 148.117188 384.378906 148 384.257812 147.878906 C 393.667969 136.921875 405.34375 129.539062 419.039062 125.253906 Z M 320.769531 240.535156 C 318.386719 239.941406 316.003906 239.582031 313.742188 238.75 C 311.597656 238.035156 309.691406 236.84375 307.546875 236.007812 C 307.191406 235.890625 306.953125 236.484375 307.308594 236.605469 C 309.453125 237.675781 311 239.226562 313.382812 239.820312 C 315.648438 240.535156 318.269531 240.890625 320.648438 241.011719 C 321.007812 241.011719 321.125 240.535156 320.769531 240.535156 Z M 228.929688 230.410156 C 231.667969 231.246094 234.527344 232.199219 237.148438 233.269531 C 237.863281 233.867188 238.460938 234.699219 238.460938 235.652344 C 238.578125 236.605469 238.101562 238.152344 237.148438 238.273438 C 236.433594 238.390625 235.71875 238.390625 235.003906 238.511719 C 236.078125 239.464844 237.269531 240.058594 238.699219 240.414062 L 243.9375 241.726562 C 242.390625 241.605469 240.722656 241.84375 239.53125 242.558594 C 239.175781 242.679688 239.414062 243.15625 239.769531 243.035156 C 241.554688 242.679688 243.34375 242.441406 245.128906 243.035156 C 246.082031 243.394531 246.917969 243.871094 247.75 244.464844 C 248.109375 244.941406 248.464844 245.296875 248.585938 245.773438 C 248.703125 246.488281 248.585938 247.085938 248.226562 247.441406 C 247.035156 248.515625 243.820312 247.800781 242.867188 247.324219 C 242.628906 247.203125 242.507812 247.085938 242.269531 247.085938 C 239.769531 246.011719 237.746094 244.464844 235.957031 242.441406 C 235.839844 242.320312 235.839844 242.320312 235.71875 242.441406 C 235.601562 242.441406 235.480469 242.558594 235.601562 242.679688 C 235.71875 242.917969 235.957031 243.15625 236.195312 243.394531 C 239.054688 246.964844 242.984375 249.46875 247.632812 248.632812 C 248.941406 248.394531 249.894531 248.039062 249.777344 246.488281 C 249.65625 245.417969 249.0625 243.871094 247.988281 243.273438 C 247.394531 242.796875 246.796875 242.441406 246.082031 242.203125 L 287.296875 252.207031 L 288.132812 252.445312 C 290.035156 252.921875 292.179688 252.683594 293.96875 251.847656 L 302.066406 249.230469 C 301.949219 249.230469 301.828125 249.109375 301.710938 249.109375 C 300.757812 248.632812 300.28125 247.800781 299.683594 247.085938 C 301.351562 245.535156 302.902344 243.273438 303.855469 241.25 C 303.972656 240.890625 303.617188 240.414062 303.257812 240.773438 C 302.425781 241.605469 301.710938 242.679688 300.996094 243.632812 C 300.28125 244.585938 299.566406 245.417969 298.972656 246.25 C 298.136719 245.65625 297.304688 245.179688 297.066406 243.988281 C 296.828125 242.796875 297.304688 240.890625 297.542969 239.582031 C 297.78125 238.035156 298.136719 236.484375 298.496094 235.058594 C 299.449219 234.105469 300.398438 233.03125 300.996094 231.960938 C 301.234375 231.601562 300.636719 231.007812 300.28125 231.484375 C 299.921875 231.960938 299.566406 232.4375 299.089844 232.792969 C 297.660156 234.460938 296.230469 235.769531 294.085938 236.84375 C 291.464844 238.035156 288.964844 238.511719 286.226562 239.105469 C 285.988281 239.105469 285.867188 239.34375 285.867188 239.464844 C 285.152344 240.890625 284.558594 242.441406 283.722656 243.871094 C 281.578125 246.371094 277.886719 247.800781 274.910156 246.488281 C 274.550781 246.371094 274.195312 246.132812 274.074219 245.894531 C 273.835938 245.535156 273.957031 245.058594 274.195312 244.585938 C 275.742188 239.820312 277.886719 236.605469 281.460938 233.390625 C 285.988281 229.339844 292.179688 225.765625 298.019531 223.503906 C 299.449219 222.910156 300.757812 222.433594 302.066406 221.835938 C 303.140625 221.242188 304.210938 220.527344 305.164062 219.8125 C 304.09375 219.8125 303.019531 219.8125 301.949219 219.8125 C 299.210938 219.574219 296.707031 218.621094 294.445312 216.835938 C 294.5625 216.714844 294.5625 216.476562 294.445312 216.238281 C 293.371094 215.050781 290.871094 211.476562 293.847656 211 C 295.160156 210.761719 296.707031 211.355469 298.019531 211.476562 C 301.113281 211.832031 304.332031 212.070312 307.429688 211.238281 C 307.546875 211.238281 307.546875 211.117188 307.667969 211.117188 C 307.785156 210.878906 307.667969 210.523438 307.308594 210.523438 C 305.878906 210.640625 304.449219 210.761719 302.902344 210.640625 C 301.589844 210.640625 300.160156 210.523438 298.734375 210.285156 C 297.066406 210.046875 294.445312 209.214844 292.65625 209.570312 C 289.796875 210.285156 290.871094 213.382812 292.417969 215.40625 L 264.546875 220.527344 C 264.546875 219.457031 263.710938 218.144531 263.234375 217.3125 C 262.519531 216.238281 261.6875 215.289062 260.496094 214.929688 C 260.136719 214.8125 259.78125 215.40625 260.136719 215.644531 C 260.972656 216.476562 261.804688 217.191406 262.402344 218.265625 C 262.757812 218.980469 262.996094 220.050781 263.472656 220.765625 L 249.417969 223.386719 C 250.132812 222.789062 250.847656 222.074219 251.441406 221.359375 C 251.441406 221.359375 251.441406 221.359375 251.441406 221.242188 C 251.917969 220.527344 250.847656 219.8125 250.25 220.289062 C 248.464844 221.835938 246.917969 223.503906 244.535156 224.21875 C 243.460938 224.457031 242.269531 224.695312 241.199219 224.457031 C 240.839844 224.339844 240.125 224.101562 239.414062 223.625 C 238.101562 222.910156 236.910156 221.835938 237.625 220.765625 C 237.625 220.765625 237.746094 220.644531 237.746094 220.644531 C 239.890625 220.050781 241.554688 218.503906 243.582031 217.429688 C 245.84375 216.359375 248.464844 216.238281 250.726562 215.167969 C 251.324219 214.929688 250.964844 213.976562 250.371094 213.976562 C 245.488281 214.453125 240.722656 216.953125 236.910156 219.933594 C 236.792969 220.050781 236.792969 220.050781 236.792969 220.171875 C 235.363281 221.71875 237.625 223.980469 239.414062 225.054688 L 231.789062 226.480469 L 231.789062 230.175781 C 230.835938 229.9375 229.765625 229.699219 228.8125 229.460938 C 228.691406 229.460938 228.574219 229.460938 228.574219 229.578125 C 228.691406 230.054688 228.691406 230.292969 228.929688 230.410156 Z M 257.398438 291.984375 C 257.160156 291.269531 256.207031 291.625 256.328125 292.339844 C 256.921875 295.792969 260.734375 297.699219 263.949219 297.9375 C 264.785156 297.9375 264.785156 296.867188 264.1875 296.507812 C 261.566406 295.4375 258.351562 295.199219 257.398438 291.984375 Z M 310.046875 300.558594 C 310.046875 300.558594 310.167969 300.4375 310.167969 300.320312 C 312.191406 291.625 310.40625 282.21875 307.90625 273.761719 C 306.117188 267.449219 303.140625 261.851562 296.945312 258.996094 C 296.589844 258.875 296.351562 259.351562 296.589844 259.472656 C 301.828125 262.210938 305.164062 267.449219 307.070312 273.644531 C 309.808594 282.335938 309.808594 292.816406 308.859375 300.082031 C 308.859375 300.796875 309.691406 301.035156 310.046875 300.558594 Z M 225.832031 277.335938 C 229.882812 277.929688 236.316406 276.621094 238.460938 272.691406 C 238.9375 271.855469 237.984375 270.902344 237.148438 271.378906 C 235.480469 272.214844 234.171875 273.644531 232.382812 274.476562 C 230.359375 275.429688 228.214844 275.90625 225.953125 276.261719 C 225.476562 276.261719 225.238281 277.214844 225.832031 277.335938 Z M 314.574219 70.351562 C 313.503906 70.351562 312.550781 71.304688 312.550781 72.375 C 312.550781 73.445312 313.503906 74.398438 314.574219 74.398438 C 315.648438 74.398438 316.601562 73.445312 316.601562 72.375 C 316.601562 71.304688 315.648438 70.351562 314.574219 70.351562 Z M 302.1875 75.949219 C 302.1875 77.019531 303.019531 77.851562 304.09375 77.851562 C 305.164062 77.851562 306 77.019531 306 75.949219 C 306 74.875 305.164062 74.042969 304.09375 74.042969 C 303.019531 74.042969 302.1875 74.996094 302.1875 75.949219 Z M 311.597656 65.707031 C 310.285156 66.183594 309.214844 67.136719 308.859375 68.445312 C 308.738281 69.039062 309.453125 69.515625 309.808594 69.039062 C 310.523438 68.085938 311.476562 67.492188 312.667969 67.375 C 313.742188 67.136719 314.933594 67.492188 316.003906 67.015625 C 316.363281 66.777344 316.363281 66.300781 316.125 66.0625 C 315.050781 64.992188 312.90625 65.230469 311.597656 65.707031 Z M 323.152344 77.019531 C 323.746094 79.402344 323.628906 82.855469 321.960938 84.761719 C 321.007812 85.832031 319.816406 86.308594 318.386719 86.191406 C 316.957031 86.070312 314.695312 85.117188 313.980469 83.808594 C 313.859375 83.6875 313.980469 83.449219 314.21875 83.332031 C 315.886719 82.617188 317.671875 81.785156 318.984375 80.59375 C 320.171875 79.519531 320.886719 77.972656 321.960938 76.902344 C 321.960938 76.902344 322.078125 76.78125 322.199219 76.78125 C 322.4375 76.542969 323.03125 76.542969 323.152344 77.019531 Z M 322.199219 78.328125 C 321.484375 79.640625 320.171875 80.59375 319.101562 81.425781 C 317.792969 82.378906 316.480469 83.210938 314.933594 83.6875 C 315.289062 83.925781 315.527344 84.164062 315.886719 84.285156 C 316.71875 84.761719 317.671875 84.878906 318.625 84.878906 C 319.933594 84.878906 320.769531 84.285156 321.363281 83.210938 C 322.199219 81.902344 322.4375 79.996094 322.199219 78.328125 Z M 295.277344 72.613281 C 294.921875 73.207031 295.636719 73.804688 296.230469 73.566406 C 297.304688 72.96875 298.136719 72.136719 299.210938 71.542969 C 300.757812 70.828125 302.1875 70.945312 303.734375 71.304688 C 303.972656 71.304688 304.210938 71.066406 303.972656 70.828125 C 301.472656 68.207031 297.066406 69.636719 295.277344 72.613281 Z M 311.835938 77.734375 C 311.238281 77.019531 311.359375 75.949219 311 75.234375 C 310.882812 74.996094 310.40625 74.996094 310.285156 75.234375 C 309.574219 76.425781 309.808594 78.210938 310.644531 79.28125 C 311.238281 80.117188 313.265625 80.949219 313.859375 79.519531 C 313.980469 79.164062 313.980469 78.804688 313.621094 78.6875 C 313.027344 78.210938 312.3125 78.328125 311.835938 77.734375 Z M 303.855469 249.707031 C 304.332031 249.824219 304.925781 249.707031 305.523438 249.585938 C 306.714844 249.347656 308.023438 248.753906 308.621094 247.917969 C 308.976562 247.5625 308.382812 247.085938 308.023438 247.085938 C 307.308594 247.203125 306.59375 247.679688 305.878906 247.917969 C 305.164062 248.15625 304.449219 248.277344 303.734375 248.515625 C 303.496094 248.632812 303.378906 248.992188 303.496094 249.230469 C 303.617188 249.585938 303.734375 249.707031 303.855469 249.707031 Z M 315.171875 249.585938 C 314.933594 249.585938 314.574219 249.824219 314.335938 249.945312 C 313.859375 250.179688 313.382812 250.417969 313.027344 250.777344 C 312.90625 250.894531 312.90625 251.015625 312.90625 251.132812 C 312.90625 251.371094 313.027344 251.492188 313.265625 251.609375 C 313.742188 251.730469 314.335938 251.609375 314.695312 251.371094 C 314.695312 251.371094 314.695312 251.371094 314.8125 251.371094 C 315.171875 251.132812 315.886719 250.539062 315.648438 250.0625 C 315.648438 249.707031 315.410156 249.585938 315.171875 249.585938 Z M 315.171875 249.585938 " fill-opacity="1" fill-rule="nonzero"/><path fill="#00ecff" d="M 507.1875 346.527344 C 504.804688 387.140625 473.359375 418.339844 437.027344 416.199219 C 400.695312 414.054688 373.300781 379.277344 375.683594 338.667969 C 378.066406 298.058594 409.511719 266.855469 445.84375 269 C 482.171875 271.140625 509.6875 305.917969 507.1875 346.527344 Z M 267.40625 399.644531 C 267.40625 399.285156 267.285156 399.046875 267.285156 398.691406 C 267.285156 397.855469 268 395.59375 266.570312 395.714844 C 266.214844 395.714844 265.855469 396.070312 265.617188 396.546875 C 265.5 396.667969 265.5 396.785156 265.378906 397.023438 C 265.261719 397.382812 265.140625 397.738281 265.023438 397.976562 C 265.023438 398.09375 264.902344 398.09375 264.902344 398.214844 C 263.949219 399.761719 262.996094 400.359375 261.210938 400.597656 C 260.375 400.714844 259.542969 400.597656 258.828125 400.238281 C 258.472656 400 258.113281 399.761719 257.875 399.523438 C 252.15625 394.285156 247.871094 385.589844 239.414062 384.636719 C 239.292969 384.636719 239.054688 384.636719 238.9375 384.636719 C 235.363281 384.636719 232.144531 389.042969 229.765625 391.1875 C 226.667969 394.164062 223.332031 397.023438 219.640625 399.167969 C 214.398438 402.144531 208.324219 403.097656 202.367188 403.691406 C 201.414062 403.8125 200.582031 403.8125 199.746094 404.289062 C 198.675781 404.882812 197.839844 405.957031 197.484375 407.027344 C 196.648438 409.527344 196.410156 412.386719 198.4375 414.171875 C 202.007812 417.269531 206.535156 419.53125 211.179688 420.84375 C 219.640625 423.34375 228.453125 424.414062 237.148438 424.058594 C 247.632812 423.582031 258.351562 421.199219 267.882812 417.03125 C 268.714844 416.675781 269.550781 416.078125 270.144531 415.363281 C 270.382812 415.007812 270.738281 414.648438 270.738281 414.292969 C 270.859375 413.933594 270.738281 413.457031 270.621094 413.101562 C 269.429688 408.335938 267.882812 404.167969 267.40625 399.644531 Z M 321.363281 47.246094 C 318.984375 47.84375 316.601562 48.4375 314.21875 48.914062 C 313.859375 49.03125 313.621094 49.507812 313.742188 49.867188 C 313.859375 50.222656 314.21875 50.460938 314.695312 50.34375 C 317.078125 49.867188 319.460938 49.269531 321.839844 48.675781 C 322.675781 48.4375 322.199219 47.007812 321.363281 47.246094 Z M 309.808594 49.628906 C 302.1875 50.699219 294.085938 51.058594 286.582031 49.152344 C 285.628906 48.914062 285.273438 50.34375 286.226562 50.582031 C 293.96875 52.605469 302.304688 52.25 310.285156 51.058594 C 311.121094 50.9375 310.644531 49.507812 309.808594 49.628906 Z M 386.878906 137.636719 C 393.550781 129.421875 402.839844 123.585938 413.085938 121.324219 C 414.039062 121.085938 413.679688 119.65625 412.726562 119.894531 C 402.125 122.273438 392.597656 128.230469 385.808594 136.566406 C 385.210938 137.28125 386.285156 138.351562 386.878906 137.636719 Z M 299.449219 151.453125 C 293.730469 151.808594 287.894531 150.382812 283.007812 147.523438 C 282.175781 147.046875 281.460938 148.355469 282.292969 148.832031 C 287.535156 151.808594 293.492188 153.359375 299.566406 153 C 300.398438 152.882812 300.398438 151.453125 299.449219 151.453125 Z M 442.863281 432.75 C 424.164062 434.300781 404.984375 431.5625 388.785156 421.558594 C 375.207031 413.21875 364.960938 400.359375 358.648438 385.710938 C 351.976562 370.226562 349.714844 353.078125 351.144531 336.40625 C 352.691406 317.351562 358.886719 298.296875 370.082031 282.695312 C 380.089844 268.640625 394.859375 257.328125 412.371094 255.183594 C 414.515625 254.945312 416.660156 254.828125 418.800781 254.828125 C 419.753906 254.828125 419.753906 253.277344 418.800781 253.398438 C 400.933594 253.515625 384.972656 262.566406 373.417969 275.90625 C 360.910156 290.554688 353.40625 309.371094 350.546875 328.308594 C 347.929688 345.8125 349.117188 364.035156 355.074219 380.707031 C 360.433594 395.832031 369.726562 409.648438 382.710938 419.292969 C 397.601562 430.371094 416.183594 435.015625 434.527344 434.65625 C 437.265625 434.65625 440.003906 434.417969 442.746094 434.179688 C 443.816406 434.0625 443.816406 432.632812 442.863281 432.75 Z M 273.121094 236.960938 C 262.042969 234.460938 250.964844 231.960938 239.890625 229.460938 C 238.339844 229.101562 236.671875 228.746094 235.125 228.386719 C 234.171875 228.148438 233.8125 229.578125 234.765625 229.816406 C 245.84375 232.316406 256.921875 234.820312 268 237.320312 C 269.550781 237.675781 271.214844 238.035156 272.765625 238.390625 C 273.597656 238.511719 273.957031 237.082031 273.121094 236.960938 Z M 354.003906 241.25 C 360.554688 240.652344 366.988281 240.058594 373.539062 239.464844 C 376.039062 239.226562 378.660156 238.988281 381.160156 238.75 C 392.121094 237.675781 402.960938 236.722656 413.917969 235.652344 C 418.683594 235.175781 423.328125 234.699219 428.09375 234.34375 C 432.621094 233.867188 437.027344 233.507812 441.554688 233.03125 C 442.507812 232.914062 442.507812 231.484375 441.554688 231.601562 C 429.761719 232.792969 417.96875 233.867188 406.175781 234.9375 C 403.554688 235.175781 401.054688 235.414062 398.433594 235.652344 C 392.714844 236.246094 386.878906 236.722656 381.160156 237.320312 C 372.824219 238.152344 364.484375 238.867188 356.148438 239.703125 C 354.480469 239.820312 352.691406 240.175781 351.023438 240.175781 C 349.355469 240.175781 347.570312 238.628906 346.261719 237.675781 C 344.710938 236.484375 343.164062 235.292969 341.613281 233.984375 C 340.898438 233.390625 339.828125 234.460938 340.542969 235.058594 C 341.851562 236.128906 343.164062 237.199219 344.472656 238.273438 C 346.140625 239.582031 348.167969 241.25 350.191406 241.726562 C 351.261719 241.605469 352.8125 241.367188 354.003906 241.25 Z M 187.597656 404.40625 C 177.828125 397.976562 168.0625 391.1875 158.652344 383.921875 C 154.480469 380.707031 150.433594 377.375 146.5 373.917969 C 146.144531 373.5625 145.667969 373.203125 145.308594 372.847656 C 144.953125 372.492188 144.476562 372.132812 144.117188 371.777344 C 143.878906 371.539062 143.523438 371.300781 143.285156 370.941406 C 142.6875 370.464844 142.09375 369.871094 141.496094 369.394531 C 140.785156 368.679688 140.070312 367.964844 139.355469 367.25 C 138.640625 366.535156 137.6875 367.609375 138.28125 368.320312 C 139.234375 369.273438 140.1875 370.226562 141.140625 371.179688 C 141.617188 371.539062 142.09375 372.015625 142.449219 372.371094 C 143.402344 373.203125 144.355469 374.039062 145.308594 374.871094 C 149.480469 378.5625 153.886719 382.019531 158.292969 385.472656 C 161.152344 387.734375 164.128906 389.878906 167.109375 392.140625 C 173.539062 396.785156 180.09375 401.3125 186.761719 405.71875 C 187.597656 406.195312 188.429688 405.003906 187.597656 404.40625 Z M 187.597656 404.40625 " fill-opacity="1" fill-rule="nonzero"/><path fill="#ff6978" d="M 265.5 57.132812 C 264.785156 56.535156 265.738281 55.582031 266.453125 55.941406 C 269.074219 57.371094 271.574219 58.917969 274.074219 60.464844 C 276.457031 61.777344 278.839844 62.964844 280.863281 64.871094 C 281.460938 65.46875 280.863281 66.421875 280.148438 66.183594 C 274.789062 64.871094 269.550781 60.585938 265.5 57.132812 Z M 279.078125 70.351562 C 274.910156 70.351562 270.621094 70.828125 266.453125 71.066406 C 265.617188 71.066406 265.261719 72.496094 266.214844 72.730469 C 270.382812 73.445312 275.148438 73.445312 279.199219 71.898438 C 280.03125 71.542969 280.03125 70.351562 279.078125 70.351562 Z M 275.625 81.664062 C 276.933594 81.1875 278.246094 80.832031 279.554688 80.355469 C 280.746094 79.996094 282.054688 79.640625 283.128906 79.042969 C 283.722656 78.6875 283.484375 77.734375 282.769531 77.734375 C 280.269531 77.851562 277.53125 79.164062 275.265625 79.996094 C 274.074219 80.355469 274.550781 82.023438 275.625 81.664062 Z M 214.753906 206.949219 C 213.445312 205.523438 212.132812 204.332031 211.65625 202.304688 C 211.417969 201.351562 211.777344 201.234375 211.417969 200.28125 C 209.871094 196.351562 203.4375 197.183594 202.484375 193.136719 C 202.367188 192.539062 201.414062 192.660156 201.414062 193.253906 C 201.292969 194.921875 201.890625 195.992188 203.199219 196.945312 C 205.820312 198.851562 208.917969 197.78125 209.632812 202.066406 C 209.871094 203.617188 209.394531 204.09375 210.347656 205.640625 C 212.253906 208.617188 215.589844 211.953125 218.328125 214.214844 C 219.164062 214.929688 220.710938 213.976562 219.996094 212.90625 C 218.566406 210.761719 216.542969 208.855469 214.753906 206.949219 Z M 235.957031 197.066406 C 234.765625 194.683594 235.003906 194.089844 235.480469 191.347656 C 235.71875 190.160156 235.957031 189.445312 235.71875 188.132812 C 235.242188 185.871094 230.835938 181.703125 233.574219 179.441406 C 234.289062 178.84375 233.335938 177.773438 232.621094 178.25 C 230.953125 179.203125 230.242188 180.511719 230.476562 182.417969 C 230.597656 183.726562 231.3125 184.324219 231.789062 185.394531 C 232.621094 187.777344 232.859375 190.039062 232.503906 192.539062 C 232.144531 195.519531 233.097656 196.351562 234.289062 199.210938 C 235.242188 201.828125 235.601562 204.09375 238.339844 205.402344 C 239.414062 205.878906 240.363281 204.6875 239.652344 203.734375 C 237.746094 201.589844 237.148438 199.449219 235.957031 197.066406 Z M 212.492188 223.027344 C 209.871094 222.910156 207.25 221.597656 204.628906 221.835938 C 202.605469 222.074219 201.53125 223.863281 199.746094 224.339844 C 197.363281 224.933594 195.101562 222.550781 192.71875 222.195312 C 189.859375 221.71875 186.761719 223.503906 184.023438 223.863281 C 182.949219 223.980469 183.1875 225.765625 184.261719 225.648438 C 184.378906 225.648438 187.953125 225.054688 187.953125 225.054688 C 191.050781 224.933594 192.957031 225.765625 195.933594 226.601562 C 197.484375 227.078125 197.722656 227.671875 199.628906 227.195312 C 200.699219 226.957031 201.175781 226.125 202.007812 225.648438 C 204.273438 224.578125 205.34375 224.578125 207.726562 224.933594 C 209.871094 225.292969 210.824219 225.765625 212.847656 224.816406 C 213.800781 224.339844 213.324219 223.027344 212.492188 223.027344 Z M 194.386719 211.476562 C 196.648438 212.429688 199.507812 213.621094 202.128906 213.5 C 202.960938 213.5 203.4375 212.191406 202.605469 211.832031 C 200.222656 210.761719 197.484375 210.40625 194.980469 209.570312 C 193.671875 209.09375 193.195312 211 194.386719 211.476562 Z M 223.332031 191.109375 C 222.734375 190.039062 222.140625 188.96875 221.542969 187.894531 C 220.828125 186.464844 218.804688 187.777344 219.519531 189.085938 C 220.117188 190.277344 220.710938 191.347656 221.425781 192.539062 C 222.019531 193.492188 222.734375 194.683594 223.808594 195.160156 C 224.523438 195.519531 225.238281 194.921875 225.117188 194.207031 C 224.761719 193.136719 223.925781 192.0625 223.332031 191.109375 Z M 304.09375 220.171875 C 303.496094 220.171875 302.78125 220.171875 302.1875 220.050781 C 301.710938 220.050781 301.234375 219.933594 300.757812 219.8125 C 300.636719 219.8125 300.519531 219.8125 300.398438 219.695312 C 299.449219 219.457031 298.613281 219.21875 297.660156 218.859375 C 297.542969 218.859375 297.542969 218.742188 297.421875 218.742188 C 296.945312 218.503906 296.589844 218.265625 296.113281 218.027344 L 243.34375 228.03125 L 279.554688 235.652344 C 279.910156 235.292969 280.148438 234.9375 280.507812 234.582031 C 280.863281 234.222656 281.222656 233.867188 281.578125 233.507812 C 282.652344 232.4375 283.960938 231.484375 285.273438 230.53125 C 286.582031 229.578125 288.011719 228.625 289.441406 227.792969 C 292.300781 226.125 295.277344 224.695312 298.136719 223.503906 C 298.851562 223.265625 299.566406 223.027344 300.160156 222.671875 C 300.875 222.433594 301.472656 222.074219 302.1875 221.71875 C 302.664062 221.480469 303.140625 221.121094 303.617188 220.882812 C 303.734375 220.765625 303.855469 220.765625 303.972656 220.644531 C 304.449219 220.289062 304.925781 220.050781 305.285156 219.695312 C 305.046875 220.171875 304.570312 220.171875 304.09375 220.171875 Z M 304.09375 220.171875 " fill-opacity="1" fill-rule="nonzero"/></svg>