<svg xmlns="http://www.w3.org/2000/svg" xmlns:xlink="http://www.w3.org/1999/xlink" width="800" zoomAndPan="magnify" viewBox="0 0 600 449.999984" height="600" preserveAspectRatio="xMidYMid meet" version="1.0"><defs><clipPath id="id1"><path d="M 190.199219 3 L 328 3 L 328 297 L 190.199219 297 Z M 190.199219 3 " clip-rule="nonzero"/></clipPath><clipPath id="id2"><path d="M 190.199219 2 L 368.699219 2 L 368.699219 450 L 190.199219 450 Z M 190.199219 2 " clip-rule="nonzero"/></clipPath></defs><path fill="#f0a850" d="M 268.085938 411.550781 C 267.371094 396.324219 266.394531 378.160156 265.414062 360.261719 C 260.867188 382.253906 256.679688 402.824219 255.074219 411.640625 C 252.492188 411.640625 216.578125 411.550781 216.578125 411.550781 C 216.578125 411.550781 218.984375 381.1875 221.476562 365.335938 C 223.171875 354.828125 228.160156 323.21875 228.160156 323.21875 L 222.902344 293.386719 L 244.914062 265.871094 C 244.914062 265.871094 304.089844 270.414062 304.535156 286.886719 C 305.515625 321.257812 307.476562 392.675781 308.1875 411.550781 Z M 268.085938 411.550781 " fill-opacity="1" fill-rule="nonzero"/><g clip-path="url(#id1)"><path fill="#ff6978" d="M 327.703125 276.824219 C 250.441406 316.984375 192.160156 282.96875 190.910156 281.8125 C 201.25 225.355469 211.851562 182.347656 220.855469 160.441406 C 221.746094 158.214844 226.558594 153.316406 228.875 153.316406 C 231.28125 153.230469 233.507812 154.03125 235.914062 154.121094 C 242.867188 154.207031 247.765625 147.886719 252.757812 143.078125 C 253.828125 142.007812 254.984375 141.03125 256.144531 140.140625 C 256.144531 139.425781 256.054688 138.714844 255.964844 137.914062 C 255.164062 133.460938 251.597656 130.167969 249.28125 126.160156 C 247.765625 123.488281 246.785156 120.550781 246.164062 117.609375 C 243.578125 106.210938 244.558594 93.925781 249.015625 83.0625 C 250.171875 80.390625 251.957031 78.253906 254.09375 76.292969 C 259.621094 82.082031 270.9375 78.875 267.730469 73 C 271.382812 75.492188 275.035156 77.628906 277.441406 81.367188 C 278.867188 83.59375 279.671875 86.175781 280.207031 88.671875 C 281.273438 93.300781 281.808594 98.109375 282.878906 102.738281 C 284.394531 109.417969 287.066406 116.097656 286.355469 122.953125 C 286.085938 125.625 285.285156 128.207031 285.105469 130.878906 C 284.839844 134.441406 285.820312 138.179688 284.75 141.652344 C 284.304688 143.167969 283.503906 144.769531 284.039062 146.285156 L 283.769531 146.460938 C 286.175781 150.648438 288.492188 154.742188 290.453125 158.929688 C 306.050781 191.875 323.785156 251.980469 327.703125 276.824219 Z M 266.925781 11.378906 C 262.027344 3.71875 249.640625 0.691406 244.023438 6.214844 C 236.183594 6.035156 226.113281 13.78125 225.488281 38.539062 C 225.222656 49.132812 224.863281 59.996094 224.863281 59.996094 L 271.652344 59.996094 C 271.652344 59.996094 271.652344 51.714844 271.652344 43.613281 C 271.652344 35.597656 271.738281 19.035156 266.925781 11.378906 Z M 266.925781 11.378906 " fill-opacity="1" fill-rule="nonzero"/></g><path fill="#340068" d="M 331.179688 111.019531 C 326.8125 114.671875 322.445312 118.144531 319.238281 120.28125 C 310.058594 126.335938 297.226562 118.410156 288.316406 109.683594 C 290.632812 129.1875 291.789062 143.257812 290.542969 158.839844 C 287.957031 165.25 279.316406 165.25 279.316406 165.25 C 280.027344 157.148438 278.957031 128.652344 278.957031 128.117188 C 277.710938 130.433594 276.460938 132.480469 275.214844 134.085938 C 272.628906 137.199219 269.15625 139.25 265.324219 139.960938 C 264.878906 147.351562 264.433594 166.851562 264.433594 166.851562 C 235.113281 172.019531 220.941406 160.441406 220.941406 160.441406 C 209.625 136.933594 210.875 82.257812 216.042969 70.863281 C 219.429688 63.382812 225.398438 58.839844 230.925781 56.523438 C 233.597656 57.058594 236.183594 56.4375 238.320312 55.1875 C 240.90625 56.347656 244.46875 59.375 246.339844 62.402344 C 249.550781 67.65625 264.433594 93.390625 265.324219 99.089844 C 265.589844 101.046875 265.859375 103.453125 265.945312 106.035156 L 265.945312 106.300781 C 266.839844 105.234375 268.710938 103.097656 270.757812 100.691406 C 270.757812 100.691406 274.234375 107.28125 278.601562 111.910156 L 278.15625 91.964844 L 258.90625 56.347656 C 264.34375 57.058594 272.898438 59.550781 280.742188 64.628906 C 283.144531 66.230469 287.425781 69.972656 291.878906 74.066406 L 300.257812 81.992188 C 303.644531 85.285156 306.316406 87.957031 307.117188 88.847656 L 313.179688 94.546875 L 318.527344 91.875 C 318.527344 91.964844 318.527344 92.054688 318.527344 92.054688 C 318.527344 92.054688 326.722656 107.636719 331.179688 111.019531 Z M 331.179688 111.019531 " fill-opacity="1" fill-rule="nonzero"/><path fill="#f0a850" d="M 348.914062 95.347656 C 348.914062 95.347656 340.003906 103.628906 331.179688 111.019531 C 326.8125 107.636719 318.527344 92.054688 318.527344 92.054688 C 318.527344 92.054688 318.527344 91.964844 318.527344 91.964844 L 336.972656 82.882812 C 341.695312 80.210938 345.171875 72.910156 347.308594 69.882812 C 349.539062 66.765625 352.65625 68.546875 350.964844 73.265625 C 350.964844 73.265625 357.023438 69.082031 358.804688 68.277344 C 361.300781 67.121094 362.550781 69.792969 362.550781 69.792969 C 365.132812 68.902344 367.183594 70.238281 365.9375 72.554688 C 367.984375 73.265625 368.609375 75.847656 366.203125 77.894531 C 367.984375 78.875 368.429688 81.367188 365.578125 84.484375 C 362.636719 87.601562 348.914062 95.347656 348.914062 95.347656 Z M 303.730469 69.4375 C 304.179688 67.121094 302.484375 66.410156 302.484375 66.410156 C 302.21875 66.320312 301.683594 66.320312 301.328125 66.5 C 300.703125 65.785156 299.632812 65.164062 298.5625 65.875 C 297.496094 66.585938 290.898438 75.136719 289.832031 76.292969 C 288.851562 77.449219 286.085938 82.617188 283.324219 85.910156 C 282.253906 87.15625 275.75 94.726562 270.847656 100.425781 C 270.847656 100.515625 270.9375 100.601562 270.9375 100.691406 C 270.9375 100.691406 276.375 112.714844 284.125 116.007812 C 286.976562 108.527344 289.117188 101.761719 289.652344 101.046875 C 294.640625 97.664062 296.335938 90.183594 296.335938 90.183594 C 296.335938 90.183594 299.542969 85.644531 300.96875 84.394531 C 302.304688 83.0625 302.484375 81.902344 301.328125 80.65625 C 304.355469 76.382812 303.730469 73.976562 303.730469 73.976562 L 304.355469 73.085938 C 305.78125 70.59375 303.730469 69.4375 303.730469 69.4375 Z M 266.304688 17.523438 C 266.304688 12.089844 257.035156 11.46875 257.035156 11.46875 C 255.875 15.296875 247.320312 17.613281 247.320312 17.613281 L 241.617188 26.960938 C 240.371094 26.960938 238.410156 27.230469 237.519531 29.542969 C 235.914062 33.730469 241.351562 37.113281 243.042969 39.160156 C 243.042969 39.160156 243.042969 46.015625 243.042969 47.796875 C 243.042969 50.648438 241.082031 53.496094 238.230469 55.1875 C 245.539062 59.375 245.449219 60.976562 246.785156 63.203125 C 248.125 65.429688 254.273438 76.203125 254.273438 76.203125 C 259.796875 81.992188 271.117188 78.785156 267.90625 72.910156 L 258.996094 56.347656 L 258.996094 48.421875 C 258.996094 48.421875 268.710938 50.203125 268.710938 32.214844 " fill-opacity="1" fill-rule="nonzero"/><path fill="#00ecff" d="M 341.339844 448.507812 C 333.855469 448.507812 269.601562 448.59375 269.601562 448.59375 L 269.601562 448.507812 C 250.707031 448.59375 220.675781 448.683594 215.0625 448.507812 C 215.0625 448.507812 215.417969 432.566406 215.597656 427.136719 C 215.773438 423.304688 216.578125 411.550781 216.578125 411.550781 L 218.984375 411.550781 C 218.984375 411.550781 252.667969 411.015625 255.074219 411.640625 C 254.628906 413.957031 254.363281 415.46875 254.363281 415.914062 C 253.917969 421.792969 258.90625 425.265625 267.820312 428.648438 C 268.175781 428.828125 268.53125 428.914062 268.976562 429.09375 C 268.710938 423.929688 268.441406 417.964844 268.085938 411.460938 L 308.367188 411.460938 C 308.457031 413.867188 308.542969 415.378906 308.542969 415.914062 C 309.167969 422.773438 313.089844 425.265625 322 428.648438 C 330.914062 432.03125 337.238281 434.347656 342.945312 437.285156 C 348.648438 440.3125 348.914062 448.507812 341.339844 448.507812 Z M 238.410156 28.121094 C 238.410156 28.121094 239.480469 26.871094 241.617188 26.960938 C 241.617188 26.960938 241.707031 26.960938 241.707031 26.960938 L 241.707031 27.941406 C 241.707031 30.433594 243.667969 32.394531 246.164062 32.394531 L 275.304688 32.394531 C 277.710938 32.394531 279.671875 30.433594 279.671875 28.03125 L 279.671875 21.976562 C 279.671875 19.570312 277.710938 17.613281 275.304688 17.613281 L 246.074219 17.613281 C 243.578125 17.613281 241.617188 19.570312 241.617188 22.0625 L 241.617188 24.203125 C 239.570312 24.203125 237.519531 25.714844 238.410156 28.121094 Z M 238.410156 28.121094 " fill-opacity="1" fill-rule="nonzero"/><g clip-path="url(#id2)"><path fill="#201139" d="M 265.324219 335.417969 C 262.027344 335.417969 258.90625 334.972656 256.5 332.925781 L 257.390625 331.945312 C 260.242188 334.347656 264.433594 334.261719 268.53125 333.992188 L 268.621094 335.328125 C 267.550781 335.328125 266.480469 335.417969 265.324219 335.417969 Z M 207.933594 218.320312 C 209.089844 232.570312 214.347656 264.359375 214.4375 264.625 L 215.773438 264.449219 C 215.683594 264.089844 210.515625 232.390625 209.269531 218.234375 Z M 272.007812 266.050781 C 272.628906 273.886719 272.71875 281.8125 272.273438 289.558594 L 273.609375 289.648438 C 274.054688 281.8125 273.96875 273.796875 273.34375 265.960938 Z M 273.078125 210.308594 L 271.738281 210.308594 L 271.738281 227.9375 L 273.078125 227.9375 Z M 368.164062 79.765625 C 368.339844 80.835938 368.074219 82.703125 366.023438 84.929688 C 363.171875 88.046875 350.519531 95.261719 349.269531 95.882812 C 348.46875 96.597656 339.824219 104.609375 331.359375 111.734375 L 331.269531 111.910156 C 331.269531 111.910156 331.269531 111.910156 331.179688 111.824219 C 326.902344 115.382812 322.714844 118.769531 319.59375 120.816406 C 317.277344 122.328125 314.695312 123.042969 311.929688 123.042969 C 304.445312 123.042969 296.066406 117.878906 289.207031 111.464844 C 291.257812 128.917969 292.234375 141.652344 291.523438 154.832031 L 291.613281 154.476562 L 291.257812 158.75 C 307.476562 193.210938 324.675781 253.140625 328.417969 276.734375 L 328.507812 277.179688 L 328.0625 277.359375 C 320.308594 281.367188 312.734375 284.660156 305.425781 287.332031 C 305.425781 288.132812 305.515625 289.023438 305.515625 289.914062 L 305.515625 290.628906 C 306.585938 329.71875 308.902344 411.460938 309.347656 415.914062 C 309.96875 422.238281 313.269531 424.640625 322.359375 428.113281 C 323.785156 428.648438 325.210938 429.183594 326.457031 429.71875 C 333.230469 432.300781 338.578125 434.347656 343.300781 436.839844 C 346.507812 438.445312 348.203125 441.917969 347.488281 444.945312 C 346.863281 447.703125 344.371094 449.308594 340.984375 449.308594 C 335.8125 449.308594 304 449.308594 284.660156 449.308594 C 284.574219 449.308594 284.484375 449.308594 284.484375 449.308594 C 284.125 449.308594 283.679688 449.308594 283.234375 449.308594 C 275.214844 449.308594 269.691406 449.308594 269.691406 449.308594 C 264.609375 449.308594 258.816406 449.308594 252.847656 449.308594 C 243.847656 449.308594 234.578125 449.308594 227.359375 449.308594 C 221.921875 449.308594 217.558594 449.308594 215.238281 449.308594 L 214.617188 449.308594 L 214.617188 448.683594 C 214.617188 392.675781 227.003906 326.691406 227.628906 323.394531 L 222.371094 293.921875 C 202.40625 289.648438 190.644531 282.433594 190.464844 282.257812 L 190.199219 281.988281 L 190.289062 281.632812 C 200.179688 227.582031 210.339844 185.730469 219.160156 163.113281 L 219.339844 162.578125 C 219.605469 161.867188 219.875 161.152344 220.140625 160.53125 C 209 136.933594 209.804688 82.882812 215.417969 70.683594 C 217.734375 65.695312 221.03125 62.136719 224.152344 59.730469 C 224.242188 57.859375 224.507812 48.15625 224.773438 38.625 C 225.398438 14.316406 235.292969 5.679688 243.757812 5.589844 C 246.164062 3.363281 249.640625 2.386719 253.738281 2.832031 C 259.351562 3.453125 264.699219 6.660156 267.460938 11.023438 C 268.441406 12.535156 269.246094 14.496094 269.957031 16.898438 L 273.253906 16.898438 C 277.175781 16.898438 280.382812 20.105469 280.382812 24.023438 L 280.382812 25.894531 C 280.382812 29.8125 277.175781 33.015625 273.253906 33.015625 L 272.183594 33.015625 C 272.363281 36.847656 272.363281 40.40625 272.363281 43.078125 L 272.363281 59.464844 C 275.125 60.621094 278.15625 62.136719 281.1875 64.09375 C 283.769531 65.785156 288.226562 69.703125 291.789062 72.910156 C 295.355469 68.457031 297.582031 65.785156 298.296875 65.339844 C 299.722656 64.359375 300.878906 65.074219 301.59375 65.695312 C 302.039062 65.609375 302.394531 65.609375 302.753906 65.695312 C 302.753906 65.695312 302.839844 65.695312 302.839844 65.695312 C 303.554688 65.964844 304.710938 67.03125 304.535156 68.992188 C 305.335938 69.703125 306.226562 71.21875 305.070312 73.355469 L 304.980469 73.445312 L 304.535156 74.066406 C 304.625 74.867188 304.535156 77.183594 302.304688 80.566406 C 302.839844 81.28125 303.109375 82.171875 302.664062 83.238281 C 305.605469 86.089844 306.851562 87.425781 307.742188 88.3125 L 313.445312 93.65625 L 336.792969 82.171875 C 340.179688 80.300781 342.945312 75.667969 345.082031 72.285156 C 345.796875 71.128906 346.417969 70.148438 346.953125 69.347656 C 348.289062 67.476562 349.804688 67.300781 350.695312 67.746094 C 351.855469 68.277344 352.300781 69.703125 352.121094 71.664062 C 353.992188 70.328125 357.378906 68.101562 358.71875 67.566406 C 359.785156 67.121094 360.765625 67.121094 361.570312 67.566406 C 362.28125 67.921875 362.816406 68.546875 363.082031 68.992188 C 364.507812 68.636719 365.847656 68.902344 366.558594 69.703125 C 367.09375 70.328125 367.273438 71.21875 366.914062 72.195312 C 367.808594 72.730469 368.339844 73.53125 368.519531 74.421875 C 368.699219 75.582031 368.339844 76.738281 367.363281 77.71875 C 367.71875 78.339844 368.074219 78.964844 368.164062 79.765625 Z M 353.28125 76.917969 C 353.816406 77.628906 354.351562 78.429688 354.972656 79.410156 C 355.242188 79.230469 363.707031 73.53125 365.3125 72.285156 C 365.488281 71.839844 365.757812 71.21875 365.3125 70.773438 C 364.957031 70.328125 363.976562 70.148438 362.726562 70.59375 L 362.550781 70.683594 C 361.65625 70.863281 357.292969 73.890625 353.28125 76.917969 Z M 290.363281 76.738281 C 290.007812 77.183594 289.382812 78.164062 288.671875 79.320312 C 287.425781 81.367188 285.640625 84.21875 283.949219 86.265625 C 282.878906 87.511719 276.640625 94.816406 271.738281 100.515625 C 272.453125 101.9375 277.355469 111.824219 283.949219 115.117188 C 285.464844 111.199219 286.890625 107.371094 287.957031 104.519531 C 289.382812 100.691406 289.832031 99.445312 290.097656 99 L 290.277344 98.820312 C 295 95.617188 296.691406 88.402344 296.691406 88.316406 L 296.691406 88.136719 L 296.78125 88.046875 C 296.871094 87.957031 299.1875 85.109375 300.523438 83.773438 C 301.414062 82.882812 301.59375 82.257812 301.414062 81.726562 C 300.878906 82.4375 300.078125 83.238281 299.277344 84.128906 C 298.117188 85.375 296.871094 86.710938 296.425781 87.601562 C 296.335938 87.871094 296.15625 88.226562 295.980469 88.582031 C 295.089844 90.808594 293.75 94.191406 290.898438 95.4375 C 289.652344 95.972656 288.582031 96.152344 287.78125 96.152344 C 286.53125 96.152344 285.820312 95.707031 285.730469 95.617188 L 286.53125 94.546875 C 286.53125 94.546875 287.691406 95.347656 290.277344 94.191406 C 292.59375 93.121094 293.839844 90.09375 294.640625 88.046875 C 294.820312 87.601562 294.910156 87.246094 295.089844 86.980469 C 295.621094 85.910156 296.871094 84.484375 298.117188 83.148438 C 299.007812 82.257812 299.8125 81.28125 300.347656 80.566406 L 300.703125 80.121094 C 303.109375 76.738281 303.109375 74.601562 303.019531 74.066406 C 302.839844 73.800781 302.574219 73.710938 302.304688 73.710938 C 301.949219 73.710938 301.59375 73.890625 301.238281 74.335938 C 299.988281 75.847656 294.195312 83.773438 294.109375 83.773438 L 293.039062 82.972656 C 293.304688 82.617188 298.921875 74.957031 300.167969 73.445312 C 300.792969 72.730469 301.59375 72.285156 302.304688 72.375 C 302.753906 72.375 303.109375 72.554688 303.464844 72.820312 L 303.644531 72.640625 C 304.625 70.683594 303.285156 69.882812 303.199219 69.882812 C 302.929688 69.703125 302.394531 69.703125 300.347656 71.664062 C 298.386719 73.53125 293.75 80.300781 293.664062 80.300781 L 292.59375 79.589844 C 292.769531 79.320312 297.316406 72.640625 299.453125 70.683594 C 300.96875 69.257812 302.039062 68.457031 302.929688 68.457031 C 302.839844 67.300781 302.039062 66.945312 302.039062 66.945312 C 301.949219 66.945312 301.859375 66.945312 301.773438 66.945312 C 301.773438 66.945312 301.773438 66.945312 301.683594 66.945312 C 301.59375 66.945312 301.503906 67.03125 301.414062 67.03125 L 300.96875 67.210938 C 299.988281 67.832031 298.5625 69.257812 298.027344 69.792969 C 296.601562 71.21875 291.257812 78.339844 291.257812 78.429688 L 290.1875 77.628906 C 290.453125 77.363281 295.621094 70.328125 297.136719 68.902344 C 298.117188 67.921875 299.007812 67.03125 299.898438 66.410156 C 299.453125 66.140625 299.097656 66.140625 298.652344 66.5 C 297.941406 67.03125 293.484375 72.554688 291.613281 74.867188 C 291.167969 75.757812 290.632812 76.472656 290.363281 76.738281 Z M 277.355469 91.964844 L 268.796875 76.203125 C 268.53125 77.003906 267.90625 77.808594 267.105469 78.429688 C 265.679688 79.410156 263.71875 79.945312 261.667969 79.945312 C 259.886719 79.945312 257.925781 79.5 256.234375 78.609375 C 260.777344 86.890625 265.324219 95.792969 265.859375 99 C 266.125 100.515625 266.304688 102.472656 266.394531 104.609375 C 268.976562 101.761719 273.609375 96.328125 277.355469 91.964844 Z M 243.667969 38.984375 L 243.667969 47.796875 C 243.667969 50.292969 242.332031 52.875 240.015625 54.742188 C 239.835938 54.832031 239.65625 55.011719 239.480469 55.101562 C 241.886719 56.523438 245.003906 59.105469 246.785156 62.046875 C 247.679688 63.558594 251.066406 69.257812 254.71875 75.757812 C 258.195312 79.410156 263.808594 79.054688 266.304688 77.273438 C 267.371094 76.558594 268.351562 75.226562 267.195312 73.175781 L 258.460938 56.882812 L 258.195312 56.882812 L 258.195312 53.140625 C 252.402344 52.785156 249.191406 46.640625 249.015625 46.375 L 248.035156 44.503906 L 249.90625 45.484375 C 249.90625 45.484375 253.917969 47.53125 258.28125 47.796875 L 258.28125 47.710938 L 258.996094 47.886719 L 259.621094 47.886719 L 259.621094 47.976562 C 260.421875 47.976562 262.113281 47.796875 263.71875 46.460938 C 266.394531 44.238281 267.820312 39.605469 267.996094 33.195312 L 263.09375 33.195312 C 262.738281 34.886719 261.222656 36.132812 259.441406 36.132812 L 258.90625 36.132812 L 258.90625 34.796875 L 259.441406 34.796875 C 260.511719 34.796875 261.402344 34.175781 261.667969 33.195312 L 246.074219 33.195312 C 243.222656 33.195312 240.996094 30.878906 240.996094 28.121094 L 240.996094 27.675781 C 239.570312 27.761719 238.589844 28.476562 238.054688 29.8125 C 236.984375 32.660156 239.65625 35.066406 241.796875 37.113281 C 241.886719 37.203125 241.976562 37.203125 241.976562 37.292969 C 242.152344 37.46875 242.421875 37.46875 242.777344 37.203125 C 243.132812 36.933594 243.402344 36.402344 243.222656 36.132812 L 244.382812 35.511719 C 244.914062 36.488281 244.292969 37.648438 243.488281 38.269531 C 243.402344 38.359375 243.3125 38.449219 243.132812 38.449219 C 243.222656 38.539062 243.3125 38.625 243.402344 38.714844 Z M 240.996094 26.339844 L 240.996094 24.914062 C 240.28125 25.089844 239.570312 25.449219 239.210938 25.980469 C 239.035156 26.25 238.945312 26.605469 238.855469 26.960938 C 239.570312 26.515625 240.371094 26.339844 240.996094 26.339844 Z M 246.074219 18.234375 C 244.023438 18.234375 242.332031 19.925781 242.332031 21.976562 L 242.332031 27.851562 C 242.332031 29.898438 244.023438 31.59375 246.074219 31.59375 L 254.363281 31.59375 C 252.578125 30.257812 251.332031 28.207031 251.332031 25.804688 L 251.332031 23.933594 C 251.332031 21.53125 252.492188 19.480469 254.363281 18.144531 L 246.074219 18.144531 Z M 258.550781 16.898438 L 265.589844 16.898438 C 265.054688 13.335938 259.261719 12.359375 257.480469 12.089844 C 256.5 14.226562 253.558594 15.832031 251.152344 16.898438 Z M 264.519531 47.351562 C 262.648438 48.957031 260.601562 49.132812 259.621094 49.132812 L 259.621094 55.8125 C 261.667969 56.167969 265.859375 56.96875 270.9375 58.929688 L 270.9375 43.078125 C 270.9375 40.40625 270.9375 36.847656 270.757812 33.015625 L 269.246094 33.015625 C 269.15625 39.960938 267.550781 44.859375 264.519531 47.351562 Z M 260.15625 57.238281 L 278.335938 90.898438 C 279.402344 89.648438 280.292969 88.582031 281.097656 87.691406 L 271.027344 72.820312 L 272.097656 72.109375 L 281.898438 86.621094 C 282.34375 86.089844 282.699219 85.730469 282.878906 85.464844 C 284.574219 83.507812 286.265625 80.746094 287.511719 78.699219 C 288.316406 77.449219 288.9375 76.382812 289.296875 75.9375 C 289.5625 75.667969 290.097656 74.957031 290.808594 74.066406 C 286 69.613281 282.34375 66.585938 280.292969 65.25 C 272.097656 59.820312 263.898438 57.859375 260.15625 57.238281 Z M 259.175781 18.234375 L 258.550781 18.234375 C 255.34375 18.234375 252.757812 20.816406 252.757812 24.023438 L 252.757812 25.894531 C 252.757812 29.097656 255.34375 31.679688 258.550781 31.679688 L 273.253906 31.679688 C 276.460938 31.679688 279.046875 29.097656 279.046875 25.894531 L 279.046875 24.023438 C 279.046875 20.816406 276.460938 18.234375 273.253906 18.234375 Z M 246.164062 5.414062 C 251.421875 5.414062 256.410156 7.90625 257.570312 9.863281 C 257.75 10.222656 257.835938 10.488281 257.835938 10.753906 C 260.066406 11.023438 266.394531 12.269531 266.925781 16.808594 L 268.53125 16.808594 C 267.90625 14.761719 267.195312 12.980469 266.304688 11.644531 C 263.71875 7.636719 258.730469 4.609375 253.558594 4.078125 C 250.707031 3.898438 248.125 4.34375 246.164062 5.414062 Z M 225.488281 58.75 C 226.46875 58.039062 227.449219 57.503906 228.339844 57.058594 C 227.359375 57.058594 226.914062 57.238281 226.914062 57.238281 L 226.46875 55.992188 C 226.558594 55.992188 228.074219 55.457031 230.746094 55.902344 L 230.925781 55.902344 C 233.777344 56.4375 236.71875 55.722656 239.121094 53.765625 C 241.082031 52.160156 242.332031 49.9375 242.332031 47.796875 L 242.332031 39.429688 C 241.976562 39.070312 241.441406 38.539062 240.90625 38.09375 C 238.675781 36.042969 235.378906 33.015625 236.804688 29.367188 C 237.074219 28.832031 237.339844 28.296875 237.609375 27.941406 C 237.339844 26.960938 237.519531 25.980469 238.054688 25.269531 C 238.675781 24.378906 239.746094 23.757812 240.90625 23.578125 L 240.90625 22.0625 C 240.90625 19.214844 243.222656 16.988281 245.984375 16.988281 L 247.234375 16.988281 C 249.550781 16.277344 255.519531 14.050781 256.410156 11.289062 L 256.5 10.933594 C 256.5 10.84375 256.410156 10.753906 256.410156 10.667969 C 255.429688 8.972656 249.726562 6.304688 244.292969 6.925781 L 244.023438 6.925781 C 237.785156 6.835938 226.824219 13.335938 226.113281 38.625 C 225.84375 46.996094 225.578125 55.546875 225.488281 58.75 Z M 221.390625 159.996094 C 225.667969 162.667969 230.121094 164.539062 234.488281 165.695312 C 241.082031 167.386719 250.171875 168.277344 261.847656 166.585938 C 262.203125 166.496094 262.382812 166.496094 262.382812 166.496094 L 263.183594 166.320312 L 263.183594 166.40625 C 263.363281 166.40625 263.539062 166.320312 263.71875 166.320312 C 263.808594 163.203125 264.164062 147.886719 264.519531 140.761719 C 263.808594 140.851562 263.09375 140.941406 262.382812 140.941406 C 262.203125 140.941406 262.027344 140.941406 261.847656 140.941406 C 255.789062 140.761719 250.085938 137.378906 245.71875 131.324219 C 236.894531 119.035156 225.578125 103.273438 225.488281 103.097656 L 226.558594 102.292969 C 226.648438 102.472656 237.964844 118.234375 246.785156 130.523438 C 250.886719 136.132812 256.234375 139.335938 261.847656 139.515625 C 266.75 139.695312 271.382812 137.558594 274.589844 133.640625 C 275.394531 132.660156 276.195312 131.414062 277.085938 129.988281 L 277.085938 129.898438 L 278.246094 127.941406 C 280.027344 124.554688 281.808594 120.460938 283.414062 116.363281 C 276.820312 113.246094 272.007812 104.34375 270.757812 101.671875 C 268.085938 104.789062 266.035156 107.191406 265.769531 107.460938 L 263.007812 111.644531 L 261.847656 110.933594 L 264.34375 107.101562 C 262.738281 104.964844 254.273438 93.566406 247.855469 83.417969 C 243.402344 76.203125 238.320312 74.246094 235.648438 73.710938 C 233.242188 73.265625 231.726562 73.621094 231.371094 73.800781 L 230.566406 72.730469 C 231.371094 72.195312 233.332031 71.839844 235.914062 72.375 C 238.765625 73 244.292969 75.046875 249.105469 82.703125 C 255.253906 92.410156 263.09375 103.097656 265.234375 105.945312 C 265.054688 103.273438 264.878906 101.046875 264.609375 99.179688 C 263.71875 93.65625 249.28125 68.636719 245.71875 62.757812 C 243.933594 59.820312 240.636719 57.148438 238.230469 55.992188 C 236.003906 57.238281 233.417969 57.683594 230.925781 57.238281 C 227.09375 58.929688 220.410156 62.847656 216.578125 71.128906 C 211.320312 82.882812 210.605469 137.289062 221.390625 159.996094 Z M 217.378906 410.839844 L 254.628906 410.839844 C 257.660156 394.453125 268.085938 344.5 271.5625 327.582031 C 272.988281 320.546875 272.453125 308.527344 271.472656 298.550781 C 263.898438 301.046875 254.539062 301.847656 246.164062 301.847656 C 236.269531 301.847656 227.628906 300.777344 224.953125 300.421875 L 228.964844 323.21875 L 228.964844 323.308594 C 228.695312 323.929688 220.765625 365.515625 217.378906 410.839844 Z M 255.074219 416.003906 C 254.71875 420.902344 258.371094 424.375 268.085938 428.113281 C 268.175781 428.113281 268.175781 428.203125 268.265625 428.203125 C 267.640625 414.132812 266.570312 393.03125 265.054688 365.515625 C 260.242188 388.933594 255.253906 413.601562 255.074219 416.003906 Z M 289.742188 443.164062 C 290.277344 440.402344 288.671875 437.910156 285.105469 436.484375 C 278.246094 433.636719 272.542969 431.320312 267.550781 429.359375 C 258.90625 426.066406 253.203125 422.503906 253.648438 415.914062 C 253.648438 415.46875 253.917969 414.132812 254.273438 412.175781 L 217.199219 412.175781 C 216.308594 424.019531 215.773438 436.128906 215.773438 447.882812 C 221.746094 447.882812 237.519531 447.882812 252.757812 447.882812 C 265.859375 447.882812 278.246094 447.882812 283.144531 447.882812 C 283.59375 447.882812 284.039062 447.882812 284.574219 447.882812 C 286.890625 447.792969 289.207031 445.746094 289.742188 443.164062 Z M 307.742188 412.175781 L 268.796875 412.175781 C 269.15625 418.496094 269.332031 423.929688 269.601562 428.648438 C 274.234375 430.429688 279.492188 432.566406 285.640625 435.148438 C 289.742188 436.839844 291.789062 439.957031 291.078125 443.339844 C 290.722656 445.121094 289.652344 446.726562 288.226562 447.792969 C 307.652344 447.792969 336.082031 447.792969 340.984375 447.792969 C 343.746094 447.792969 345.707031 446.546875 346.152344 444.5 C 346.6875 442.363281 345.617188 439.421875 342.675781 437.910156 C 337.953125 435.417969 332.605469 433.457031 325.921875 430.875 C 324.585938 430.339844 323.25 429.804688 321.734375 429.273438 C 312.464844 425.710938 308.542969 423.128906 307.832031 416.003906 C 307.832031 415.558594 307.742188 414.222656 307.742188 412.175781 Z M 304.089844 291.074219 C 300.792969 292.050781 288.582031 295.4375 272.453125 295.613281 C 272.542969 296.238281 272.542969 296.859375 272.628906 297.574219 L 272.71875 298.195312 C 273.699219 308.347656 274.324219 320.636719 272.808594 327.847656 C 271.382812 334.703125 268.796875 346.992188 266.125 360.261719 C 267.195312 380.476562 268.085938 397.304688 268.710938 410.839844 L 307.652344 410.839844 C 307.207031 398.550781 306.226562 367.296875 305.425781 337.375 C 304.890625 337.464844 304.355469 337.464844 303.820312 337.464844 C 302.21875 337.464844 300.523438 337.109375 299.007812 336.398438 L 299.542969 335.148438 C 301.328125 335.953125 303.375 336.21875 305.246094 335.953125 C 304.890625 319.390625 304.445312 303.183594 304.089844 291.074219 Z M 290.722656 160.796875 C 289.742188 163.292969 286.800781 167.476562 278.421875 167.476562 C 278.421875 167.476562 278.421875 167.476562 278.335938 167.476562 L 277.710938 167.476562 L 277.175781 132.570312 C 276.730469 133.28125 276.195312 133.996094 275.75 134.617188 C 273.164062 137.734375 269.691406 139.871094 265.945312 140.671875 C 265.5 148.332031 265.144531 166.851562 265.144531 167.03125 L 265.144531 167.566406 L 264.609375 167.65625 C 264.164062 167.742188 263.808594 167.832031 263.363281 167.832031 L 263.539062 170.503906 L 262.917969 170.59375 C 257.480469 171.660156 252.492188 172.105469 248.125 172.105469 C 231.816406 172.105469 222.726562 166.140625 220.230469 164.183594 C 211.496094 186.621094 201.425781 228.027344 191.625 281.457031 C 193.671875 282.792969 204.8125 288.757812 222.101562 292.496094 L 223.082031 292.675781 C 223.082031 292.675781 223.171875 292.675781 223.171875 292.675781 C 223.171875 292.675781 223.261719 292.675781 223.261719 292.675781 C 225.84375 293.210938 228.519531 293.65625 231.28125 294.101562 C 242.777344 295.792969 257.75 296.414062 275.125 293.65625 C 278.066406 293.121094 282.523438 292.320312 287.511719 291.160156 C 293.214844 289.824219 299.007812 288.042969 305.070312 285.90625 L 305.335938 285.820312 C 312.375 283.238281 319.59375 280.121094 326.992188 276.289062 C 323.160156 252.960938 306.585938 195.167969 290.722656 160.796875 Z M 287.691406 110.042969 C 287.601562 109.953125 287.511719 109.863281 287.425781 109.773438 C 285.285156 115.5625 282.433594 122.6875 279.582031 128.296875 C 279.671875 129.722656 280.027344 140.496094 280.207031 150.648438 C 280.292969 156.257812 280.292969 161.511719 280.027344 164.628906 C 281.988281 164.449219 287.246094 163.648438 289.472656 159.550781 C 289.472656 159.460938 289.5625 159.460938 289.5625 159.375 C 289.652344 159.195312 289.742188 158.929688 289.832031 158.75 C 291.078125 143.699219 290.007812 129.988281 287.691406 110.042969 Z M 330.109375 111.019531 C 325.921875 107.101562 319.507812 95.347656 318.167969 92.855469 L 313.625 95.082031 L 311.484375 97.308594 L 310.503906 96.417969 L 312.289062 94.636719 L 306.671875 89.472656 C 305.960938 88.671875 304.980469 87.601562 301.859375 84.574219 C 301.773438 84.753906 301.59375 84.839844 301.503906 85.019531 C 300.347656 86.175781 298.386719 88.492188 297.941406 89.027344 C 297.671875 90.183594 295.800781 96.773438 291.078125 100.070312 C 290.808594 100.601562 290.007812 102.828125 289.117188 105.144531 C 288.761719 106.125 288.316406 107.28125 287.871094 108.4375 C 297.136719 117.878906 309.96875 125.625 318.792969 119.746094 C 321.910156 117.699219 325.921875 114.492188 330.109375 111.019531 Z M 366.828125 79.945312 C 366.738281 79.5 366.558594 79.054688 366.203125 78.785156 C 363.886719 80.835938 358.449219 85.109375 358.183594 85.375 L 357.378906 84.394531 L 356.3125 84.839844 C 354.707031 80.566406 350.964844 76.203125 350.964844 76.203125 L 351.945312 75.3125 C 351.945312 75.3125 352.210938 75.582031 352.480469 75.9375 C 354.441406 74.511719 359.519531 70.773438 361.570312 69.613281 C 361.390625 69.347656 361.125 69.082031 360.765625 68.902344 C 360.230469 68.636719 359.699219 68.722656 358.984375 68.992188 C 357.558594 69.527344 353.191406 72.554688 351.410156 73.800781 C 351.140625 74.335938 350.964844 75.492188 350.785156 76.738281 C 350.429688 79.320312 349.984375 82.527344 348.203125 84.664062 L 347.132812 83.773438 C 348.734375 81.902344 349.09375 78.875 349.449219 76.472656 C 349.628906 74.957031 349.804688 73.800781 350.25 73 C 350.875 70.773438 350.519531 69.347656 349.894531 68.992188 C 349.359375 68.722656 348.558594 69.167969 347.84375 70.238281 C 347.308594 70.949219 346.6875 71.929688 346.0625 73.085938 C 343.925781 76.558594 340.984375 81.367188 337.328125 83.417969 L 319.417969 92.234375 C 320.84375 94.816406 327.347656 106.746094 331.179688 110.128906 C 338.308594 104.164062 345.351562 97.664062 347.667969 95.527344 C 346.953125 95.261719 346.328125 94.726562 345.882812 94.191406 L 346.953125 93.390625 C 347.398438 94.011719 348.113281 94.457031 348.914062 94.546875 C 350.964844 93.390625 362.460938 86.710938 365.042969 83.953125 C 366.382812 82.527344 367.003906 81.101562 366.828125 79.945312 Z M 367.003906 74.78125 C 366.914062 74.15625 366.558594 73.710938 365.933594 73.445312 C 363.796875 75.046875 356.042969 80.300781 355.777344 80.476562 L 355.332031 79.855469 C 356.132812 81.191406 356.933594 82.703125 357.558594 84.21875 C 358.359375 83.59375 362.816406 80.03125 365.042969 78.074219 L 365.757812 77.449219 C 366.738281 76.558594 367.183594 75.667969 367.003906 74.78125 Z M 340.003906 85.109375 L 338.753906 85.554688 C 339.378906 87.246094 341.605469 88.402344 343.300781 88.402344 C 343.65625 88.402344 344.011719 88.3125 344.28125 88.226562 L 343.835938 86.980469 C 342.765625 87.335938 340.449219 86.535156 340.003906 85.109375 Z M 259.886719 42.542969 L 259.886719 41.210938 C 258.195312 41.210938 256.945312 40.765625 256.054688 39.875 C 254.808594 38.625 254.898438 36.847656 254.898438 36.757812 L 253.648438 36.757812 C 253.648438 36.847656 253.558594 39.160156 255.253906 40.851562 C 256.234375 41.921875 257.835938 42.542969 259.886719 42.542969 Z M 272.097656 20.90625 L 271.203125 19.925781 L 260.867188 28.652344 L 261.757812 29.632812 Z M 266.925781 29.632812 L 276.640625 21.617188 L 275.75 20.550781 L 266.035156 28.566406 Z M 266.925781 29.632812 " fill-opacity="1" fill-rule="nonzero"/></g></svg>