<svg xmlns="http://www.w3.org/2000/svg" xmlns:xlink="http://www.w3.org/1999/xlink" width="800" zoomAndPan="magnify" viewBox="0 0 600 449.999984" height="600" preserveAspectRatio="xMidYMid meet" version="1.0"><path fill="#00ecff" d="M 511.640625 340.789062 C 511.640625 340.789062 514.550781 358.070312 513.328125 367.085938 C 509.105469 399.484375 487.035156 397.417969 462.433594 397.417969 C 453.792969 397.417969 447.21875 388.871094 440.082031 383.988281 C 434.542969 380.136719 428.625 375.910156 426.371094 369.527344 C 424.496094 364.078125 425.621094 357.976562 428.4375 353 C 431.160156 348.019531 435.292969 343.890625 439.613281 340.132812 C 450.601562 330.554688 464.3125 322.195312 478.867188 323.417969 C 492.011719 324.542969 502.0625 331.964844 511.640625 340.789062 Z M 511.640625 340.789062 " fill-opacity="1" fill-rule="nonzero"/><path fill="#340068" d="M 456.046875 446.25 L 280.726562 446.25 C 281.101562 430.660156 287.671875 403.144531 287.671875 403.144531 L 449.003906 403.144531 C 459.050781 424.742188 456.046875 446.25 456.046875 446.25 Z M 456.046875 446.25 " fill-opacity="1" fill-rule="nonzero"/><path fill="#ff6978" d="M 464.6875 303.320312 C 464.78125 353.09375 462.246094 403.050781 462.246094 403.050781 L 280.726562 403.050781 C 280.535156 387.179688 282.695312 338.253906 286.453125 296.089844 L 261.566406 315.246094 C 217.808594 296.9375 213.113281 250.167969 213.113281 250.167969 C 213.113281 250.167969 269.832031 181.242188 337.632812 163.960938 C 337.914062 163.867188 338.195312 163.867188 338.476562 163.773438 L 346.742188 162.367188 C 346.742188 162.367188 387.214844 157.578125 388.246094 157.578125 C 389.28125 157.671875 403.179688 159.265625 403.179688 159.265625 L 435.292969 167.34375 C 459.238281 176.359375 480.554688 192.324219 492.671875 217.300781 C 500.746094 234.113281 509.949219 256.085938 516.242188 274.960938 C 501.96875 288.484375 480.933594 297.6875 464.6875 303.320312 Z M 464.6875 303.320312 " fill-opacity="1" fill-rule="nonzero"/><path fill="#ef7b49" d="M 250.675781 309.707031 C 230.484375 331.585938 201 349.148438 175.175781 332.152344 C 149.351562 315.058594 90.097656 267.449219 90.097656 267.449219 C 82.675781 262.941406 71.125 260.03125 61.359375 253.175781 C 51.5 246.320312 46.335938 240.589844 49.714844 234.769531 C 51.3125 232.046875 54.222656 233.453125 54.222656 233.453125 C 46.898438 228.570312 48.683594 216.925781 56.664062 219.273438 C 51.6875 214.859375 57.511719 205 64.175781 209.882812 C 62.582031 205.375 67.558594 201.335938 73.097656 203.027344 C 77.417969 204.34375 81.550781 208.003906 81.550781 208.003906 C 81.550781 208.003906 85.117188 202.746094 89.4375 203.683594 C 101.929688 206.410156 108.03125 223.40625 108.03125 223.40625 L 196.773438 265.382812 L 213.019531 250.167969 C 213.207031 250.167969 217.054688 288.859375 250.675781 309.707031 Z M 250.675781 309.707031 " fill-opacity="1" fill-rule="nonzero"/><path fill="#000000" d="M 414.632812 44.605469 C 414.164062 46.109375 413.320312 48.550781 412.191406 51.554688 C 407.96875 63.292969 400.265625 85.175781 400.738281 91.277344 L 400.078125 91.371094 L 399.421875 91.464844 C 399.421875 91.371094 399.421875 91.277344 399.421875 91.183594 L 316.128906 62.449219 L 315.375 62.449219 C 315.375 57.378906 315.375 49.769531 315.375 43.105469 C 315.375 37.09375 315.375 31.835938 315.375 30.144531 C 315.375 30.144531 315.375 27.515625 315.375 13.054688 C 315.375 4.695312 320.257812 0.46875 324.765625 0.1875 C 327.675781 0 331.058594 1.503906 332.5625 5.070312 C 334.15625 1.597656 337.445312 0.28125 340.449219 0.46875 C 343.640625 0.75 347.117188 2.816406 348.335938 6.855469 C 350.308594 3.191406 354.535156 1.503906 358.289062 2.066406 C 361.484375 2.535156 364.863281 4.695312 365.617188 9.484375 C 367.871094 6.292969 371.71875 5.257812 375.007812 6.011719 C 378.011719 6.667969 380.640625 9.015625 380.828125 12.769531 C 383.550781 10.894531 387.402344 11.644531 390.125 13.523438 C 392.472656 15.117188 394.070312 17.84375 393.503906 20.660156 C 395.570312 19.910156 398.105469 20.285156 400.644531 21.972656 C 403.742188 24.039062 406.089844 27.515625 405.621094 30.988281 C 406.933594 30.332031 408.4375 30.332031 410.03125 31.082031 C 413.882812 32.773438 416.699219 38.3125 414.632812 44.605469 Z M 337.820312 164.714844 L 337.445312 163.304688 C 270.207031 180.394531 213.113281 249.042969 212.550781 249.699219 L 212.359375 249.886719 L 212.359375 250.167969 C 212.457031 250.640625 217.621094 297.5 261.191406 315.8125 L 261.566406 316 L 278.1875 303.132812 L 277.34375 302.007812 L 261.378906 314.308594 C 220.71875 296.9375 214.238281 254.207031 213.769531 250.261719 C 217.621094 246.039062 273.023438 181.148438 337.820312 164.714844 Z M 337.820312 164.714844 " fill-opacity="1" fill-rule="nonzero"/><path fill="#ef7b49" d="M 319.601562 128.839844 C 316.222656 114.472656 316.035156 88.460938 316.035156 62.355469 C 316.035156 59.066406 319.132812 56.71875 322.324219 55.96875 C 324.765625 55.3125 327.773438 55.6875 329.554688 53.808594 C 330.214844 53.152344 330.589844 52.210938 330.964844 51.367188 C 332.183594 48.550781 333.78125 45.546875 336.785156 44.605469 C 339.699219 43.667969 342.796875 45.167969 345.894531 45.261719 C 350.496094 45.355469 354.816406 42.351562 359.417969 43.105469 C 363.175781 43.761719 366.273438 47.328125 366.273438 51.179688 C 366.273438 53.621094 365.238281 56.25 366.554688 58.410156 C 367.871094 60.570312 370.875 60.851562 373.222656 61.886719 C 377.355469 63.761719 379.609375 69.117188 377.917969 73.4375 C 377.636719 74.28125 377.167969 75.03125 377.167969 75.878906 C 377.074219 77.378906 378.292969 78.601562 379.324219 79.632812 C 381.109375 81.324219 383.269531 83.015625 385.429688 81.886719 C 385.429688 81.886719 395.851562 78.976562 399.515625 88.460938 C 403.929688 99.730469 389.1875 108.746094 384.679688 114.285156 L 384.679688 157.484375 C 384.679688 157.484375 386.839844 158.046875 388.527344 158.046875 C 387.683594 172.226562 373.222656 189.410156 350.402344 188.285156 C 338.195312 187.722656 335.847656 169.878906 337.914062 164.246094 L 347.023438 162.742188 L 347.023438 143.867188 C 330.589844 145.652344 323.453125 145.085938 319.601562 128.839844 Z M 509.480469 280.878906 C 482.152344 301.441406 440.550781 310.457031 440.550781 310.457031 L 370.3125 328.207031 C 370.3125 328.207031 354.910156 318.628906 343.453125 324.261719 C 339.511719 326.234375 339.886719 332.527344 339.886719 332.527344 C 339.886719 332.527344 334.4375 332.246094 330.214844 333.839844 C 326.832031 335.15625 324.953125 338.253906 325.140625 340.882812 C 325.332031 343.042969 324.390625 345.015625 322.984375 346.707031 C 321.386719 348.585938 321.480469 351.589844 322.699219 353.75 C 323.828125 355.816406 324.296875 358.164062 323.828125 360.511719 C 323.171875 363.328125 325.234375 366.804688 328.804688 368.492188 C 330.496094 369.339844 331.339844 371.027344 331.339844 372.8125 C 331.339844 373 331.339844 373.09375 331.339844 373.28125 C 332.277344 379.949219 339.886719 381.265625 351.90625 380.511719 C 363.832031 379.761719 371.8125 373.941406 380.359375 372.90625 C 380.359375 372.90625 433.699219 374.222656 475.390625 363.609375 C 517.929688 352.621094 527.792969 322.574219 509.480469 280.878906 Z M 509.480469 280.878906 " fill-opacity="1" fill-rule="nonzero"/><path fill="#00ecff" d="M 440.457031 310.363281 L 424.214844 315.625 C 392.191406 248.949219 393.128906 178.988281 403.460938 158.890625 C 404.585938 156.636719 407.027344 155.324219 409.5625 155.605469 C 414.917969 156.167969 425.246094 157.765625 433.414062 161.613281 C 435.011719 162.367188 435.855469 163.960938 435.761719 165.652344 C 435.667969 166.308594 435.574219 166.96875 435.292969 167.53125 C 435.292969 167.53125 429.753906 167.15625 425.527344 188.097656 C 418.765625 221.339844 434.730469 296.746094 440.457031 310.363281 Z M 388.058594 73.71875 L 388.058594 67.988281 C 388.058594 61.414062 382.707031 56.15625 376.226562 56.15625 L 298.191406 56.15625 C 291.804688 56.15625 286.546875 61.414062 286.546875 67.800781 L 286.546875 84.046875 C 286.546875 90.433594 291.804688 95.691406 298.191406 95.691406 L 376.226562 95.691406 C 382.800781 95.691406 388.058594 90.339844 388.058594 83.859375 L 388.058594 81.230469 C 388.152344 81.230469 388.246094 81.230469 388.246094 81.230469 C 393.976562 80.949219 396.699219 84.234375 396.699219 84.234375 C 399.140625 78.039062 393.695312 73.71875 388.058594 73.71875 Z M 281.289062 379.292969 C 284.667969 275.996094 334.25 182.554688 346.835938 162.554688 L 346.648438 158.703125 C 346.648438 158.703125 333.125 160.488281 323.734375 164.054688 C 320.917969 165.089844 318.476562 166.96875 316.503906 169.222656 C 309.742188 177.015625 293.402344 199.085938 285.984375 237.679688 C 269.832031 321.632812 281.289062 379.292969 281.289062 379.292969 Z M 281.289062 379.292969 " fill-opacity="1" fill-rule="nonzero"/><path fill="#000000" d="M 351.34375 117.476562 C 348.617188 120.390625 344.582031 121.796875 339.320312 121.796875 L 339.320312 120.390625 C 344.109375 120.390625 347.773438 119.074219 350.308594 116.539062 C 353.972656 112.78125 353.785156 107.523438 353.785156 107.523438 L 355.191406 107.429688 C 355.191406 107.710938 355.378906 113.347656 351.34375 117.476562 Z M 97.796875 243.503906 L 97.796875 244.910156 C 102.398438 244.910156 106.8125 241.71875 108.3125 237.398438 L 107 236.929688 C 105.683594 240.777344 101.832031 243.503906 97.796875 243.503906 Z M 514.644531 336.941406 C 513.988281 338.347656 513.234375 339.664062 512.390625 340.976562 C 512.765625 343.136719 515.207031 358.726562 514.082031 367.273438 C 510.230469 396.570312 492.199219 398.261719 470.695312 398.261719 C 469.382812 398.261719 467.972656 398.261719 466.660156 398.261719 C 465.53125 398.261719 464.3125 398.261719 463.183594 398.261719 C 463.089844 401.359375 462.996094 403.144531 462.996094 403.238281 L 462.996094 403.894531 L 450.226562 403.894531 C 459.710938 425.121094 456.890625 446.15625 456.890625 446.4375 L 456.796875 447 L 280.066406 447 L 280.066406 446.25 C 280.441406 432.351562 285.703125 408.6875 286.828125 403.894531 L 280.066406 403.894531 L 280.066406 403.238281 C 279.972656 398.167969 280.160156 389.714844 280.535156 379.480469 C 280.066406 377.039062 269.550781 319.472656 285.230469 237.679688 C 292.652344 198.800781 309.179688 176.640625 315.941406 168.847656 C 318.003906 166.402344 320.636719 164.621094 323.453125 163.492188 C 331.808594 160.300781 343.640625 158.515625 346.082031 158.140625 L 346.082031 144.523438 C 330.214844 146.496094 322.792969 145.460938 318.945312 129.121094 C 317.253906 121.890625 316.222656 111.5625 315.75 96.632812 L 297.535156 96.632812 C 291.148438 96.632812 285.890625 91.371094 285.890625 84.984375 L 285.890625 67.144531 C 285.890625 60.757812 291.148438 55.5 297.535156 55.5 L 376.226562 55.5 C 383.175781 55.5 388.808594 61.132812 388.808594 68.082031 L 388.808594 73.152344 C 392.097656 73.34375 395.101562 74.84375 396.699219 77.191406 C 397.636719 78.601562 398.578125 80.949219 397.542969 84.140625 C 398.484375 85.175781 399.234375 86.394531 399.890625 87.992188 C 403.460938 97.101562 395.289062 104.707031 389.28125 110.246094 C 387.589844 111.75 386.179688 113.160156 385.148438 114.285156 L 385.148438 156.730469 C 385.898438 156.917969 387.214844 157.105469 388.246094 157.105469 L 389 157.105469 L 389 157.203125 C 390.78125 157.390625 395.949219 157.859375 402.707031 158.796875 C 402.707031 158.796875 402.707031 158.703125 402.800781 158.703125 C 404.117188 156.167969 406.746094 154.664062 409.65625 155.042969 C 415.105469 155.605469 425.527344 157.203125 433.792969 161.050781 C 435.574219 161.898438 436.703125 163.867188 436.515625 165.839844 C 436.421875 166.308594 436.421875 166.875 436.234375 167.25 C 462.714844 177.390625 482.433594 194.671875 493.421875 217.300781 C 501.96875 235.050781 511.074219 257.117188 516.992188 274.960938 L 517.179688 275.429688 L 516.804688 275.710938 C 514.738281 277.589844 512.578125 279.375 510.324219 281.160156 C 520.183594 303.695312 521.59375 322.480469 514.644531 336.941406 Z M 435.292969 168.28125 C 434.730469 168.375 430.035156 169.785156 426.277344 188.285156 C 419.519531 221.152344 435.199219 294.871094 440.929688 309.613281 C 446 308.484375 483.375 299.378906 508.539062 280.691406 C 508.539062 280.597656 508.445312 280.5 508.445312 280.5 L 509.480469 280.03125 C 511.546875 278.4375 513.613281 276.746094 515.488281 274.960938 C 509.574219 257.210938 500.652344 235.425781 492.105469 217.867188 C 481.214844 195.421875 461.585938 178.238281 435.292969 168.28125 Z M 424.214844 313.746094 L 439.519531 309.894531 C 433.605469 294.589844 418.109375 220.964844 424.871094 187.910156 C 428.53125 169.972656 433.226562 167.25 434.824219 166.875 C 434.917969 166.5 435.011719 166.027344 435.105469 165.558594 C 435.199219 164.152344 434.449219 162.835938 433.226562 162.179688 C 425.152344 158.328125 414.917969 156.824219 409.5625 156.261719 C 407.308594 155.980469 405.242188 157.203125 404.117188 159.171875 C 394.257812 178.519531 392.472656 246.601562 424.214844 313.746094 Z M 402.144531 160.019531 C 395.664062 159.171875 390.6875 158.703125 388.90625 158.515625 C 387.683594 171.195312 375.570312 187.441406 354.816406 188.660156 C 353.785156 192.699219 346.363281 224.15625 343.640625 323.136719 C 354.535156 318.347656 368.246094 325.953125 370.3125 327.269531 L 422.710938 314.027344 C 391.816406 248.199219 392.753906 181.335938 402.144531 160.019531 Z M 388.808594 74.46875 L 388.808594 80.480469 C 390.96875 80.480469 393.882812 80.949219 396.417969 82.921875 C 396.886719 81.042969 396.605469 79.351562 395.570312 77.847656 C 394.164062 75.972656 391.535156 74.65625 388.808594 74.46875 Z M 354.816406 56.90625 C 358.480469 58.878906 360.921875 62.730469 360.921875 67.144531 L 360.921875 84.796875 C 360.921875 89.210938 358.480469 93.0625 354.816406 95.035156 L 376.226562 95.035156 C 382.425781 95.035156 387.402344 90.058594 387.402344 83.859375 L 387.402344 68.082031 C 387.402344 61.886719 382.425781 56.90625 376.226562 56.90625 Z M 297.441406 95.035156 L 349.183594 95.035156 C 354.816406 95.035156 359.417969 90.433594 359.417969 84.796875 L 359.417969 67.144531 C 359.417969 61.507812 354.816406 56.90625 349.183594 56.90625 L 297.441406 56.90625 C 291.804688 56.90625 287.203125 61.507812 287.203125 67.144531 L 287.203125 84.796875 C 287.203125 90.433594 291.804688 95.035156 297.441406 95.035156 Z M 346.082031 143.019531 L 346.742188 142.925781 L 347.492188 142.832031 C 355.847656 141.988281 373.878906 136.917969 374.066406 136.824219 L 375.664062 136.355469 L 374.914062 137.761719 C 374.628906 138.230469 368.902344 148.9375 347.492188 153.070312 L 347.492188 162.648438 L 347.398438 162.835938 C 345.050781 166.5 342.328125 171.382812 339.132812 177.203125 C 340.355469 180.960938 343.453125 186.96875 350.214844 187.25 C 372.941406 188.378906 386.273438 171.382812 387.496094 158.328125 C 385.992188 158.234375 384.304688 157.859375 384.304688 157.859375 L 383.738281 157.765625 L 383.738281 113.722656 L 383.925781 113.535156 C 384.398438 112.972656 385.054688 112.3125 385.710938 111.65625 C 384.960938 111.5625 384.210938 111.28125 383.550781 110.71875 C 381.765625 109.402344 380.546875 106.773438 381.578125 104.707031 L 382.800781 105.363281 C 382.050781 106.679688 383.082031 108.558594 384.398438 109.589844 C 384.960938 110.058594 386.558594 110.90625 387.871094 109.683594 C 388.058594 109.496094 388.246094 109.402344 388.433594 109.214844 C 394.164062 103.957031 401.863281 96.726562 398.671875 88.554688 C 396.605469 83.203125 392.285156 82.074219 388.808594 82.074219 L 388.808594 83.953125 C 388.808594 90.902344 383.175781 96.535156 376.226562 96.535156 L 333.3125 96.535156 C 333.875 100.199219 336.972656 102.921875 340.730469 102.921875 L 342.140625 102.921875 L 342.140625 104.332031 L 340.730469 104.332031 C 336.128906 104.332031 332.371094 100.949219 331.902344 96.535156 L 317.253906 96.535156 C 317.722656 111.1875 318.757812 121.703125 320.445312 128.746094 C 323.921875 144.148438 330.308594 144.992188 346.082031 143.019531 Z M 280.820312 372.15625 C 285.890625 277.777344 329.179688 189.316406 345.988281 162.367188 L 345.894531 159.453125 C 342.890625 159.925781 331.808594 161.613281 323.921875 164.621094 C 321.292969 165.652344 318.851562 167.34375 316.972656 169.597656 C 310.304688 177.296875 293.964844 199.273438 286.640625 237.773438 C 273.871094 304.074219 278.472656 354.3125 280.820312 372.15625 Z M 281.476562 402.394531 L 341.386719 402.394531 C 341.386719 395.164062 341.386719 387.933594 341.480469 381.078125 C 335.847656 380.417969 331.527344 378.355469 330.777344 373.375 C 330.777344 373.1875 330.777344 373 330.683594 372.8125 C 330.683594 371.121094 329.835938 369.714844 328.523438 369.058594 C 324.765625 367.273438 322.511719 363.421875 323.171875 360.324219 C 323.640625 358.257812 323.265625 356.097656 322.136719 354.125 C 320.730469 351.496094 320.824219 348.304688 322.511719 346.238281 C 323.453125 345.015625 324.671875 343.136719 324.484375 340.976562 C 324.296875 337.785156 326.550781 334.59375 329.929688 333.183594 C 333.3125 331.871094 337.445312 331.773438 339.132812 331.773438 C 339.132812 330.085938 339.511719 326.140625 342.234375 324.074219 C 344.769531 227.351562 351.90625 194.484375 353.3125 188.847656 C 352.9375 188.847656 352.5625 188.847656 352.28125 188.847656 C 351.53125 188.847656 350.871094 188.847656 350.121094 188.753906 C 343.265625 188.378906 339.792969 183.027344 338.195312 178.988281 C 317.816406 217.394531 284.574219 296.652344 281.945312 379.292969 L 281.757812 385.398438 C 281.570312 392.441406 281.382812 398.355469 281.476562 402.394531 Z M 281.476562 445.496094 L 348.804688 445.496094 C 348.242188 441.742188 346.457031 425.214844 350.683594 403.800781 L 288.332031 403.800781 C 287.390625 407.652344 281.945312 431.222656 281.476562 445.496094 Z M 455.671875 434.699219 C 451.445312 436.105469 447.59375 436.765625 444.027344 436.765625 C 439.144531 436.765625 434.917969 435.449219 431.351562 432.914062 C 420.363281 425.027344 419.425781 407.558594 419.328125 403.800781 L 352 403.800781 C 347.679688 425.683594 349.652344 442.304688 350.121094 445.496094 L 455.390625 445.496094 C 455.578125 444.089844 455.953125 440.144531 455.671875 434.699219 Z M 448.535156 403.800781 L 420.738281 403.800781 C 420.832031 407.371094 421.867188 424.367188 432.101562 431.785156 C 437.921875 436.011719 445.8125 436.480469 455.484375 433.289062 C 455.109375 425.214844 453.417969 414.507812 448.535156 403.800781 Z M 461.585938 402.394531 C 461.777344 399.296875 462.339844 385.585938 462.996094 367.085938 C 424.871094 374.503906 382.332031 373.65625 380.546875 373.5625 C 376.882812 374.035156 373.316406 375.347656 369.558594 376.757812 C 364.582031 378.636719 358.949219 380.703125 352.09375 381.171875 C 350.214844 381.265625 348.429688 381.359375 346.648438 381.359375 C 345.332031 381.359375 344.109375 381.359375 342.890625 381.265625 C 342.890625 388.121094 342.796875 395.257812 342.796875 402.394531 Z M 511.265625 342.667969 C 504.128906 352.714844 492.199219 359.949219 475.671875 364.171875 C 472.011719 365.113281 468.253906 365.957031 464.40625 366.710938 C 464.027344 379.761719 463.558594 390.375 463.277344 396.757812 C 464.40625 396.757812 465.53125 396.757812 466.660156 396.757812 C 489.289062 396.851562 508.820312 396.945312 512.671875 366.992188 C 513.613281 359.855469 511.921875 347.269531 511.265625 342.667969 Z M 513.421875 336.28125 C 519.527344 323.699219 518.964844 307.640625 511.828125 288.484375 C 493.421875 297.03125 470.320312 303.414062 455.859375 306.890625 C 447.03125 309.613281 441.023438 310.929688 440.648438 311.023438 L 370.125 328.863281 L 369.839844 328.675781 C 369.652344 328.582031 354.722656 319.378906 343.734375 324.730469 C 340.261719 326.421875 340.542969 332.339844 340.542969 332.339844 L 340.636719 333.089844 L 339.792969 333.089844 C 339.699219 333.089844 334.4375 332.808594 330.402344 334.40625 C 327.019531 335.71875 325.707031 338.628906 325.800781 340.789062 C 325.988281 342.949219 325.140625 345.109375 323.546875 347.082031 C 322.230469 348.679688 322.136719 351.214844 323.265625 353.375 C 324.578125 355.722656 324.953125 358.257812 324.484375 360.605469 C 323.921875 363.140625 325.894531 366.238281 329.085938 367.835938 C 330.871094 368.679688 331.996094 370.558594 332.089844 372.8125 C 332.089844 372.90625 332.089844 373.09375 332.089844 373.1875 C 332.9375 378.636719 338.664062 380.605469 351.90625 379.855469 C 358.574219 379.480469 363.832031 377.507812 368.996094 375.535156 C 372.847656 374.035156 376.601562 372.71875 380.359375 372.25 L 380.546875 372.25 C 381.109375 372.25 434.261719 373.46875 475.390625 362.953125 C 494.453125 357.976562 507.226562 349.054688 513.421875 336.28125 Z M 435.574219 304.917969 L 436.890625 304.542969 C 436.703125 304.074219 421.582031 255.054688 420.738281 215.707031 C 420.175781 190.257812 424.308594 172.882812 432.945312 164.246094 L 433.226562 163.960938 L 432.195312 163.023438 L 431.914062 163.304688 C 422.992188 172.226562 418.765625 189.976562 419.328125 215.800781 C 420.269531 255.242188 435.386719 304.355469 435.574219 304.917969 Z M 342.609375 162.929688 L 341.480469 162.085938 C 341.105469 162.648438 299.035156 224.15625 281.195312 340.695312 L 282.601562 340.882812 C 300.445312 224.722656 342.234375 163.492188 342.609375 162.929688 Z M 360.542969 201.335938 C 358.195312 201.335938 356.226562 203.214844 356.226562 205.65625 C 356.226562 208.097656 358.101562 209.976562 360.542969 209.976562 C 362.890625 209.976562 364.863281 208.097656 364.863281 205.65625 C 364.863281 203.214844 362.890625 201.335938 360.542969 201.335938 Z M 357.164062 251.765625 C 354.816406 251.765625 352.84375 253.644531 352.84375 256.085938 C 352.84375 258.433594 354.722656 260.40625 357.164062 260.40625 C 359.511719 260.40625 361.484375 258.527344 361.484375 256.085938 C 361.484375 253.738281 359.511719 251.765625 357.164062 251.765625 Z M 250.675781 309.707031 L 251.238281 310.175781 C 243.257812 318.816406 230.484375 330.367188 215.367188 336.1875 C 209.167969 338.535156 203.253906 339.664062 197.523438 339.664062 C 189.449219 339.664062 181.9375 337.316406 174.894531 332.714844 C 149.351562 315.8125 90.378906 268.480469 89.8125 268.011719 C 86.808594 266.132812 82.957031 264.539062 78.828125 262.847656 C 73.191406 260.5 66.808594 257.777344 61.078125 253.832031 C 52.535156 247.914062 45.207031 241.4375 49.152344 234.488281 C 49.902344 233.171875 50.9375 232.609375 51.96875 232.515625 C 48.871094 229.226562 48.308594 224.625 49.714844 221.621094 C 50.75 219.367188 52.722656 218.242188 55.070312 218.335938 C 53.566406 215.800781 54.222656 212.511719 56.007812 210.351562 C 57.511719 208.476562 60.234375 207.066406 63.332031 208.570312 C 63.238281 207.066406 63.800781 205.5625 64.929688 204.34375 C 66.902344 202.277344 70.28125 201.433594 73.378906 202.371094 C 76.855469 203.402344 80.140625 205.9375 81.457031 206.972656 C 82.582031 205.5625 85.777344 202.089844 89.625 202.933594 C 101.550781 205.5625 107.75 220.496094 108.6875 222.84375 L 196.773438 264.539062 L 212.644531 249.699219 L 213.113281 250.167969 L 213.582031 250.640625 L 213.207031 251.015625 C 214.050781 256.835938 220.25 290.832031 250.015625 309.238281 C 250.015625 309.238281 250.113281 309.144531 250.113281 309.144531 Z M 64.929688 209.695312 C 66.621094 212.417969 72.066406 216.738281 74.039062 218.242188 C 75.820312 214.578125 78.453125 210.824219 80.609375 208.097656 C 79.390625 207.160156 76.199219 204.71875 73.003906 203.78125 C 70.375 203.027344 67.652344 203.589844 65.960938 205.375 C 64.835938 206.503906 64.460938 208.097656 64.929688 209.695312 Z M 57.230469 218.898438 L 59.578125 220.964844 L 59.292969 220.871094 C 63.144531 224.53125 69.625 229.980469 73.566406 229.039062 C 73.285156 228.757812 73.097656 228.476562 72.816406 228.101562 C 71.410156 226.035156 71.972656 222.84375 73.378906 219.460938 C 71.691406 218.148438 65.679688 213.546875 63.707031 210.445312 C 60.796875 208.378906 58.355469 209.507812 56.945312 211.199219 C 55.351562 213.359375 54.882812 216.832031 57.230469 218.898438 Z M 54.691406 232.984375 L 54.503906 233.359375 L 54.691406 232.984375 C 60.421875 237.960938 66.242188 240.683594 68.496094 239.464844 C 69.90625 238.714844 71.125 236.929688 71.597656 234.957031 C 72.066406 233.265625 71.878906 231.671875 71.125 230.449219 C 66.523438 229.417969 60.796875 224.34375 56.476562 220.121094 C 53.941406 219.460938 51.96875 220.214844 51.03125 222.277344 C 49.527344 225.285156 50.5625 230.261719 54.691406 232.984375 Z M 56.757812 248.855469 C 57.792969 249.605469 59.578125 250.359375 61.171875 250.074219 C 62.113281 249.980469 62.863281 249.511719 63.425781 248.855469 C 64.742188 247.070312 65.679688 242.5625 64.273438 240.589844 C 60.984375 239.464844 57.039062 236.835938 54.035156 234.207031 C 53.566406 234.019531 51.59375 233.265625 50.46875 235.238281 C 48.121094 239.183594 49.996094 243.316406 56.757812 248.855469 Z M 244.664062 314.871094 C 240.722656 311.304688 215.179688 286.980469 213.207031 251.203125 L 197.710938 265.664062 L 201 272.894531 L 199.683594 273.457031 L 196.304688 265.945312 L 107.5625 223.96875 L 107.46875 223.6875 C 107.375 223.5 101.269531 206.972656 89.34375 204.4375 C 85.496094 203.589844 82.207031 208.476562 82.113281 208.476562 L 81.644531 209.132812 L 81.550781 209.132812 C 76.949219 214.765625 71.503906 223.875 73.945312 227.539062 C 74.882812 228.945312 76.199219 229.699219 77.886719 229.699219 C 81.457031 229.699219 85.683594 226.503906 89.4375 220.871094 L 90.566406 221.621094 C 87.75 225.847656 84.554688 228.851562 81.550781 230.167969 C 81.832031 232.140625 83.429688 239.089844 92.539062 241.8125 L 92.160156 243.125 C 82.769531 240.402344 80.707031 233.171875 80.234375 230.636719 C 79.484375 230.824219 78.640625 231.011719 77.886719 231.011719 C 76.761719 231.011719 75.632812 230.730469 74.695312 230.167969 C 74.039062 230.449219 73.378906 230.636719 72.628906 230.636719 C 73.191406 232.046875 73.191406 233.640625 72.816406 235.332031 C 72.253906 237.679688 70.75 239.839844 68.96875 240.777344 C 68.402344 241.0625 67.746094 241.25 66.996094 241.25 C 66.621094 241.25 66.242188 241.25 65.773438 241.15625 C 66.714844 243.878906 65.679688 247.914062 64.273438 249.792969 C 63.519531 250.828125 62.394531 251.484375 61.078125 251.578125 C 60.796875 251.578125 60.609375 251.671875 60.328125 251.671875 C 60.234375 251.671875 60.140625 251.671875 60.046875 251.671875 C 60.515625 252.046875 61.078125 252.421875 61.546875 252.800781 C 67.183594 256.742188 73.472656 259.371094 79.015625 261.71875 C 83.148438 263.410156 87.089844 265.101562 90.191406 267.074219 C 90.847656 267.636719 149.726562 314.871094 175.269531 331.777344 C 186.914062 339.476562 200.058594 340.601562 214.519531 335.0625 C 226.636719 330.367188 236.964844 322.289062 244.664062 314.871094 Z M 353.878906 302.195312 C 351.53125 302.195312 349.558594 304.074219 349.558594 306.515625 C 349.558594 308.863281 351.4375 310.835938 353.878906 310.835938 C 356.226562 310.835938 358.195312 308.957031 358.195312 306.515625 C 358.101562 304.167969 356.226562 302.195312 353.878906 302.195312 Z M 351.53125 387.554688 C 349.183594 387.554688 347.210938 389.433594 347.210938 391.875 C 347.210938 394.316406 349.089844 396.195312 351.53125 396.195312 C 353.972656 396.195312 355.847656 394.316406 355.847656 391.875 C 355.847656 389.433594 353.878906 387.554688 351.53125 387.554688 Z M 266.355469 259.558594 C 267.109375 267.074219 269.175781 274.304688 272.554688 281.066406 L 273.777344 280.40625 C 270.488281 273.835938 268.515625 266.699219 267.765625 259.371094 Z M 266.355469 259.558594 " fill-opacity="1" fill-rule="nonzero"/></svg>