<svg xmlns="http://www.w3.org/2000/svg" xmlns:xlink="http://www.w3.org/1999/xlink" width="800" zoomAndPan="magnify" viewBox="0 0 600 449.999984" height="600" preserveAspectRatio="xMidYMid meet" version="1.0"><defs><clipPath id="id1"><path d="M 202 384 L 458.285156 384 L 458.285156 449.898438 L 202 449.898438 Z M 202 384 " clip-rule="nonzero"/></clipPath><clipPath id="id2"><path d="M 463.414062 33.070312 L 563.226562 33.070312 L 563.226562 249 L 463.414062 249 Z M 463.414062 33.070312 " clip-rule="nonzero"/></clipPath><clipPath id="id3"><path d="M 233 410.140625 L 252 410.140625 L 252 449.898438 L 233 449.898438 Z M 233 410.140625 " clip-rule="nonzero"/></clipPath></defs><path fill="#211a15" d="M 328.84375 55.882812 C 328.84375 55.882812 328.910156 55.898438 329.035156 55.933594 C 329.988281 56.210938 334.347656 57.542969 338.429688 59.917969 C 340.46875 61.105469 342.433594 62.554688 343.875 64.234375 C 345.316406 65.917969 346.222656 67.8125 346.222656 69.945312 C 346.222656 72.261719 345.152344 74.941406 342.324219 78.011719 L 343.078125 78.703125 C 346.015625 75.519531 347.246094 72.59375 347.246094 69.945312 C 347.246094 67.34375 346.058594 65.089844 344.339844 63.210938 C 341.753906 60.386719 337.957031 58.328125 334.800781 56.949219 C 331.648438 55.578125 329.125 54.894531 329.113281 54.890625 L 328.84375 55.882812 " fill-opacity="1" fill-rule="nonzero"/><path fill="#211a15" d="M 244.78125 60.253906 C 244.738281 60.257812 239.695312 60.601562 234.605469 63.621094 C 232.0625 65.132812 229.503906 67.328125 227.589844 70.484375 C 225.671875 73.644531 224.40625 77.765625 224.40625 83.089844 C 224.40625 88.148438 225.542969 94.296875 228.335938 101.78125 L 229.296875 101.421875 C 226.535156 94.023438 225.429688 87.992188 225.429688 83.089844 C 225.433594 77.925781 226.652344 74.007812 228.46875 71.019531 C 231.1875 66.53125 235.273438 64.09375 238.707031 62.777344 C 240.417969 62.121094 241.964844 61.746094 243.078125 61.53125 C 243.628906 61.429688 244.078125 61.363281 244.386719 61.328125 C 244.539062 61.308594 244.660156 61.296875 244.738281 61.289062 L 244.851562 61.28125 L 244.78125 60.253906 " fill-opacity="1" fill-rule="nonzero"/><path fill="#b05725" d="M 174.53125 286.917969 C 166.257812 257.910156 152.015625 198.289062 142.15625 169.167969 C 139.148438 160.277344 133.851562 148.046875 121.46875 137.839844 C 115.609375 133.007812 99.066406 119.195312 93.175781 126.773438 C 93.175781 126.773438 67.550781 109.984375 59.140625 118.035156 C 56.039062 121.007812 56.726562 128.589844 60.710938 135.316406 C 60.710938 135.316406 50.082031 145.367188 55.128906 158.539062 C 55.128906 158.539062 48.691406 168.558594 53.484375 178.960938 C 53.484375 178.960938 45.789062 189.839844 58.214844 200.203125 C 60.640625 202.226562 68.105469 204.121094 73.703125 201.246094 C 73.703125 201.246094 104.171875 318.160156 131.535156 343.65625 C 148.730469 359.679688 196.949219 365.507812 174.53125 286.917969 " fill-opacity="1" fill-rule="nonzero"/><path fill="#211a15" d="M 74.042969 201.628906 C 74.066406 201.609375 74.804688 200.960938 75.554688 199.839844 C 76.300781 198.714844 77.0625 197.109375 77.0625 195.183594 C 77.070312 192.75 75.808594 189.890625 72.015625 187.078125 C 71.789062 186.90625 71.46875 186.957031 71.300781 187.183594 C 71.132812 187.40625 71.175781 187.726562 71.40625 187.898438 C 75.023438 190.601562 76.03125 193.117188 76.035156 195.183594 C 76.039062 196.828125 75.378906 198.253906 74.703125 199.273438 C 74.363281 199.777344 74.023438 200.179688 73.773438 200.453125 C 73.648438 200.589844 73.539062 200.691406 73.472656 200.761719 L 73.390625 200.839844 L 73.367188 200.859375 C 73.15625 201.042969 73.132812 201.367188 73.320312 201.585938 C 73.503906 201.792969 73.828125 201.816406 74.042969 201.628906 " fill-opacity="1" fill-rule="nonzero"/><path fill="#211a15" d="M 53.035156 179.210938 C 53.0625 179.257812 54.15625 181.210938 57.035156 183.277344 C 59.910156 185.34375 64.570312 187.511719 71.675781 188 C 72.414062 188.050781 73.515625 188.132812 74.769531 188.132812 C 76.898438 188.128906 79.480469 187.90625 81.605469 186.832031 C 82.664062 186.292969 83.609375 185.53125 84.289062 184.472656 C 84.960938 183.421875 85.355469 182.085938 85.355469 180.449219 L 85.355469 180.394531 C 85.332031 177.34375 82.96875 173.726562 77.71875 171.546875 C 77.453125 171.4375 77.15625 171.5625 77.046875 171.820312 C 76.9375 172.082031 77.0625 172.382812 77.320312 172.492188 C 82.316406 174.570312 84.320312 177.894531 84.328125 180.398438 L 84.839844 180.398438 L 84.328125 180.386719 L 84.328125 180.449219 C 84.328125 181.929688 83.984375 183.050781 83.421875 183.921875 C 82.585938 185.234375 81.222656 186.03125 79.644531 186.503906 C 78.074219 186.976562 76.308594 187.109375 74.769531 187.109375 C 73.554688 187.109375 72.484375 187.027344 71.746094 186.976562 C 64.8125 186.5 60.359375 184.402344 57.636719 182.445312 C 56.269531 181.46875 55.339844 180.523438 54.75 179.828125 C 54.457031 179.480469 54.25 179.195312 54.117188 179.003906 C 54.054688 178.902344 54.003906 178.828125 53.972656 178.777344 L 53.941406 178.726562 L 53.933594 178.714844 C 53.796875 178.464844 53.484375 178.378906 53.234375 178.515625 C 52.992188 178.652344 52.898438 178.960938 53.035156 179.210938 " fill-opacity="1" fill-rule="nonzero"/><path fill="#211a15" d="M 54.628906 158.652344 C 54.640625 158.710938 55.269531 161.390625 57.914062 164.414062 C 60.554688 167.433594 65.21875 170.769531 73.199219 172.121094 C 74.128906 172.277344 75.320312 172.367188 76.660156 172.367188 C 79.792969 172.367188 83.75 171.882812 86.992188 170.519531 C 88.609375 169.835938 90.054688 168.9375 91.109375 167.734375 C 92.167969 166.535156 92.816406 165.023438 92.816406 163.230469 C 92.816406 162.984375 92.804688 162.738281 92.78125 162.484375 C 92.683594 161.46875 92.300781 160.539062 91.667969 159.714844 C 90.714844 158.480469 89.230469 157.46875 87.277344 156.550781 C 85.320312 155.636719 82.886719 154.820312 80 154.011719 C 79.320312 153.820312 77.933594 153.386719 76.730469 153.007812 C 75.519531 152.625 74.488281 152.289062 74.484375 152.289062 L 74.328125 152.777344 L 74.832031 152.691406 L 74.277344 149.464844 C 74.230469 149.1875 73.964844 149 73.683594 149.046875 C 73.40625 149.097656 73.21875 149.359375 73.265625 149.640625 L 73.824219 152.867188 C 73.855469 153.054688 73.988281 153.207031 74.167969 153.265625 C 74.171875 153.265625 78.304688 154.597656 79.726562 154.996094 C 83.53125 156.058594 86.511719 157.144531 88.539062 158.382812 C 89.550781 159 90.324219 159.648438 90.855469 160.339844 C 91.382812 161.03125 91.679688 161.761719 91.761719 162.582031 C 91.78125 162.800781 91.792969 163.015625 91.792969 163.230469 C 91.789062 164.777344 91.25 166.011719 90.335938 167.058594 C 88.972656 168.625 86.695312 169.71875 84.183594 170.394531 C 81.671875 171.074219 78.929688 171.347656 76.660156 171.34375 C 75.367188 171.347656 74.222656 171.253906 73.371094 171.109375 C 65.597656 169.789062 61.183594 166.585938 58.6875 163.738281 C 57.4375 162.3125 56.667969 160.972656 56.21875 159.992188 C 55.988281 159.503906 55.839844 159.101562 55.75 158.828125 C 55.703125 158.695312 55.671875 158.589844 55.652344 158.519531 L 55.628906 158.425781 C 55.5625 158.148438 55.289062 157.976562 55.015625 158.042969 C 54.738281 158.105469 54.566406 158.382812 54.628906 158.652344 " fill-opacity="1" fill-rule="nonzero"/><path fill="#211a15" d="M 74.507812 152.296875 L 67.515625 149.65625 C 67.25 149.554688 66.953125 149.6875 66.851562 149.957031 C 66.753906 150.21875 66.886719 150.511719 67.148438 150.617188 L 74.148438 153.257812 C 74.414062 153.359375 74.707031 153.222656 74.808594 152.957031 C 74.90625 152.695312 74.773438 152.398438 74.507812 152.296875 " fill-opacity="1" fill-rule="nonzero"/><path fill="#211a15" d="M 60.273438 135.574219 C 60.28125 135.589844 62.480469 139.265625 65.683594 142.988281 C 67.289062 144.847656 69.144531 146.722656 71.125 148.15625 C 73.105469 149.589844 75.21875 150.597656 77.355469 150.65625 L 77.523438 150.65625 C 79.027344 150.667969 80.316406 150.097656 81.148438 148.9375 C 81.980469 147.785156 82.375 146.140625 82.375 143.980469 C 82.371094 140.585938 81.390625 135.875 79.289062 129.664062 C 79.195312 129.394531 78.902344 129.25 78.636719 129.34375 C 78.367188 129.429688 78.222656 129.722656 78.316406 129.992188 C 80.402344 136.140625 81.351562 140.777344 81.347656 143.980469 C 81.351562 146.019531 80.964844 147.453125 80.316406 148.335938 C 79.671875 149.210938 78.792969 149.621094 77.523438 149.632812 L 77.382812 149.632812 C 75.5625 149.589844 73.613281 148.695312 71.730469 147.328125 C 68.902344 145.28125 66.242188 142.203125 64.304688 139.644531 C 63.335938 138.363281 62.546875 137.210938 62 136.382812 C 61.730469 135.96875 61.515625 135.636719 61.371094 135.402344 C 61.230469 135.175781 61.152344 135.050781 61.152344 135.050781 C 61.007812 134.808594 60.695312 134.730469 60.453125 134.875 C 60.207031 135.019531 60.125 135.335938 60.273438 135.574219 " fill-opacity="1" fill-rule="nonzero"/><path fill="#211a15" d="M 78.789062 115.855469 C 72.777344 118.375 64.359375 128.351562 71.214844 140.792969 C 72.851562 143.753906 74.601562 146.253906 80.265625 150.847656 C 80.265625 150.847656 82.058594 186.425781 83.503906 189.351562 C 85.359375 193.109375 91.292969 199.089844 97.578125 198.429688 C 103.726562 197.785156 111.761719 188.015625 111.1875 177.796875 C 110.660156 168.574219 109.132812 150.164062 108.488281 140.949219 C 108.089844 135.230469 107.738281 129.691406 98.355469 120.375 C 94.796875 116.835938 87.300781 112.289062 78.789062 115.855469 " fill-opacity="1" fill-rule="nonzero"/><path fill="#00ecff" d="M 73.71875 118.75 C 72.722656 120.324219 72.019531 122.875 72.015625 125.945312 C 72.015625 129.621094 73.046875 134.03125 75.917969 138.296875 C 81.117188 146.019531 85.835938 149.308594 85.875 149.335938 L 86.167969 148.914062 L 85.660156 148.972656 L 91.035156 197.257812 L 92.054688 197.144531 L 86.652344 148.628906 L 86.460938 148.496094 L 86.414062 148.464844 C 85.921875 148.105469 81.5625 144.84375 76.769531 137.726562 C 74.015625 133.640625 73.042969 129.425781 73.042969 125.945312 C 73.039062 123.039062 73.730469 120.632812 74.585938 119.296875 L 73.71875 118.75 " fill-opacity="1" fill-rule="nonzero"/><path fill="#00ecff" d="M 84.625 120.394531 C 80.160156 122.070312 75.925781 128.371094 84.519531 139.453125 C 87.035156 142.695312 94.878906 146.378906 100.695312 142.265625 C 103.316406 140.414062 104.632812 133.609375 97.382812 125.09375 C 95.179688 122.503906 90.230469 118.292969 84.625 120.394531 " fill-opacity="1" fill-rule="nonzero"/><path fill="#b05725" d="M 109.753906 154.28125 L 99.109375 143.976562 C 92.222656 137.566406 90.328125 130.550781 93.175781 126.773438 C 98.949219 119.105469 115.609375 133.007812 121.46875 137.839844 C 133.851562 148.046875 139.148438 160.277344 142.15625 169.167969 C 142.96875 171.5625 143.851562 174.164062 144.785156 176.914062 L 111.425781 185.984375 C 98.210938 170.796875 109.753906 154.28125 109.753906 154.28125 " fill-opacity="1" fill-rule="nonzero"/><path fill="#211a15" d="M 109.027344 184.839844 C 111.425781 187.632812 115.566406 190.121094 119.945312 192.429688 L 120.421875 191.523438 C 116.082031 189.242188 112.015625 186.757812 109.804688 184.175781 L 109.027344 184.839844 " fill-opacity="1" fill-rule="nonzero"/><path fill="#211a15" d="M 67.886719 203.160156 C 67.910156 203.148438 68.695312 202.761719 69.5 202.035156 C 69.90625 201.667969 70.316406 201.222656 70.636719 200.675781 C 70.953125 200.140625 71.171875 199.496094 71.171875 198.785156 C 71.171875 198.109375 70.972656 197.386719 70.519531 196.652344 C 70.066406 195.917969 69.363281 195.160156 68.347656 194.382812 C 67.226562 193.523438 65.746094 193.074219 64.238281 193.074219 C 62.648438 193.074219 61.003906 193.574219 59.703125 194.683594 C 58.402344 195.792969 57.476562 197.515625 57.3125 199.828125 L 58.332031 199.902344 C 58.488281 197.816406 59.285156 196.398438 60.371094 195.464844 C 61.457031 194.535156 62.859375 194.101562 64.238281 194.101562 C 65.542969 194.097656 66.8125 194.496094 67.722656 195.195312 C 68.667969 195.917969 69.277344 196.589844 69.644531 197.191406 C 70.015625 197.789062 70.144531 198.3125 70.144531 198.785156 C 70.144531 199.285156 69.996094 199.738281 69.75 200.160156 C 69.382812 200.792969 68.796875 201.328125 68.304688 201.691406 C 68.054688 201.875 67.835938 202.015625 67.675781 202.109375 L 67.492188 202.214844 L 67.441406 202.242188 L 67.429688 202.246094 L 67.886719 203.160156 " fill-opacity="1" fill-rule="nonzero"/><path fill="#211a15" d="M 77.84375 187.765625 C 77.859375 187.746094 78.382812 187.207031 78.910156 186.347656 C 79.441406 185.484375 79.984375 184.289062 79.988281 182.9375 C 79.988281 182.152344 79.796875 181.324219 79.316406 180.519531 C 78.832031 179.714844 78.070312 178.949219 76.953125 178.257812 C 75.878906 177.589844 74.3125 177.148438 72.601562 177.144531 C 70.761719 177.144531 68.746094 177.675781 67.09375 179.085938 C 65.4375 180.5 64.195312 182.78125 63.847656 186.15625 L 64.867188 186.261719 C 65.203125 183.082031 66.335938 181.089844 67.761719 179.863281 C 69.1875 178.640625 70.953125 178.171875 72.601562 178.171875 C 74.128906 178.167969 75.546875 178.585938 76.414062 179.125 C 77.417969 179.753906 78.050781 180.40625 78.433594 181.046875 C 78.820312 181.6875 78.964844 182.316406 78.964844 182.9375 C 78.96875 184 78.511719 185.042969 78.039062 185.8125 C 77.800781 186.191406 77.566406 186.507812 77.390625 186.722656 C 77.300781 186.832031 77.230469 186.914062 77.179688 186.96875 L 77.125 187.03125 L 77.109375 187.046875 L 77.84375 187.765625 " fill-opacity="1" fill-rule="nonzero"/><path fill="#211a15" d="M 81.042969 162.117188 C 81.019531 162.113281 80.363281 161.960938 79.390625 161.960938 C 78.066406 161.960938 76.140625 162.230469 74.421875 163.558594 C 72.703125 164.878906 71.265625 167.234375 70.890625 171.199219 L 71.910156 171.292969 C 72.277344 167.527344 73.582031 165.5 75.046875 164.367188 C 76.511719 163.238281 78.203125 162.984375 79.390625 162.984375 C 79.820312 162.984375 80.1875 163.019531 80.4375 163.050781 C 80.5625 163.070312 80.664062 163.085938 80.726562 163.097656 L 80.800781 163.113281 L 80.816406 163.117188 L 81.042969 162.117188 " fill-opacity="1" fill-rule="nonzero"/><path fill="#211a15" d="M 64.300781 140.371094 L 64.332031 140.339844 C 64.503906 140.171875 65.355469 139.367188 66.503906 138.621094 C 67.65625 137.867188 69.105469 137.191406 70.414062 137.199219 C 71.199219 137.203125 71.929688 137.417969 72.617188 137.992188 C 73.375 138.628906 74.527344 139.949219 75.464844 141.484375 C 76.40625 143.011719 77.125 144.761719 77.117188 146.210938 C 77.117188 146.867188 76.976562 147.457031 76.667969 147.980469 C 76.355469 148.496094 75.867188 148.957031 75.105469 149.332031 L 75.558594 150.253906 C 76.46875 149.808594 77.128906 149.207031 77.550781 148.503906 C 77.96875 147.804688 78.148438 147.011719 78.144531 146.210938 C 78.140625 144.4375 77.328125 142.570312 76.339844 140.945312 C 75.34375 139.320312 74.15625 137.953125 73.277344 137.210938 C 72.40625 136.472656 71.394531 136.171875 70.414062 136.175781 C 68.65625 136.183594 66.96875 137.066406 65.703125 137.921875 C 64.4375 138.78125 63.589844 139.628906 63.570312 139.644531 L 64.300781 140.371094 " fill-opacity="1" fill-rule="nonzero"/><path fill="#211a15" d="M 102.804688 125.628906 C 102.796875 125.652344 102.355469 127.367188 102.355469 129.582031 C 102.355469 131.15625 102.578125 132.988281 103.367188 134.660156 C 104.152344 136.328125 105.542969 137.828125 107.777344 138.625 C 108.273438 138.800781 108.761719 138.886719 109.230469 138.886719 C 110.269531 138.886719 111.199219 138.488281 111.988281 137.929688 C 114.347656 136.246094 115.664062 133.105469 115.6875 133.070312 L 114.746094 132.664062 L 114.722656 132.722656 C 114.597656 132.996094 113.96875 134.328125 112.980469 135.554688 C 112.488281 136.171875 111.90625 136.757812 111.269531 137.179688 C 110.632812 137.605469 109.953125 137.859375 109.230469 137.859375 C 108.878906 137.859375 108.515625 137.800781 108.121094 137.660156 C 106.144531 136.949219 104.996094 135.691406 104.292969 134.222656 C 103.59375 132.753906 103.378906 131.058594 103.382812 129.582031 C 103.382812 128.546875 103.484375 127.609375 103.589844 126.945312 C 103.640625 126.609375 103.695312 126.339844 103.734375 126.15625 L 103.78125 125.949219 L 103.796875 125.886719 L 102.804688 125.628906 " fill-opacity="1" fill-rule="nonzero"/><g clip-path="url(#id1)"><path fill="#b05725" d="M 202.535156 449.460938 L 458.238281 449.460938 L 440.027344 384.257812 L 202.535156 384.257812 L 202.535156 449.460938 " fill-opacity="1" fill-rule="nonzero"/></g><path fill="#ff6978" d="M 365.84375 166.199219 C 401.851562 174.304688 481.203125 192.691406 507.738281 205.683594 C 523.765625 213.523438 532.644531 271.890625 463.875 261.925781 C 439.34375 258.367188 357.589844 239.292969 327.714844 223.492188 C 289.679688 203.375 297.917969 150.910156 365.84375 166.199219 " fill-opacity="1" fill-rule="nonzero"/><g clip-path="url(#id2)"><path fill="#b05725" d="M 466.027344 187.105469 C 470.816406 161.816406 478.3125 110.054688 484.441406 84.546875 C 486.3125 76.761719 489.867188 65.957031 499.601562 56.328125 C 504.210938 51.773438 517.199219 38.757812 522.792969 44.746094 C 522.792969 44.746094 543.273438 28.496094 551.039062 34.691406 C 553.90625 36.980469 553.90625 43.476562 551.039062 49.496094 C 551.039062 49.496094 560.847656 57.21875 557.582031 68.800781 C 557.582031 68.800781 563.820312 76.820312 560.550781 86.03125 C 560.550781 86.03125 567.933594 94.679688 558.171875 104.449219 C 556.269531 106.347656 550.070312 108.542969 545.09375 106.523438 C 545.09375 106.523438 532.128906 216.496094 510.847656 240.265625 C 497.472656 255.210938 453.050781 255.621094 466.027344 187.105469 " fill-opacity="1" fill-rule="nonzero"/></g><path fill="#211a15" d="M 545.394531 106.113281 L 545.371094 106.097656 C 545.238281 105.992188 544.550781 105.449219 543.914062 104.566406 C 543.277344 103.691406 542.691406 102.5 542.691406 101.078125 C 542.695312 99.433594 543.460938 97.402344 546.066406 95.066406 C 546.277344 94.875 546.292969 94.550781 546.105469 94.339844 C 545.917969 94.128906 545.59375 94.113281 545.382812 94.300781 C 542.632812 96.757812 541.667969 99.09375 541.671875 101.078125 C 541.671875 102.898438 542.460938 104.363281 543.230469 105.363281 C 544.003906 106.367188 544.765625 106.921875 544.792969 106.941406 C 545.019531 107.109375 545.339844 107.058594 545.503906 106.828125 C 545.671875 106.601562 545.621094 106.277344 545.394531 106.113281 " fill-opacity="1" fill-rule="nonzero"/><path fill="#211a15" d="M 560.082031 85.824219 L 560.078125 85.832031 C 559.929688 86.128906 556.945312 92.351562 545.640625 94.175781 C 544.675781 94.328125 543.054688 94.605469 541.339844 94.605469 C 539.75 94.605469 538.097656 94.367188 536.851562 93.632812 C 535.613281 92.894531 534.722656 91.734375 534.527344 89.625 C 534.515625 89.507812 534.511719 89.386719 534.511719 89.265625 C 534.507812 87.203125 535.996094 84.457031 539.832031 82.4375 C 540.082031 82.304688 540.175781 81.992188 540.046875 81.746094 C 539.914062 81.496094 539.601562 81.398438 539.351562 81.53125 C 535.28125 83.675781 533.492188 86.710938 533.488281 89.265625 C 533.488281 89.417969 533.496094 89.566406 533.507812 89.714844 C 533.699219 92.09375 534.832031 93.652344 536.335938 94.515625 C 537.835938 95.390625 539.652344 95.625 541.339844 95.628906 C 543.15625 95.628906 544.839844 95.34375 545.804688 95.1875 C 551.820312 94.226562 555.625 92.015625 557.921875 90.03125 C 560.214844 88.046875 560.996094 86.292969 561.019531 86.234375 C 561.132812 85.980469 561.015625 85.675781 560.757812 85.5625 C 560.5 85.449219 560.195312 85.566406 560.082031 85.824219 " fill-opacity="1" fill-rule="nonzero"/><path fill="#211a15" d="M 557.070312 68.734375 L 557.066406 68.75 C 557.035156 68.957031 556.644531 71.152344 554.710938 73.695312 C 552.78125 76.242188 549.3125 79.15625 543.03125 80.820312 C 541.84375 81.136719 539.945312 81.378906 537.882812 81.378906 C 535.320312 81.378906 532.488281 81.003906 530.363281 80.015625 C 529.296875 79.523438 528.414062 78.882812 527.804688 78.078125 C 527.191406 77.273438 526.839844 76.308594 526.835938 75.082031 L 526.835938 75.078125 L 526.59375 75.074219 L 526.835938 75.089844 L 526.835938 75.078125 L 526.59375 75.074219 L 526.835938 75.089844 L 526.835938 75.0625 C 526.839844 74.371094 527.03125 73.75 527.421875 73.128906 C 528.007812 72.199219 529.066406 71.296875 530.585938 70.414062 C 532.105469 69.527344 534.066406 68.65625 536.429688 67.761719 C 537.609375 67.3125 541.015625 65.859375 541.019531 65.859375 C 541.195312 65.78125 541.316406 65.617188 541.332031 65.425781 L 541.550781 62.644531 C 541.574219 62.359375 541.363281 62.117188 541.082031 62.09375 C 540.796875 62.070312 540.554688 62.28125 540.53125 62.5625 L 540.304688 65.347656 L 540.816406 65.386719 L 540.617188 64.914062 C 540.613281 64.917969 539.765625 65.277344 538.765625 65.699219 C 537.773438 66.117188 536.628906 66.585938 536.066406 66.804688 C 532.878906 68.015625 530.371094 69.179688 528.609375 70.480469 C 527.730469 71.128906 527.035156 71.820312 526.554688 72.578125 C 526.074219 73.339844 525.816406 74.171875 525.8125 75.058594 L 526.324219 75.0625 L 525.816406 75.03125 L 525.8125 75.082031 C 525.8125 76.515625 526.246094 77.730469 526.988281 78.699219 C 528.101562 80.160156 529.847656 81.070312 531.792969 81.628906 C 533.734375 82.191406 535.886719 82.402344 537.882812 82.402344 C 540.027344 82.398438 541.980469 82.15625 543.289062 81.808594 C 549.980469 80.042969 553.703125 76.839844 555.726562 74.050781 C 557.75 71.269531 558.078125 68.929688 558.085938 68.875 C 558.125 68.59375 557.929688 68.332031 557.648438 68.296875 C 557.367188 68.257812 557.105469 68.453125 557.070312 68.734375 " fill-opacity="1" fill-rule="nonzero"/><path fill="#211a15" d="M 541.042969 65.847656 L 546.785156 63.066406 C 547.035156 62.941406 547.144531 62.632812 547.019531 62.382812 C 546.894531 62.125 546.585938 62.019531 546.335938 62.140625 L 540.59375 64.925781 C 540.339844 65.050781 540.234375 65.359375 540.359375 65.609375 C 540.480469 65.867188 540.785156 65.972656 541.042969 65.847656 " fill-opacity="1" fill-rule="nonzero"/><path fill="#211a15" d="M 550.578125 49.277344 C 550.574219 49.277344 550.480469 49.472656 550.296875 49.824219 C 549.660156 51.070312 547.957031 54.207031 545.707031 57.097656 C 544.578125 58.539062 543.3125 59.917969 541.996094 60.96875 C 540.675781 62.015625 539.304688 62.722656 537.96875 62.875 C 537.800781 62.894531 537.636719 62.902344 537.484375 62.902344 C 536.949219 62.902344 536.5 62.792969 536.109375 62.578125 C 535.535156 62.253906 535.0625 61.675781 534.714844 60.738281 C 534.375 59.808594 534.179688 58.527344 534.183594 56.902344 C 534.179688 54.289062 534.671875 50.785156 535.742188 46.351562 C 535.808594 46.074219 535.636719 45.796875 535.363281 45.730469 C 535.089844 45.667969 534.8125 45.835938 534.746094 46.109375 C 533.664062 50.597656 533.160156 54.164062 533.160156 56.902344 C 533.160156 59.175781 533.503906 60.886719 534.226562 62.089844 C 534.589844 62.6875 535.058594 63.160156 535.609375 63.46875 C 536.167969 63.78125 536.804688 63.929688 537.484375 63.925781 C 537.679688 63.925781 537.882812 63.914062 538.089844 63.890625 C 539.925781 63.675781 541.652344 62.644531 543.234375 61.269531 C 547.953125 57.136719 551.480469 49.746094 551.5 49.71875 C 551.621094 49.460938 551.515625 49.15625 551.257812 49.03125 C 551.007812 48.914062 550.699219 49.019531 550.578125 49.277344 " fill-opacity="1" fill-rule="nonzero"/><path fill="#211a15" d="M 534.171875 34.355469 C 539.476562 36.035156 547.40625 43.859375 542.535156 54.964844 C 541.378906 57.605469 540.085938 59.863281 535.621094 64.207031 C 535.621094 64.207031 536.851562 94.578125 535.847656 97.179688 C 534.558594 100.507812 529.980469 106.050781 524.585938 105.976562 C 519.3125 105.902344 511.730469 98.214844 511.429688 89.488281 C 511.164062 81.613281 511.035156 65.851562 510.871094 57.96875 C 510.773438 53.078125 510.648438 48.34375 517.894531 39.703125 C 520.652344 36.425781 526.667969 31.980469 534.171875 34.355469 " fill-opacity="1" fill-rule="nonzero"/><path fill="#00ecff" d="M 537.953125 37 C 538.929688 38.261719 539.832031 40.835938 539.828125 43.972656 C 539.828125 46.617188 539.203125 49.671875 537.515625 52.746094 C 535.636719 56.164062 533.785156 58.648438 532.402344 60.265625 C 531.707031 61.070312 531.136719 61.667969 530.738281 62.058594 C 530.539062 62.253906 530.386719 62.398438 530.28125 62.492188 L 530.164062 62.597656 L 530.128906 62.628906 L 529.949219 62.777344 L 529.105469 104.457031 L 530.128906 104.476562 L 530.972656 63.03125 L 530.457031 63.015625 L 530.785156 63.410156 C 530.828125 63.378906 534.589844 60.214844 538.414062 53.238281 C 540.1875 50.003906 540.855469 46.777344 540.855469 43.972656 C 540.851562 40.636719 539.933594 37.90625 538.765625 36.375 L 537.953125 37 " fill-opacity="1" fill-rule="nonzero"/><path fill="#00ecff" d="M 529.566406 38.660156 C 533.488281 39.742188 537.574219 44.769531 531.128906 54.851562 C 529.242188 57.796875 522.859375 61.53125 517.597656 58.492188 C 515.226562 57.117188 513.589844 51.433594 519.085938 43.636719 C 520.753906 41.273438 524.640625 37.308594 529.566406 38.660156 " fill-opacity="1" fill-rule="nonzero"/><path fill="#b05725" d="M 510.828125 69.398438 L 519.078125 59.820312 C 524.433594 53.839844 525.503906 47.730469 522.792969 44.746094 C 517.292969 38.675781 504.210938 51.773438 499.601562 56.328125 C 489.867188 65.957031 486.3125 76.761719 484.441406 84.546875 C 483.9375 86.640625 483.390625 88.921875 482.808594 91.328125 L 511.855469 96.460938 C 521.917969 82.542969 510.828125 69.398438 510.828125 69.398438 " fill-opacity="1" fill-rule="nonzero"/><path fill="#340068" d="M 197.238281 184.867188 L 202.535156 406.972656 L 440.027344 384.257812 C 440.027344 384.257812 391.46875 176.921875 365.84375 166.199219 C 339.03125 154.976562 230.722656 167.902344 197.238281 184.867188 " fill-opacity="1" fill-rule="nonzero"/><path fill="#211a15" d="M 240.222656 172.265625 C 258.070312 181.90625 273.886719 185.632812 286.769531 185.632812 C 297.792969 185.632812 306.664062 182.90625 312.808594 178.804688 C 318.945312 174.710938 322.375 169.222656 322.378906 163.714844 C 322.378906 163.167969 322.347656 162.625 322.28125 162.078125 L 321.261719 162.207031 C 321.324219 162.707031 321.355469 163.207031 321.355469 163.714844 C 321.359375 168.777344 318.183594 173.988281 312.238281 177.953125 C 306.300781 181.917969 297.621094 184.605469 286.769531 184.605469 C 274.085938 184.605469 258.429688 180.9375 240.710938 171.367188 L 240.222656 172.265625 " fill-opacity="1" fill-rule="nonzero"/><path fill="#b05725" d="M 248.738281 118.996094 L 254.75 169.132812 L 309.613281 162.144531 L 306.476562 138.675781 L 248.738281 118.996094 " fill-opacity="1" fill-rule="nonzero"/><path fill="#b05725" d="M 278.753906 45.910156 C 299.242188 39.644531 325.421875 49.308594 330.011719 83.945312 C 331.253906 93.304688 333.09375 112.121094 334.710938 121.421875 C 336.03125 129.007812 337.617188 144.152344 324.253906 150.398438 C 318.746094 152.96875 314.296875 154.433594 300.984375 157.441406 L 248.738281 118.996094 C 248.738281 118.996094 236.746094 58.761719 278.753906 45.910156 " fill-opacity="1" fill-rule="nonzero"/><path fill="#211a15" d="M 333.894531 116.113281 C 333.894531 116.113281 333.300781 111.726562 332.910156 108.511719 L 268.867188 113.34375 C 268.867188 113.34375 281.371094 128.332031 333.894531 116.113281 " fill-opacity="1" fill-rule="nonzero"/><path fill="#211a15" d="M 244.816406 60.769531 C 244.816406 60.769531 249.292969 28.027344 275.550781 30.09375 C 279.253906 30.378906 284.097656 35.113281 274.847656 44.910156 C 274.847656 44.910156 310.640625 13.363281 342.574219 42.640625 C 345.964844 45.75 348.707031 57.730469 329.734375 55.835938 C 329.734375 55.835938 357.679688 68.320312 337.722656 78.921875 C 337.722656 78.921875 344.367188 96.257812 332.804688 107.640625 L 329.289062 82.078125 C 329.289062 82.078125 311.132812 86.066406 308.101562 69.515625 C 308.101562 69.515625 293.855469 86.128906 271.46875 70.496094 C 271.46875 70.496094 283.675781 104.351562 263.824219 108.511719 C 260.445312 109.222656 248.738281 118.996094 248.738281 118.996094 L 250.46875 133.25 C 222.667969 118.816406 214.875 66.386719 244.816406 60.769531 " fill-opacity="1" fill-rule="nonzero"/><path fill="#211a15" d="M 310.019531 106.050781 L 312.507812 123.402344 L 313.523438 123.257812 L 311.039062 105.910156 " fill-opacity="1" fill-rule="nonzero"/><path fill="#211a15" d="M 309.058594 155.382812 L 294.800781 157.882812 L 294.976562 158.890625 L 309.238281 156.390625 " fill-opacity="1" fill-rule="nonzero"/><path fill="#00ecff" d="M 312.089844 74.546875 C 305.167969 74.976562 289.878906 76.367188 281.808594 77.875 C 274.089844 79.324219 260.089844 84.199219 261.816406 102.089844 C 262.480469 108.988281 268.296875 117.617188 285.347656 116.746094 C 307.273438 115.632812 323.996094 114.113281 336.707031 111.164062 C 350.390625 107.988281 353.257812 100.429688 350.195312 86.875 C 347.3125 74.101562 332.9375 73.25 312.089844 74.546875 " fill-opacity="1" fill-rule="nonzero"/><path fill="#211a15" d="M 299.207031 79.890625 C 290.035156 80.832031 281.667969 85.265625 283.28125 98.511719 C 284.132812 105.535156 289.207031 110.714844 306.464844 109.902344 C 313.257812 109.582031 326.867188 107.9375 333.578125 106.835938 C 339.976562 105.789062 348.289062 101.3125 345.910156 88.578125 C 344.039062 78.558594 332.804688 76.453125 299.207031 79.890625 " fill-opacity="1" fill-rule="nonzero"/><path fill="#00ecff" d="M 264.230469 92.464844 L 227.019531 100.671875 C 227.019531 100.671875 227.621094 103.992188 229.277344 108.109375 C 230.820312 111.949219 232.710938 115.042969 232.710938 115.042969 L 266.261719 107.832031 L 264.230469 92.464844 " fill-opacity="1" fill-rule="nonzero"/><path fill="#b05725" d="M 263.824219 108.511719 C 263.824219 108.511719 257.867188 90.863281 245.59375 98.566406 C 241.214844 101.3125 236.46875 111.34375 248.738281 118.996094 L 263.824219 108.511719 " fill-opacity="1" fill-rule="nonzero"/><path fill="#211a15" d="M 259.398438 111.515625 L 247.179688 97.660156 L 246.410156 98.339844 L 258.628906 112.195312 " fill-opacity="1" fill-rule="nonzero"/><path fill="#211a15" d="M 295.269531 132.316406 C 295.28125 132.355469 295.53125 133.4375 296.378906 134.550781 C 297.21875 135.667969 298.71875 136.804688 301.054688 136.796875 C 302.058594 136.796875 303.203125 136.59375 304.515625 136.121094 L 304.167969 135.160156 C 302.945312 135.59375 301.917969 135.769531 301.054688 135.769531 C 299.054688 135.761719 297.914062 134.859375 297.195312 133.929688 C 296.835938 133.464844 296.605469 132.992188 296.460938 132.644531 C 296.386719 132.46875 296.339844 132.324219 296.308594 132.226562 L 296.269531 132.085938 L 295.269531 132.316406 " fill-opacity="1" fill-rule="nonzero"/><path fill="#ff6978" d="M 515.832031 122.378906 C 478.429688 118.140625 484.441406 84.546875 484.441406 84.546875 C 478.3125 110.054688 465.894531 160.777344 461.101562 186.070312 C 448.125 254.582031 499.355469 264.847656 512.730469 249.902344 C 530.675781 229.859375 541.367188 141.695312 544.277344 114.527344 C 537.984375 122.734375 523.015625 123.195312 515.832031 122.378906 " fill-opacity="1" fill-rule="nonzero"/><path fill="#b05725" d="M 254.75 169.132812 C 254.75 169.132812 269.4375 177.136719 295.410156 173.429688 C 302.976562 172.355469 310.113281 167.726562 309.613281 162.144531 C 309.613281 162.144531 268.097656 163.117188 254.75 169.132812 " fill-opacity="1" fill-rule="nonzero"/><path fill="#211a15" d="M 287.160156 76.152344 C 287.109375 76.164062 284.0625 76.859375 280.996094 79.621094 C 277.925781 82.378906 274.882812 87.234375 274.886719 95.378906 C 274.886719 96.839844 274.984375 98.402344 275.195312 100.082031 C 275.640625 103.617188 277.175781 107.894531 279.980469 111.332031 C 282.777344 114.765625 286.902344 117.351562 292.398438 117.34375 C 292.621094 117.34375 292.847656 117.339844 293.074219 117.332031 L 293.035156 116.3125 C 292.820312 116.316406 292.605469 116.320312 292.398438 116.320312 C 287.234375 116.316406 283.441406 113.9375 280.777344 110.683594 C 278.117188 107.433594 276.628906 103.308594 276.214844 99.957031 C 276.007812 98.316406 275.914062 96.789062 275.914062 95.378906 C 275.921875 87.484375 278.8125 82.976562 281.679688 80.382812 C 283.121094 79.085938 284.558594 78.273438 285.632812 77.789062 C 286.167969 77.546875 286.613281 77.386719 286.921875 77.285156 C 287.078125 77.238281 287.199219 77.203125 287.277344 77.183594 L 287.367188 77.160156 L 287.390625 77.15625 L 287.160156 76.152344 " fill-opacity="1" fill-rule="nonzero"/><path fill="#211a15" d="M 459.808594 189.402344 L 454.621094 211.90625 L 455.617188 212.136719 L 460.808594 189.628906 " fill-opacity="1" fill-rule="nonzero"/><path fill="#ff6978" d="M 174.875 202.847656 C 147.378906 235.144531 131.257812 264.503906 115.894531 294.644531 C 106.617188 312.839844 128.445312 382.808594 171.398438 364.515625 C 201.222656 351.820312 212.839844 301.292969 221.152344 267.0625 C 234.683594 211.367188 219.15625 150.835938 174.875 202.847656 " fill-opacity="1" fill-rule="nonzero"/><path fill="#ff6978" d="M 106.953125 214.804688 C 149.347656 206.921875 142.15625 169.167969 142.15625 169.167969 C 151.238281 197.820312 168.613281 260.585938 176.144531 289.097656 C 196.550781 366.328125 152.796875 381.382812 130.070312 352.542969 C 106.898438 323.148438 80.199219 228.671875 75.714844 208.679688 C 82.992188 216.011719 98.8125 216.316406 106.953125 214.804688 " fill-opacity="1" fill-rule="nonzero"/><path fill="#211a15" d="M 434.425781 364.007812 L 198.222656 387.789062 L 198.324219 388.8125 L 434.53125 365.027344 " fill-opacity="1" fill-rule="nonzero"/><path fill="#340068" d="M 303.210938 105 L 324.199219 83.695312 L 323.464844 82.976562 L 302.476562 104.28125 " fill-opacity="1" fill-rule="nonzero"/><path fill="#340068" d="M 318.53125 101.941406 L 328.429688 90.933594 L 327.664062 90.25 L 317.769531 101.257812 " fill-opacity="1" fill-rule="nonzero"/><path fill="#211a15" d="M 476.871094 113.933594 C 476.878906 113.988281 477.511719 118.996094 481.675781 124.703125 C 485.832031 130.410156 493.53125 136.796875 507.546875 139.566406 C 510.175781 140.085938 513.722656 140.449219 517.605469 140.449219 C 522.226562 140.449219 527.308594 139.933594 531.851562 138.519531 C 536.390625 137.105469 540.414062 134.789062 542.820312 131.140625 L 541.964844 130.574219 C 539.75 133.945312 535.957031 136.171875 531.546875 137.539062 C 527.144531 138.914062 522.148438 139.429688 517.605469 139.425781 C 513.792969 139.425781 510.296875 139.066406 507.746094 138.5625 C 493.957031 135.828125 486.527344 129.613281 482.503906 124.101562 C 480.492188 121.347656 479.339844 118.761719 478.6875 116.867188 C 478.363281 115.921875 478.160156 115.148438 478.046875 114.617188 C 477.984375 114.351562 477.945312 114.144531 477.921875 114.007812 L 477.898438 113.855469 L 477.890625 113.808594 L 476.871094 113.933594 " fill-opacity="1" fill-rule="nonzero"/><g clip-path="url(#id3)"><path fill="#211a15" d="M 250.246094 410.621094 C 250.246094 410.621094 250.253906 410.742188 250.261719 410.980469 C 250.269531 411.226562 250.277344 411.582031 250.277344 412.042969 C 250.277344 414.78125 249.988281 421.152344 247.703125 428.277344 C 245.417969 435.402344 241.152344 443.261719 233.195312 449.054688 L 233.800781 449.882812 C 241.976562 443.925781 246.351562 435.851562 248.679688 428.589844 C 251.011719 421.320312 251.300781 414.851562 251.300781 412.042969 C 251.300781 411.097656 251.269531 410.566406 251.265625 410.558594 L 250.246094 410.621094 " fill-opacity="1" fill-rule="nonzero"/></g><path fill="#211a15" d="M 414.3125 397.875 C 414.320312 397.914062 415.160156 408.078125 420.734375 418.53125 C 423.519531 423.753906 427.5 429.054688 433.160156 433.167969 C 438.816406 437.277344 446.160156 440.195312 455.613281 440.667969 L 455.667969 439.648438 C 446.390625 439.179688 439.269531 436.335938 433.761719 432.335938 C 425.503906 426.339844 420.890625 417.707031 418.34375 410.558594 C 417.070312 406.984375 416.316406 403.78125 415.886719 401.480469 C 415.664062 400.332031 415.527344 399.402344 415.445312 398.765625 C 415.402344 398.445312 415.375 398.203125 415.355469 398.03125 C 415.339844 397.867188 415.332031 397.789062 415.332031 397.789062 L 414.3125 397.875 " fill-opacity="1" fill-rule="nonzero"/><path fill="#211a15" d="M 352.402344 392.683594 L 361.953125 443.285156 L 362.960938 443.097656 L 353.410156 392.492188 " fill-opacity="1" fill-rule="nonzero"/><path fill="#211a15" d="M 157.878906 224.140625 L 176.09375 280.183594 L 177.066406 279.867188 L 158.851562 223.820312 " fill-opacity="1" fill-rule="nonzero"/><path fill="#211a15" d="M 371.917969 390.804688 L 377.039062 421.546875 L 360.484375 433.957031 L 361.101562 434.777344 L 378.15625 421.992188 L 372.929688 390.636719 L 371.917969 390.804688 " fill-opacity="1" fill-rule="nonzero"/><path fill="#211a15" d="M 81.277344 231.03125 C 81.3125 231.042969 90.179688 234.0625 103.050781 234.0625 C 110.492188 234.0625 119.269531 233.054688 128.449219 229.859375 C 134.316406 227.8125 140.171875 223.816406 144.578125 218.617188 C 148.980469 213.417969 151.945312 207.003906 151.945312 200.148438 L 150.917969 200.148438 C 150.921875 206.699219 148.082031 212.894531 143.796875 217.953125 C 139.515625 223.011719 133.789062 226.917969 128.113281 228.890625 C 119.0625 232.039062 110.398438 233.035156 103.050781 233.035156 C 96.695312 233.035156 91.328125 232.292969 87.550781 231.546875 C 85.660156 231.175781 84.167969 230.800781 83.15625 230.523438 C 82.644531 230.382812 82.257812 230.265625 81.996094 230.1875 C 81.738281 230.105469 81.609375 230.0625 81.609375 230.0625 L 81.277344 231.03125 " fill-opacity="1" fill-rule="nonzero"/><path fill="#211a15" d="M 202.535156 406.972656 L 202.535156 422.921875 L 440.027344 384.257812 Z M 202.535156 406.972656 " fill-opacity="1" fill-rule="nonzero"/><path fill="#211a15" d="M 513.035156 94.757812 C 511.367188 97.109375 508.113281 99.53125 504.601562 101.800781 L 505.160156 102.664062 C 508.703125 100.359375 512.035156 97.925781 513.871094 95.355469 L 513.035156 94.757812 " fill-opacity="1" fill-rule="nonzero"/><path fill="#211a15" d="M 550.527344 106.820312 L 550.503906 106.8125 C 550.378906 106.761719 549.707031 106.464844 549.101562 105.964844 C 548.796875 105.710938 548.515625 105.417969 548.3125 105.078125 C 548.113281 104.742188 547.992188 104.382812 547.988281 103.972656 C 547.988281 103.238281 548.386719 102.246094 549.757812 100.980469 C 550.566406 100.234375 551.8125 99.773438 553.085938 99.777344 C 554.171875 99.777344 555.261719 100.097656 556.136719 100.800781 C 557.015625 101.503906 557.703125 102.589844 557.976562 104.214844 L 558.984375 104.046875 C 558.691406 102.214844 557.863281 100.867188 556.777344 100 C 555.691406 99.136719 554.371094 98.753906 553.085938 98.753906 C 551.574219 98.753906 550.101562 99.277344 549.0625 100.226562 C 547.578125 101.59375 546.96875 102.847656 546.964844 103.972656 C 546.964844 104.636719 547.183594 105.222656 547.492188 105.703125 C 547.960938 106.425781 548.621094 106.925781 549.164062 107.265625 C 549.707031 107.601562 550.136719 107.769531 550.15625 107.777344 L 550.527344 106.820312 " fill-opacity="1" fill-rule="nonzero"/><path fill="#211a15" d="M 541.152344 94.664062 L 541.132812 94.652344 C 541.042969 94.570312 540.5625 94.125 540.113281 93.472656 C 539.664062 92.820312 539.269531 91.96875 539.273438 91.082031 C 539.28125 90.140625 539.675781 89.105469 541.125 87.996094 C 541.917969 87.394531 543.371094 86.871094 544.902344 86.875 C 546.214844 86.878906 547.582031 87.242188 548.742188 88.183594 C 549.898438 89.128906 550.882812 90.671875 551.371094 93.128906 L 552.375 92.929688 C 551.859375 90.292969 550.761719 88.503906 549.386719 87.390625 C 548.015625 86.277344 546.398438 85.851562 544.902344 85.851562 C 543.140625 85.855469 541.53125 86.414062 540.507812 87.179688 C 538.867188 88.410156 538.238281 89.808594 538.246094 91.082031 C 538.25 92.351562 538.824219 93.433594 539.371094 94.195312 C 539.925781 94.964844 540.464844 95.425781 540.484375 95.445312 L 541.152344 94.664062 " fill-opacity="1" fill-rule="nonzero"/><path fill="#211a15" d="M 536.125 74.746094 L 536.152344 74.738281 C 536.296875 74.691406 537.011719 74.496094 537.953125 74.5 C 538.992188 74.5 540.285156 74.734375 541.449219 75.625 C 542.609375 76.523438 543.6875 78.101562 544.226562 80.953125 L 545.238281 80.761719 C 544.667969 77.742188 543.46875 75.886719 542.074219 74.816406 C 540.683594 73.746094 539.140625 73.472656 537.953125 73.476562 C 536.714844 73.476562 535.84375 73.761719 535.808594 73.773438 L 536.125 74.746094 " fill-opacity="1" fill-rule="nonzero"/><path fill="#211a15" d="M 548.992188 53.339844 C 548.976562 53.328125 548.253906 52.726562 547.191406 52.117188 C 546.121094 51.515625 544.714844 50.890625 543.265625 50.882812 C 542.285156 50.878906 541.265625 51.199219 540.453125 52.027344 C 539.792969 52.695312 538.949219 53.863281 538.238281 55.234375 C 537.539062 56.601562 536.976562 58.164062 536.972656 59.636719 C 536.972656 60.414062 537.136719 61.183594 537.558594 61.851562 C 537.972656 62.515625 538.644531 63.058594 539.550781 63.40625 L 539.917969 62.449219 C 539.175781 62.160156 538.71875 61.773438 538.425781 61.304688 C 538.128906 60.839844 537.996094 60.277344 537.996094 59.636719 C 537.992188 58.429688 538.492188 56.980469 539.152344 55.699219 C 539.804688 54.425781 540.625 53.304688 541.183594 52.746094 C 541.796875 52.128906 542.488281 51.914062 543.265625 51.90625 C 544.40625 51.902344 545.699219 52.445312 546.683594 53.011719 C 547.175781 53.292969 547.59375 53.570312 547.882812 53.785156 C 548.03125 53.886719 548.140625 53.976562 548.222656 54.035156 L 548.332031 54.128906 L 548.992188 53.339844 " fill-opacity="1" fill-rule="nonzero"/><path fill="#211a15" d="M 513.628906 44.828125 L 513.652344 44.910156 C 513.78125 45.292969 514.316406 47.050781 514.3125 49.019531 C 514.316406 50.164062 514.136719 51.375 513.625 52.4375 C 513.113281 53.503906 512.28125 54.433594 510.898438 55.078125 C 510.503906 55.261719 510.132812 55.335938 509.769531 55.335938 C 509.15625 55.335938 508.554688 55.117188 507.984375 54.757812 C 507.121094 54.214844 506.355469 53.367188 505.824219 52.652344 C 505.554688 52.292969 505.34375 51.96875 505.199219 51.742188 C 505.128906 51.625 505.070312 51.535156 505.035156 51.46875 L 504.984375 51.378906 L 504.082031 51.867188 C 504.09375 51.886719 504.679688 52.972656 505.664062 54.074219 C 506.15625 54.628906 506.75 55.1875 507.433594 55.621094 C 508.121094 56.054688 508.910156 56.359375 509.769531 56.359375 C 510.277344 56.359375 510.808594 56.25 511.332031 56.007812 C 512.921875 55.269531 513.953125 54.136719 514.550781 52.882812 C 515.152344 51.628906 515.339844 50.269531 515.339844 49.019531 C 515.339844 46.5625 514.601562 44.519531 514.59375 44.484375 L 513.628906 44.828125 " fill-opacity="1" fill-rule="nonzero"/></svg>