<svg xmlns="http://www.w3.org/2000/svg" xmlns:xlink="http://www.w3.org/1999/xlink" width="800" zoomAndPan="magnify" viewBox="0 0 600 449.999984" height="600" preserveAspectRatio="xMidYMid meet" version="1.0"><defs><clipPath id="id1"><path d="M 94.011719 3.03125 L 460.929688 3.03125 L 460.929688 435.890625 L 94.011719 435.890625 Z M 94.011719 3.03125 " clip-rule="nonzero"/></clipPath></defs><path fill="#ffffff" d="M 321.574219 133.042969 C 321.777344 133.136719 321.980469 133.234375 322.191406 133.320312 C 322.488281 133.449219 322.792969 133.566406 323.097656 133.683594 C 323.300781 133.757812 323.5 133.835938 323.703125 133.90625 C 323.808594 133.941406 323.921875 133.96875 324.03125 134.003906 C 324.097656 134.023438 324.160156 134.042969 324.226562 134.066406 L 325.203125 133.152344 C 324.039062 133.246094 322.828125 133.222656 321.574219 133.042969 Z M 268.367188 88.125 C 267.140625 87.792969 265.957031 87.566406 264.8125 87.390625 C 263.257812 87.152344 261.796875 87.023438 260.519531 86.988281 C 257.4375 86.894531 254.65625 88.824219 253.617188 91.722656 C 252.308594 95.375 254.152344 99.402344 257.769531 100.796875 C 259.191406 101.347656 260.742188 101.945312 262.316406 102.558594 C 259.398438 102.304688 256.71875 102.476562 254.570312 102.78125 C 251.519531 103.214844 249.109375 105.582031 248.578125 108.621094 C 247.90625 112.441406 250.410156 116.09375 254.214844 116.855469 C 254.359375 116.886719 254.507812 116.914062 254.652344 116.941406 C 253.59375 117.261719 252.601562 117.605469 251.730469 117.949219 C 248.863281 119.089844 247.082031 121.964844 247.285156 125.039062 C 247.511719 128.523438 250.207031 131.265625 253.578125 131.664062 C 252.878906 131.894531 252.210938 132.128906 251.609375 132.371094 C 248.742188 133.511719 246.960938 136.382812 247.164062 139.457031 C 247.394531 142.972656 250.132812 145.726562 253.535156 146.089844 C 253.882812 146.128906 254.234375 146.148438 254.59375 146.128906 C 255.609375 146.089844 256.6875 146.046875 257.796875 146 C 262.5 140.074219 257.691406 131.59375 257.691406 131.59375 C 266.566406 128.800781 260.726562 118.171875 260.726562 118.171875 C 267.664062 114.238281 265.394531 103.089844 265.394531 103.089844 C 275.398438 97.722656 272.5 89.867188 272.476562 89.792969 C 271.105469 89.070312 269.71875 88.488281 268.367188 88.125 Z M 337.71875 147.476562 L 339.378906 147.460938 C 344.875 147.421875 350.367188 147.679688 355.832031 148.234375 L 447.78125 157.519531 L 447.78125 157.164062 L 336.386719 145.835938 C 336.832031 146.382812 337.269531 146.925781 337.71875 147.476562 Z M 447.78125 102.429688 L 447.78125 142.398438 C 431.03125 142.640625 359.417969 143.484375 351.171875 140.398438 C 344.714844 137.976562 337.144531 133.246094 333.078125 130.546875 C 338.820312 127.15625 342.214844 121.714844 342.214844 121.714844 C 342.214844 121.714844 322.347656 103.816406 316.113281 99.535156 C 309.882812 95.253906 296.636719 92.640625 296.636719 92.640625 C 296.636719 92.640625 284.402344 107.308594 281.339844 114.371094 C 279.609375 112.816406 276.105469 109.175781 277.660156 106.34375 C 278.804688 104.265625 281.25 101.203125 283.179688 98.929688 C 283.292969 99.078125 283.410156 99.230469 283.515625 99.378906 C 287.589844 93 292.46875 86.878906 293.503906 85.652344 C 294.683594 84.265625 299.753906 84.808594 305.644531 86.089844 C 309.9375 87.027344 314.667969 88.355469 318.644531 89.609375 C 324.0625 91.320312 328.011719 93.285156 330.875 95.15625 C 344.660156 99.960938 359.175781 102.429688 373.8125 102.429688 L 447.78125 102.429688 " fill-opacity="1" fill-rule="nonzero"/><path fill="#ff6978" d="M 323.097656 133.683594 C 322.792969 133.566406 322.488281 133.449219 322.191406 133.324219 C 322.191406 133.324219 322.191406 133.320312 322.191406 133.320312 L 322.1875 133.320312 C 322.105469 133.285156 322.03125 133.246094 321.945312 133.210938 C 321.820312 133.15625 321.699219 133.101562 321.574219 133.042969 C 322.828125 133.222656 324.039062 133.246094 325.203125 133.152344 L 324.226562 134.066406 L 324.21875 134.070312 C 324.050781 134.015625 323.875 133.964844 323.703125 133.90625 C 323.660156 133.886719 323.617188 133.871094 323.578125 133.859375 C 323.417969 133.800781 323.257812 133.738281 323.097656 133.683594 Z M 448.136719 352.289062 C 445.074219 346.09375 443.714844 339.179688 444.328125 332.296875 C 445.996094 313.554688 445.832031 272.039062 417.820312 239.742188 C 417.160156 238.984375 416.484375 238.207031 415.796875 237.417969 C 415.792969 237.417969 415.789062 237.410156 415.785156 237.40625 C 415.554688 237.140625 415.320312 236.871094 415.085938 236.605469 C 414.621094 236.070312 414.148438 235.53125 413.667969 234.984375 C 413.660156 234.96875 413.644531 234.953125 413.632812 234.941406 C 413.367188 234.640625 413.097656 234.332031 412.828125 234.023438 C 412.46875 233.613281 412.101562 233.195312 411.734375 232.78125 C 411.625 232.65625 411.519531 232.53125 411.410156 232.40625 C 411.375 232.367188 411.335938 232.328125 411.300781 232.28125 C 411.035156 231.980469 410.769531 231.675781 410.5 231.375 C 410.246094 231.085938 409.988281 230.792969 409.730469 230.5 C 409.519531 230.261719 409.308594 230.019531 409.09375 229.777344 C 408.84375 229.492188 408.59375 229.207031 408.34375 228.925781 C 408.289062 228.863281 408.234375 228.804688 408.183594 228.742188 C 407.640625 228.125 407.089844 227.503906 406.535156 226.878906 C 406.300781 226.613281 406.066406 226.34375 405.828125 226.078125 C 405.242188 225.414062 404.648438 224.742188 404.050781 224.066406 C 403.929688 223.925781 403.8125 223.792969 403.6875 223.65625 C 403.660156 223.617188 403.625 223.585938 403.59375 223.550781 C 403.539062 223.492188 403.488281 223.433594 403.4375 223.371094 C 403.414062 223.34375 403.394531 223.324219 403.375 223.300781 C 403.214844 223.121094 403.050781 222.9375 402.890625 222.757812 C 402.054688 221.808594 401.207031 220.851562 400.347656 219.882812 C 400.246094 219.765625 400.148438 219.65625 400.046875 219.539062 C 399.785156 219.242188 399.515625 218.945312 399.253906 218.644531 C 398.152344 217.402344 397.042969 216.152344 395.914062 214.878906 C 395.089844 213.945312 394.25 212.996094 393.410156 212.046875 C 392.878906 211.453125 392.351562 210.851562 391.816406 210.246094 C 390.664062 208.949219 389.511719 207.644531 388.335938 206.320312 C 388.273438 206.242188 388.203125 206.167969 388.136719 206.09375 C 387.339844 205.191406 386.535156 204.285156 385.730469 203.371094 C 385.648438 203.28125 385.566406 203.1875 385.484375 203.09375 C 385.460938 203.066406 385.433594 203.039062 385.410156 203.011719 C 385.398438 202.996094 385.382812 202.980469 385.371094 202.964844 C 385.363281 202.960938 385.359375 202.953125 385.355469 202.945312 C 382.050781 199.207031 378.679688 195.382812 375.277344 191.503906 C 375.164062 191.375 375.054688 191.25 374.941406 191.121094 C 374.933594 191.105469 374.917969 191.09375 374.90625 191.078125 C 374.890625 191.058594 374.875 191.046875 374.859375 191.03125 C 374.1875 190.257812 373.511719 189.484375 372.828125 188.710938 C 372.828125 188.703125 372.816406 188.695312 372.808594 188.6875 C 372.550781 188.386719 372.289062 188.089844 372.027344 187.789062 C 372.027344 187.789062 372.023438 187.785156 372.023438 187.785156 C 372.019531 187.785156 372.019531 187.78125 372.019531 187.78125 C 371.359375 187.027344 370.699219 186.269531 370.039062 185.511719 C 369.746094 185.179688 369.457031 184.847656 369.167969 184.515625 C 369.15625 184.507812 369.152344 184.496094 369.140625 184.484375 C 368.515625 183.769531 367.894531 183.050781 367.269531 182.335938 C 367.242188 182.304688 367.21875 182.273438 367.191406 182.242188 C 367.164062 182.214844 367.136719 182.183594 367.109375 182.152344 C 366.859375 181.863281 366.609375 181.574219 366.359375 181.285156 C 366.339844 181.265625 366.324219 181.25 366.308594 181.230469 C 366.292969 181.210938 366.28125 181.195312 366.265625 181.179688 C 365.621094 180.4375 364.972656 179.691406 364.328125 178.945312 C 364.070312 178.652344 363.816406 178.355469 363.558594 178.058594 C 363.546875 178.039062 363.527344 178.023438 363.515625 178.007812 C 363.496094 177.984375 363.472656 177.960938 363.453125 177.9375 C 362.78125 177.160156 362.109375 176.382812 361.441406 175.605469 C 361.4375 175.601562 361.433594 175.597656 361.429688 175.59375 C 361.425781 175.59375 361.421875 175.589844 361.417969 175.585938 C 361.28125 175.425781 361.144531 175.265625 361.007812 175.109375 C 358.59375 172.308594 356.191406 169.503906 353.808594 166.707031 C 353.808594 166.707031 353.808594 166.703125 353.804688 166.703125 C 353.796875 166.695312 353.78125 166.679688 353.777344 166.671875 C 353.582031 166.449219 353.394531 166.222656 353.199219 165.996094 C 353.199219 165.996094 353.199219 165.992188 353.195312 165.992188 C 353.195312 165.988281 353.191406 165.984375 353.1875 165.980469 C 352.828125 165.558594 352.472656 165.140625 352.113281 164.714844 C 351.839844 164.390625 351.5625 164.066406 351.289062 163.746094 C 350.976562 163.378906 350.664062 163.007812 350.351562 162.640625 C 349.761719 161.941406 349.175781 161.242188 348.585938 160.546875 C 348.582031 160.539062 348.570312 160.53125 348.5625 160.519531 C 348.554688 160.507812 348.546875 160.5 348.535156 160.488281 C 348.210938 160.105469 347.882812 159.714844 347.558594 159.324219 C 347.558594 159.324219 347.554688 159.324219 347.554688 159.324219 C 346.976562 158.632812 346.398438 157.945312 345.820312 157.257812 C 345.820312 157.253906 345.820312 157.253906 345.816406 157.25 C 345.8125 157.246094 345.808594 157.242188 345.808594 157.238281 C 345.472656 156.839844 345.140625 156.445312 344.808594 156.046875 C 344.804688 156.039062 344.796875 156.027344 344.789062 156.023438 C 344.78125 156.011719 344.777344 156 344.765625 155.996094 C 344.203125 155.320312 343.640625 154.648438 343.085938 153.980469 C 342.742188 153.5625 342.398438 153.152344 342.058594 152.738281 C 341.496094 152.0625 340.9375 151.390625 340.382812 150.714844 C 340.0625 150.328125 339.746094 149.9375 339.425781 149.550781 C 338.464844 148.382812 337.511719 147.21875 336.566406 146.0625 C 336.507812 145.988281 336.445312 145.914062 336.386719 145.835938 L 447.78125 157.164062 L 447.78125 142.398438 C 431.03125 142.640625 359.417969 143.484375 351.171875 140.398438 C 344.714844 137.976562 337.144531 133.246094 333.078125 130.546875 C 338.820312 127.15625 342.214844 121.714844 342.214844 121.714844 C 342.214844 121.714844 322.347656 103.816406 316.113281 99.535156 C 309.882812 95.253906 296.636719 92.640625 296.636719 92.640625 C 296.636719 92.640625 284.402344 107.308594 281.339844 114.371094 C 279.609375 112.816406 276.105469 109.175781 277.660156 106.34375 C 278.804688 104.265625 281.25 101.203125 283.179688 98.929688 C 283.292969 99.078125 283.410156 99.230469 283.515625 99.378906 C 287.589844 93 292.46875 86.878906 293.503906 85.652344 C 294.683594 84.265625 299.753906 84.808594 305.644531 86.089844 C 308.308594 80.90625 314.066406 75.777344 324.902344 71.398438 C 336.863281 66.5625 360.636719 56.828125 365.300781 39.1875 C 354.011719 39.902344 328.34375 41.234375 323.515625 38.820312 C 317.28125 35.707031 310.003906 33.203125 297.296875 32.300781 C 284.589844 31.402344 273.757812 31.675781 257.691406 27.503906 C 241.628906 23.332031 240.566406 35.335938 231.695312 49.917969 C 225.949219 59.359375 217.472656 58.609375 212.210938 56.90625 C 216.605469 60.164062 229.753906 69.109375 254.316406 79.503906 C 257.9375 81.035156 261.65625 83.746094 264.8125 87.390625 C 265.957031 87.566406 267.140625 87.792969 268.367188 88.125 C 269.71875 88.488281 271.105469 89.070312 272.476562 89.792969 C 272.5 89.867188 275.398438 97.722656 265.394531 103.089844 C 265.394531 103.089844 267.664062 114.238281 260.726562 118.171875 C 260.726562 118.171875 266.566406 128.800781 257.691406 131.59375 C 257.691406 131.59375 262.5 140.074219 257.796875 146 C 256.6875 146.046875 255.609375 146.089844 254.59375 146.128906 C 254.234375 146.148438 253.882812 146.128906 253.535156 146.089844 C 252.128906 147.394531 250.636719 148.707031 249.042969 150.023438 C 215.722656 177.535156 126.21875 256.949219 122.0625 269.53125 C 118.941406 278.996094 116.613281 287.867188 119.070312 306.292969 C 119.902344 312.5 119.222656 318.816406 117.023438 324.679688 C 108.617188 347.078125 88.839844 403.164062 98.605469 410.464844 C 105.539062 415.644531 145.710938 421.105469 162.382812 415.710938 C 170.5 413.082031 179.277344 413.351562 187.261719 416.375 C 205.550781 423.320312 233.785156 431.8125 250.613281 425.988281 C 264.664062 421.125 265.703125 419.269531 310.058594 428.375 C 325.078125 431.457031 386.292969 449.992188 453.339844 396.484375 C 462.871094 388.875 459.917969 376.101562 448.136719 352.289062 " fill-opacity="1" fill-rule="nonzero"/><path fill="#fcddee" d="M 204.152344 208.066406 C 207.371094 206.382812 258.34375 157.519531 258.34375 157.519531 C 240.308594 164.527344 208.210938 190.988281 204.152344 197.605469 C 200.097656 204.222656 200.933594 209.746094 204.152344 208.066406 Z M 196.75 313.972656 C 196.203125 341.992188 201.585938 352.109375 205.335938 342.703125 C 209.085938 333.296875 227.664062 275.539062 234.773438 240.222656 C 241.882812 204.90625 269.441406 168.289062 269.441406 168.289062 C 269.441406 168.289062 229.636719 212.007812 221.84375 240.222656 C 214.050781 268.4375 197.300781 285.949219 196.75 313.972656 Z M 317.601562 242.753906 C 321.425781 220.570312 307.085938 183.988281 307.085938 183.988281 C 307.085938 183.988281 299.75 256.375 304.367188 272.550781 C 308.980469 288.734375 314.804688 303.085938 323.578125 313.296875 C 330.527344 321.394531 330.914062 309.691406 320.789062 284.394531 C 310.660156 259.097656 313.773438 264.933594 317.601562 242.753906 Z M 362.46875 231.074219 C 349.613281 212.007812 328.300781 178.101562 328.300781 178.101562 C 328.300781 178.101562 350.78125 240.027344 354.277344 256.761719 C 357.773438 273.496094 362.46875 297.625 367.328125 299.9375 C 372.1875 302.25 375.390625 296.816406 379.261719 287.894531 C 383.128906 278.976562 375.324219 250.144531 362.46875 231.074219 Z M 323.515625 38.820312 C 317.28125 35.707031 310.003906 33.203125 297.296875 32.300781 C 284.589844 31.402344 273.757812 31.675781 257.691406 27.503906 C 241.628906 23.332031 240.566406 35.335938 231.695312 49.917969 C 225.949219 59.359375 217.472656 58.609375 212.210938 56.90625 C 211.0625 56.058594 210.503906 55.59375 210.503906 55.59375 C 210.503906 55.59375 240.929688 18.574219 259.1875 8.171875 C 273.566406 -0.0195312 285.425781 9.203125 290.421875 15.46875 C 304.921875 33.660156 322.445312 24.066406 333.421875 24.789062 C 351.878906 26.003906 365.472656 38.570312 365.472656 38.570312 C 365.421875 38.777344 365.355469 38.980469 365.300781 39.1875 C 354.011719 39.902344 328.34375 41.234375 323.515625 38.820312 " fill-opacity="1" fill-rule="nonzero"/><g clip-path="url(#id1)"><path fill="#211d1d" d="M 319.292969 304.28125 C 319.824219 305.214844 319.5 306.402344 318.566406 306.9375 C 318.261719 307.109375 317.929688 307.195312 317.601562 307.195312 C 316.929688 307.195312 316.269531 306.84375 315.910156 306.214844 C 295.722656 270.917969 299.710938 247.277344 302.910156 228.28125 C 303.113281 227.070312 303.3125 225.875 303.507812 224.6875 C 307.847656 198.09375 304.542969 169.929688 300.597656 149.683594 C 300.46875 149.03125 300.339844 148.382812 300.210938 147.742188 C 300.078125 147.085938 299.941406 146.4375 299.8125 145.800781 C 299.535156 144.480469 299.257812 143.203125 298.980469 141.964844 C 298.765625 140.988281 298.550781 140.042969 298.339844 139.125 C 298.113281 138.15625 297.886719 137.222656 297.667969 136.320312 C 295.398438 126.980469 293.5 121.226562 293.445312 121.054688 C 293.101562 120.035156 293.652344 118.929688 294.671875 118.589844 C 295.695312 118.25 296.796875 118.800781 297.136719 119.816406 C 297.1875 119.96875 298.59375 124.230469 300.4375 131.355469 C 300.660156 132.230469 300.894531 133.148438 301.132812 134.105469 C 301.355469 135 301.578125 135.929688 301.808594 136.894531 C 302.453125 139.601562 303.113281 142.574219 303.773438 145.773438 C 303.90625 146.410156 304.039062 147.058594 304.167969 147.714844 C 304.296875 148.355469 304.421875 149 304.550781 149.65625 C 308.496094 170.199219 311.726562 198.507812 307.351562 225.3125 C 307.160156 226.507812 306.957031 227.710938 306.75 228.929688 C 303.492188 248.273438 299.792969 270.195312 319.292969 304.28125 Z M 452.121094 394.964844 C 390.078125 444.480469 332.753906 431.5 313.914062 427.230469 C 312.578125 426.929688 311.421875 426.667969 310.453125 426.46875 C 287.675781 421.792969 276.175781 419.972656 268.46875 419.972656 C 261.835938 419.972656 258.015625 421.320312 252.238281 423.355469 C 251.519531 423.609375 250.765625 423.875 249.972656 424.152344 C 233.253906 429.9375 203.941406 420.625 187.953125 414.558594 C 179.546875 411.367188 170.246094 411.121094 161.777344 413.859375 C 145.480469 419.132812 105.859375 413.457031 99.773438 408.910156 C 93.953125 404.554688 101.441406 371.761719 118.84375 325.363281 C 121.132812 319.273438 121.878906 312.589844 121 306.039062 C 118.621094 288.164062 120.808594 279.550781 123.914062 270.140625 C 127.8125 258.34375 215.707031 180.074219 250.285156 151.519531 C 251.679688 150.367188 253 149.222656 254.253906 148.082031 C 254.265625 148.082031 254.269531 148.085938 254.28125 148.085938 C 254.410156 148.085938 254.542969 148.082031 254.671875 148.074219 C 257.527344 147.960938 260.894531 147.828125 263.984375 147.726562 C 254.90625 158.996094 241.617188 173.804688 225.285156 187.152344 C 224.339844 187.921875 222.5625 189.570312 220.308594 191.660156 C 216.222656 195.445312 206.253906 204.691406 201.917969 207.230469 C 202.339844 206.101562 203.191406 204.238281 204.894531 201.238281 C 205.425781 200.304688 205.097656 199.113281 204.164062 198.585938 C 203.222656 198.054688 202.039062 198.382812 201.507812 199.316406 C 197.421875 206.515625 196.671875 209.621094 198.652344 211.1875 C 199.128906 211.5625 199.667969 211.765625 200.332031 211.765625 C 203.464844 211.765625 209.261719 207.210938 222.957031 194.511719 C 225.074219 192.550781 226.898438 190.855469 227.75 190.160156 C 245.589844 175.589844 259.855469 159.277344 269.070312 147.582031 C 269.742188 147.5625 270.367188 147.554688 270.90625 147.550781 C 274.609375 147.511719 278.394531 146.121094 280.867188 144.109375 C 276.101562 153.992188 268.136719 168.074219 255.191406 185.332031 C 245.652344 198.050781 237.414062 209.035156 231.699219 247.003906 C 230.101562 257.632812 224.703125 281.367188 217.847656 304.421875 C 207.078125 340.617188 201.984375 344.175781 201.203125 344.523438 C 201.128906 344.449219 201.003906 344.296875 200.847656 344.019531 C 196.894531 336.949219 199.410156 318.113281 200.617188 309.066406 C 200.796875 307.695312 200.957031 306.484375 201.082031 305.480469 C 201.210938 304.414062 200.445312 303.445312 199.378906 303.316406 C 198.320312 303.191406 197.339844 303.949219 197.210938 305.015625 C 197.09375 306.007812 196.933594 307.199219 196.753906 308.546875 C 194.871094 322.664062 193.21875 338.351562 197.445312 345.914062 C 198.605469 347.996094 200.074219 348.445312 201.125 348.445312 C 201.378906 348.445312 201.605469 348.421875 201.796875 348.382812 C 203.828125 348.015625 209.226562 347.03125 221.5625 305.589844 C 227.632812 285.191406 233.648438 260.253906 235.554688 247.582031 C 241.121094 210.585938 249.085938 199.964844 258.308594 187.664062 C 285.144531 151.894531 290.863281 129.933594 291.089844 129.015625 C 291.355469 127.972656 290.722656 126.917969 289.679688 126.65625 C 288.632812 126.394531 287.578125 127.027344 287.3125 128.070312 C 287.292969 128.152344 286.355469 131.714844 283.574219 138.179688 C 283.371094 137.207031 282.855469 136.277344 282.042969 135.464844 C 281.355469 134.78125 280.480469 134.105469 279.480469 133.453125 C 280.253906 132.316406 280.675781 131.660156 280.703125 131.617188 C 280.769531 131.515625 280.820312 131.414062 280.867188 131.300781 C 280.890625 131.242188 281.199219 130.46875 281.65625 129.085938 C 282.445312 128.324219 283.050781 127.492188 283.40625 126.628906 C 283.914062 125.378906 283.914062 124.105469 283.4375 122.933594 C 283.734375 121.75 284.039062 120.464844 284.332031 119.074219 L 298.160156 117.257812 C 298.296875 117.488281 298.398438 117.65625 298.464844 117.757812 C 298.75 118.3125 300.398438 121.546875 302.964844 126.8125 C 303.296875 127.492188 303.644531 128.207031 304.003906 128.949219 C 304.339844 129.636719 304.683594 130.347656 305.039062 131.09375 C 307.023438 135.207031 309.363281 140.144531 311.933594 145.714844 C 312.226562 146.351562 312.523438 147 312.824219 147.652344 C 313.117188 148.292969 313.410156 148.9375 313.710938 149.59375 C 327.007812 178.742188 345.316406 222.59375 353.019531 258.242188 C 353.15625 258.878906 353.351562 259.863281 353.601562 261.109375 C 359.699219 291.671875 364.632812 304.140625 370.621094 304.152344 C 370.625 304.152344 370.628906 304.152344 370.632812 304.152344 C 375.054688 304.152344 378.207031 297.929688 381.171875 283.34375 C 381.386719 282.292969 380.703125 281.261719 379.652344 281.050781 C 378.585938 280.835938 377.570312 281.515625 377.355469 282.570312 C 373.796875 300.058594 370.761719 300.261719 370.628906 300.261719 C 370.511719 300.261719 367.628906 300.082031 363.1875 284.984375 C 360.554688 276.054688 358.519531 265.835938 357.421875 260.347656 C 357.167969 259.074219 356.96875 258.074219 356.824219 257.417969 C 349.191406 222.101562 331.285156 178.882812 317.972656 149.5625 C 317.675781 148.910156 317.382812 148.261719 317.089844 147.621094 C 316.792969 146.964844 316.5 146.324219 316.203125 145.683594 C 312.792969 138.25 309.75 131.863281 307.355469 126.9375 C 306.992188 126.183594 306.648438 125.480469 306.316406 124.796875 C 305.953125 124.046875 305.601562 123.335938 305.273438 122.671875 C 303.859375 119.792969 302.832031 117.757812 302.300781 116.714844 L 304.15625 116.46875 C 304.816406 117.839844 305.558594 119.257812 306.390625 120.667969 C 306.761719 121.304688 307.148438 121.941406 307.558594 122.574219 C 307.949219 123.175781 308.359375 123.773438 308.789062 124.367188 C 312.925781 130.136719 318.691406 135.265625 326.519531 136.632812 C 328.816406 139.554688 331.195312 142.527344 333.652344 145.558594 C 334.175781 146.203125 334.703125 146.847656 335.226562 147.492188 C 335.75 148.136719 336.28125 148.777344 336.8125 149.425781 C 355.28125 171.960938 377.164062 196.648438 394.96875 216.75 C 402.878906 225.675781 410.347656 234.101562 416.347656 241.015625 C 444.304688 273.25 443.871094 315.464844 442.390625 332.125 C 441.75 339.296875 443.132812 346.566406 446.390625 353.152344 C 458.695312 378.015625 460.140625 388.566406 452.121094 394.964844 Z M 249.109375 139.332031 L 249.109375 139.328125 C 248.960938 137.074219 250.257812 135.003906 252.332031 134.179688 C 252.820312 133.984375 253.316406 133.808594 253.808594 133.636719 C 254.007812 133.648438 254.199219 133.664062 254.402344 133.664062 C 254.527344 133.664062 254.660156 133.660156 254.789062 133.660156 C 257.117188 133.5625 259.792969 133.457031 262.375 133.363281 C 263.195312 133.335938 264.003906 133.308594 264.796875 133.285156 C 265.628906 133.257812 266.441406 133.234375 267.203125 133.207031 C 267.90625 133.191406 268.570312 133.175781 269.1875 133.160156 C 270.800781 133.609375 272.367188 134.164062 273.800781 134.796875 C 275.089844 135.363281 276.265625 135.984375 277.269531 136.632812 C 278.0625 137.152344 278.757812 137.683594 279.292969 138.21875 C 279.910156 138.835938 279.824219 139.226562 279.679688 139.578125 C 279.007812 141.226562 275.742188 143.140625 272.175781 143.566406 C 271.742188 143.617188 271.304688 143.652344 270.867188 143.660156 C 269.84375 143.667969 268.5625 143.695312 267.140625 143.734375 C 264.519531 143.808594 261.40625 143.914062 258.441406 144.03125 C 257.460938 144.066406 256.5 144.109375 255.582031 144.144531 C 255.214844 144.160156 254.859375 144.171875 254.511719 144.1875 C 253.964844 144.214844 253.4375 144.128906 252.933594 143.988281 C 250.863281 143.429688 249.257812 141.617188 249.109375 139.332031 Z M 252.449219 119.761719 C 253.210938 119.457031 253.984375 119.191406 254.753906 118.949219 C 259.398438 119.878906 265.109375 121.042969 268.683594 121.84375 C 269.054688 121.925781 269.414062 122.007812 269.738281 122.082031 C 270.015625 122.148438 270.304688 122.203125 270.59375 122.253906 C 271.257812 122.371094 271.929688 122.445312 272.605469 122.480469 C 272.902344 122.492188 273.195312 122.503906 273.488281 122.503906 C 274.761719 122.503906 276.003906 122.351562 277.1875 122.089844 C 277.984375 122.597656 278.683594 123.117188 279.238281 123.644531 C 279.292969 123.695312 279.355469 123.746094 279.410156 123.800781 C 280.03125 124.417969 279.941406 124.808594 279.800781 125.15625 C 279.570312 125.726562 279.03125 126.320312 278.285156 126.878906 C 276.585938 128.144531 273.792969 129.207031 270.984375 129.238281 C 270.574219 129.242188 270.117188 129.25 269.636719 129.257812 C 269.609375 129.257812 269.589844 129.257812 269.566406 129.257812 C 268.867188 129.273438 268.097656 129.292969 267.277344 129.316406 C 266.558594 129.332031 265.796875 129.355469 265.015625 129.382812 C 261.636719 129.488281 257.816406 129.636719 254.628906 129.765625 C 254.214844 129.785156 253.816406 129.742188 253.425781 129.667969 C 251.167969 129.234375 249.386719 127.335938 249.226562 124.914062 C 249.078125 122.65625 250.375 120.585938 252.449219 119.761719 Z M 250.496094 108.957031 C 250.886719 106.726562 252.632812 105.019531 254.84375 104.707031 C 256.40625 104.484375 257.960938 104.375 259.488281 104.375 C 260.292969 104.375 261.089844 104.414062 261.878906 104.472656 C 262.765625 104.820312 263.660156 105.171875 264.539062 105.515625 C 265.261719 105.796875 265.964844 106.078125 266.65625 106.347656 C 267.390625 106.640625 268.101562 106.921875 268.773438 107.195312 C 269.59375 107.519531 270.355469 107.828125 271.035156 108.109375 C 271.445312 108.277344 271.832031 108.4375 272.175781 108.582031 C 272.445312 108.699219 272.730469 108.78125 273.003906 108.882812 C 273.308594 108.988281 273.609375 109.105469 273.917969 109.191406 C 274.273438 109.433594 274.617188 109.675781 274.957031 109.917969 C 275.316406 110.183594 275.671875 110.449219 276.007812 110.71875 C 275.632812 112.617188 275.722656 114.246094 276.5 115.40625 C 276.648438 115.628906 276.84375 115.867188 277.089844 116.097656 C 277.578125 116.5625 278.28125 116.988281 279.277344 117.1875 C 278.851562 117.464844 278.332031 117.714844 277.734375 117.921875 C 277.652344 117.953125 277.5625 117.980469 277.476562 118.011719 C 276.621094 118.285156 275.636719 118.480469 274.59375 118.5625 C 274.328125 118.582031 274.054688 118.597656 273.785156 118.601562 C 273.523438 118.609375 273.265625 118.605469 273.003906 118.597656 C 272.597656 118.582031 272.1875 118.550781 271.78125 118.496094 C 271.386719 118.445312 271 118.378906 270.617188 118.292969 C 270.453125 118.253906 270.28125 118.214844 270.109375 118.171875 C 270.03125 118.15625 269.960938 118.140625 269.882812 118.125 C 269 117.921875 267.972656 117.699219 266.859375 117.464844 C 264.5625 116.972656 261.894531 116.421875 259.285156 115.890625 C 257.660156 115.558594 256.0625 115.238281 254.597656 114.949219 C 254.589844 114.945312 254.578125 114.941406 254.570312 114.9375 C 251.796875 114.371094 250.007812 111.75 250.496094 108.957031 Z M 255.453125 92.378906 C 256.195312 90.296875 258.132812 88.929688 260.300781 88.929688 C 260.355469 88.929688 260.40625 88.933594 260.460938 88.933594 C 261.59375 88.964844 262.710938 89.0625 263.8125 89.210938 C 264.777344 89.335938 265.726562 89.507812 266.65625 89.714844 C 267.058594 89.808594 267.464844 89.894531 267.859375 90.003906 C 268.425781 90.15625 269.007812 90.367188 269.589844 90.601562 C 273.070312 92 276.734375 94.726562 279.5 97.597656 C 280.066406 98.183594 280.585938 98.773438 281.0625 99.359375 C 281.082031 99.382812 281.101562 99.40625 281.125 99.429688 C 280.707031 100.109375 280.300781 100.792969 279.910156 101.472656 C 279.046875 102.988281 278.269531 104.496094 277.621094 105.945312 C 276.917969 105.882812 276.203125 105.765625 275.492188 105.589844 C 275.242188 105.527344 274.988281 105.457031 274.742188 105.378906 C 274.386719 105.265625 274.035156 105.144531 273.691406 105 C 273.378906 104.867188 273.035156 104.726562 272.675781 104.574219 C 272.027344 104.308594 271.316406 104.019531 270.546875 103.710938 C 270.089844 103.527344 269.613281 103.339844 269.128906 103.140625 C 268.492188 102.890625 267.839844 102.632812 267.171875 102.367188 C 266.566406 102.128906 265.945312 101.882812 265.320312 101.640625 C 264.46875 101.304688 263.609375 100.972656 262.761719 100.644531 C 261.273438 100.066406 259.816406 99.5 258.476562 98.984375 C 255.816406 97.957031 254.492188 95.054688 255.453125 92.378906 Z M 255.078125 77.710938 C 238.078125 70.515625 226.550781 63.992188 219.6875 59.632812 C 229.019531 59.210938 234.003906 50.449219 238.1875 43.046875 C 241.304688 37.539062 244.246094 32.34375 248.355469 30.472656 C 254.164062 27.835938 260.820312 29.84375 268.527344 32.171875 C 276.230469 34.492188 284.953125 37.125 293.980469 34.867188 C 302.988281 32.621094 311.414062 35.34375 320.332031 38.222656 C 327.746094 40.621094 335.410156 43.101562 344.160156 43.101562 C 353.527344 43.101562 359.078125 42.484375 362.371094 41.753906 C 356.089844 56.675781 334.808594 65.292969 324.171875 69.59375 C 314.660156 73.4375 308.132812 78.226562 304.679688 83.859375 C 301.59375 83.246094 299.054688 82.945312 297.042969 82.945312 C 299.703125 74.335938 305.722656 66.605469 315.085938 59.875 C 315.960938 59.246094 316.160156 58.027344 315.53125 57.152344 C 314.902344 56.285156 313.6875 56.082031 312.8125 56.714844 C 300.769531 65.375 295.058594 74.878906 292.832031 83.761719 C 292.511719 83.945312 292.230469 84.148438 292.023438 84.394531 C 291.949219 84.480469 289.363281 87.550781 286.277344 91.78125 C 285.289062 78.15625 281.019531 62.78125 269.765625 48.703125 C 269.097656 47.859375 267.871094 47.726562 267.027344 48.394531 C 266.1875 49.070312 266.050781 50.292969 266.722656 51.132812 C 278.269531 65.578125 282.082031 81.492188 282.578125 95.207031 C 278.875 91.253906 273.707031 87.550781 268.875 86.246094 C 267.875 85.976562 266.851562 85.765625 265.8125 85.585938 C 262.507812 81.933594 258.703125 79.242188 255.078125 77.710938 Z M 213.714844 54.785156 C 220.335938 46.945312 244.847656 18.582031 260.148438 9.859375 C 275.40625 1.171875 286.777344 14.015625 288.898438 16.679688 C 300.410156 31.121094 314.167969 29.050781 324.214844 27.539062 C 327.554688 27.035156 330.714844 26.558594 333.292969 26.730469 C 346.328125 27.589844 356.976562 34.445312 361.621094 37.953125 C 358.988281 38.539062 353.859375 39.207031 344.160156 39.207031 C 336.027344 39.207031 328.65625 36.828125 321.527344 34.523438 C 312.0625 31.464844 303.128906 28.570312 293.035156 31.09375 C 285.054688 33.089844 277.222656 30.730469 269.652344 28.445312 C 261.546875 26 253.886719 23.683594 246.746094 26.929688 C 241.476562 29.324219 238.082031 35.324219 234.796875 41.132812 C 229.507812 50.488281 224.886719 58.648438 213.714844 54.785156 Z M 295.136719 111.007812 C 296.304688 110.265625 297.414062 109.527344 298.417969 108.839844 C 299.210938 108.296875 299.941406 107.777344 300.582031 107.320312 C 301.019531 108.75 301.660156 110.636719 302.519531 112.757812 L 300.285156 113.054688 L 296.246094 113.582031 L 289.015625 114.53125 C 291.097656 113.476562 293.199219 112.238281 295.136719 111.007812 Z M 449.882812 351.425781 C 446.945312 345.484375 445.691406 338.929688 446.269531 332.464844 C 447.796875 315.316406 448.226562 271.828125 419.289062 238.46875 C 413.28125 231.539062 405.800781 223.101562 397.886719 214.171875 C 380.746094 194.828125 359.828125 171.214844 341.847656 149.425781 C 346.445312 149.46875 351.070312 149.707031 355.636719 150.167969 L 447.585938 159.457031 C 447.648438 159.464844 447.71875 159.46875 447.78125 159.46875 C 448.769531 159.46875 449.617188 158.71875 449.71875 157.714844 C 449.824219 156.648438 449.046875 155.695312 447.972656 155.585938 L 447.78125 155.566406 L 356.027344 146.296875 C 350.511719 145.742188 344.925781 145.484375 339.363281 145.519531 L 338.644531 145.523438 C 334.871094 140.902344 331.253906 136.382812 327.855469 132.023438 L 327.554688 132.898438 C 327.457031 132.863281 327.355469 132.832031 327.25 132.8125 C 326.734375 132.726562 326.234375 132.613281 325.738281 132.484375 C 324.542969 132.175781 323.410156 131.75 322.324219 131.242188 C 317.511719 128.96875 313.761719 124.875 310.929688 120.519531 C 310.523438 119.890625 310.128906 119.257812 309.757812 118.625 C 309.367188 117.953125 308.996094 117.285156 308.648438 116.617188 C 308.527344 116.386719 308.402344 116.15625 308.285156 115.929688 C 307.964844 115.304688 307.671875 114.691406 307.390625 114.082031 C 307.09375 113.453125 306.8125 112.832031 306.5625 112.230469 C 304.523438 107.457031 303.617188 103.726562 303.59375 103.628906 C 303.445312 102.988281 302.980469 102.464844 302.359375 102.242188 C 301.738281 102.023438 301.046875 102.125 300.523438 102.527344 C 299.484375 103.316406 298.332031 104.148438 297.125 104.984375 C 296.046875 105.734375 294.929688 106.484375 293.792969 107.214844 C 290.976562 109.027344 288.074219 110.695312 285.585938 111.851562 C 284.769531 112.230469 284.007812 112.550781 283.300781 112.800781 C 282.617188 113.039062 281.992188 113.21875 281.449219 113.316406 C 281.402344 113.324219 281.355469 113.328125 281.308594 113.335938 C 280.84375 113.410156 280.417969 113.4375 280.082031 113.386719 C 279.894531 113.355469 279.78125 113.304688 279.734375 113.242188 C 279.730469 113.234375 279.484375 112.808594 279.746094 111.484375 C 279.832031 111.039062 279.980469 110.492188 280.210938 109.820312 C 280.261719 109.683594 280.320312 109.53125 280.375 109.382812 C 280.554688 108.898438 280.773438 108.371094 281.046875 107.769531 C 281.351562 107.085938 281.730469 106.324219 282.179688 105.476562 C 282.25 105.34375 282.324219 105.207031 282.394531 105.074219 C 282.722656 104.476562 283.089844 103.832031 283.488281 103.148438 C 283.851562 102.535156 284.246094 101.878906 284.679688 101.191406 C 284.757812 101.066406 284.835938 100.941406 284.914062 100.816406 C 285.082031 100.550781 285.230469 100.308594 285.410156 100.035156 C 285.554688 99.808594 285.703125 99.582031 285.847656 99.359375 C 286 99.128906 286.148438 98.898438 286.300781 98.671875 C 286.375 98.5625 286.445312 98.457031 286.515625 98.351562 C 286.929688 97.726562 287.347656 97.117188 287.765625 96.515625 C 289.164062 94.5 290.535156 92.632812 291.710938 91.078125 C 293.242188 89.0625 294.4375 87.570312 294.925781 86.992188 C 295.148438 86.878906 295.546875 86.808594 296.074219 86.78125 C 297.410156 86.707031 299.710938 86.921875 302.914062 87.523438 C 303.523438 87.636719 304.160156 87.757812 304.835938 87.902344 C 305.453125 88.03125 306.089844 88.175781 306.761719 88.332031 C 309.9375 89.066406 313.710938 90.09375 318.058594 91.464844 C 319.441406 91.902344 320.722656 92.355469 321.910156 92.816406 C 322.539062 93.066406 323.144531 93.316406 323.722656 93.566406 C 326.265625 94.671875 328.320312 95.808594 329.964844 96.898438 C 334.917969 100.183594 336.195312 103.03125 336.242188 103.140625 C 336.460938 103.691406 336.902344 104.082031 337.425781 104.261719 C 337.839844 104.402344 338.300781 104.417969 338.742188 104.25 C 339.75 103.871094 340.261719 102.75 339.882812 101.746094 C 339.839844 101.640625 339.519531 100.835938 338.636719 99.617188 C 350.058594 102.773438 361.835938 104.375 373.8125 104.375 L 447.78125 104.375 C 448.855469 104.375 449.726562 103.503906 449.726562 102.429688 C 449.726562 101.351562 448.855469 100.484375 447.78125 100.484375 L 373.8125 100.484375 C 359.382812 100.484375 345.25 98.09375 331.703125 93.382812 C 328.707031 91.453125 324.664062 89.46875 319.230469 87.753906 C 315.328125 86.519531 311.832031 85.523438 308.742188 84.765625 C 311.921875 80.335938 317.578125 76.457031 325.632812 73.199219 C 337.679688 68.332031 362.710938 58.207031 367.324219 39.164062 C 367.324219 39.160156 367.324219 39.160156 367.324219 39.160156 C 367.339844 39.113281 367.351562 39.0625 367.367188 39.015625 C 367.375 38.992188 367.371094 38.96875 367.375 38.945312 C 367.398438 38.820312 367.410156 38.699219 367.410156 38.578125 C 367.410156 38.542969 367.414062 38.503906 367.410156 38.46875 C 367.402344 38.316406 367.378906 38.164062 367.335938 38.023438 C 367.328125 37.992188 367.3125 37.964844 367.304688 37.9375 C 367.265625 37.820312 367.214844 37.710938 367.152344 37.601562 C 367.128906 37.5625 367.101562 37.523438 367.078125 37.484375 C 367.011719 37.386719 366.933594 37.289062 366.84375 37.207031 C 366.828125 37.183594 366.816406 37.160156 366.792969 37.140625 C 366.21875 36.605469 352.480469 24.09375 333.550781 22.847656 C 330.546875 22.652344 327.191406 23.15625 323.632812 23.6875 C 313.519531 25.210938 302.054688 26.9375 291.945312 14.253906 C 285.121094 5.691406 272.195312 -1.480469 258.21875 6.484375 C 239.863281 16.941406 210.25 52.832031 208.996094 54.355469 C 208.988281 54.367188 208.980469 54.382812 208.972656 54.398438 C 208.929688 54.449219 208.894531 54.507812 208.863281 54.558594 C 208.824219 54.617188 208.792969 54.671875 208.761719 54.734375 C 208.753906 54.746094 208.742188 54.761719 208.734375 54.777344 C 208.71875 54.816406 208.707031 54.859375 208.691406 54.898438 C 208.667969 54.964844 208.640625 55.027344 208.625 55.09375 C 208.609375 55.152344 208.601562 55.214844 208.589844 55.273438 C 208.582031 55.339844 208.570312 55.398438 208.566406 55.464844 C 208.5625 55.523438 208.566406 55.589844 208.566406 55.648438 C 208.566406 55.714844 208.566406 55.773438 208.578125 55.835938 C 208.585938 55.894531 208.597656 55.957031 208.613281 56.015625 C 208.625 56.078125 208.640625 56.140625 208.660156 56.199219 C 208.679688 56.253906 208.703125 56.3125 208.726562 56.363281 C 208.75 56.421875 208.777344 56.484375 208.8125 56.542969 C 208.84375 56.59375 208.875 56.648438 208.910156 56.695312 C 208.945312 56.75 208.980469 56.800781 209.023438 56.847656 C 209.066406 56.898438 209.117188 56.945312 209.167969 56.996094 C 209.199219 57.023438 209.21875 57.054688 209.25 57.078125 C 209.785156 57.527344 222.675781 68.226562 253.554688 81.292969 C 255.578125 82.148438 257.660156 83.425781 259.65625 85.0625 C 256.074219 85.308594 253.015625 87.636719 251.78125 91.066406 C 250.496094 94.65625 251.566406 98.472656 254.230469 100.867188 C 250.375 101.441406 247.335938 104.414062 246.65625 108.285156 C 246.078125 111.597656 247.335938 114.769531 249.714844 116.78125 C 246.835938 118.5 245.113281 121.710938 245.339844 125.167969 C 245.515625 127.871094 246.832031 130.210938 248.796875 131.746094 C 246.40625 133.550781 245.015625 136.464844 245.21875 139.585938 C 245.429688 142.753906 247.203125 145.417969 249.75 146.878906 C 249.117188 147.421875 248.46875 147.972656 247.800781 148.519531 C 216.765625 174.152344 124.695312 255.351562 120.214844 268.921875 C 116.949219 278.8125 114.652344 287.859375 117.140625 306.550781 C 117.929688 312.46875 117.261719 318.503906 115.199219 324 C 111.285156 334.425781 103.996094 354.625 99.121094 372.730469 C 90.972656 402.984375 94.261719 409.648438 97.441406 412.023438 C 105.074219 417.730469 145.980469 423.058594 162.980469 417.5625 C 170.609375 415.09375 178.988281 415.316406 186.570312 418.195312 C 206.703125 425.835938 234.261719 433.707031 251.25 427.828125 C 252.050781 427.550781 252.808594 427.28125 253.535156 427.023438 C 265.21875 422.90625 268.359375 421.800781 309.671875 430.28125 C 310.617188 430.476562 311.746094 430.730469 313.054688 431.027344 C 320.691406 432.757812 334.519531 435.890625 352.378906 435.890625 C 379.601562 435.890625 416.203125 428.609375 454.554688 398.003906 C 465.574219 389.210938 461.1875 374.265625 449.882812 351.425781 " fill-opacity="1" fill-rule="nonzero"/></g></svg>