<svg xmlns="http://www.w3.org/2000/svg" xmlns:xlink="http://www.w3.org/1999/xlink" width="800" zoomAndPan="magnify" viewBox="0 0 600 449.999984" height="600" preserveAspectRatio="xMidYMid meet" version="1.0"><defs><clipPath id="id1"><path d="M 116.675781 262 L 491.675781 262 L 491.675781 450 L 116.675781 450 Z M 116.675781 262 " clip-rule="nonzero"/></clipPath></defs><path fill="#000000" d="M 146.757812 375 L 161.75 375 L 161.75 450 L 146.757812 450 Z M 146.757812 375 " fill-opacity="1" fill-rule="nonzero"/><g clip-path="url(#id1)"><path fill="#000000" d="M 131.765625 375 C 131.765625 374.261719 131.800781 373.527344 131.871094 372.792969 C 131.945312 372.0625 132.050781 371.332031 132.195312 370.609375 C 132.339844 369.886719 132.519531 369.171875 132.730469 368.46875 C 132.945312 367.761719 133.195312 367.070312 133.476562 366.390625 C 133.757812 365.707031 134.070312 365.042969 134.417969 364.394531 C 134.765625 363.742188 135.144531 363.113281 135.554688 362.5 C 135.964844 361.886719 136.402344 361.296875 136.867188 360.726562 C 137.335938 360.15625 137.828125 359.609375 138.351562 359.089844 C 138.871094 358.570312 139.417969 358.074219 139.984375 357.605469 C 140.554688 357.140625 141.144531 356.703125 141.757812 356.292969 C 142.371094 355.882812 143 355.503906 143.652344 355.15625 C 144.300781 354.808594 144.964844 354.496094 145.648438 354.210938 C 146.328125 353.929688 147.019531 353.683594 147.722656 353.46875 C 148.429688 353.253906 149.144531 353.074219 149.867188 352.933594 C 150.585938 352.789062 151.316406 352.679688 152.046875 352.609375 C 152.78125 352.535156 153.515625 352.5 154.253906 352.5 L 236.710938 352.5 C 237.90625 352.5 239.039062 352.230469 240.105469 351.691406 L 270.039062 336.480469 C 270.949219 336.015625 271.734375 335.394531 272.394531 334.613281 L 304.628906 296.09375 L 316.492188 307.964844 L 284.011719 346.964844 L 232.324219 383.902344 C 231.347656 384.609375 230.582031 385.5 230.035156 386.574219 C 229.484375 387.652344 229.210938 388.792969 229.214844 390 L 229.214844 450 L 244.207031 450 L 244.207031 393.863281 L 293.539062 358.613281 C 294.066406 358.234375 294.535156 357.800781 294.949219 357.308594 L 304.175781 346.214844 L 313.40625 357.300781 C 313.820312 357.792969 314.289062 358.230469 314.816406 358.605469 L 364.148438 393.863281 L 364.148438 450 L 379.140625 450 L 379.140625 390 C 379.140625 388.789062 378.863281 387.644531 378.308594 386.566406 C 377.753906 385.488281 376.984375 384.597656 376 383.894531 L 324.273438 346.957031 L 313.921875 334.5 L 324.867188 321.359375 L 335.976562 334.597656 C 336.628906 335.378906 337.410156 336 338.324219 336.457031 L 368.234375 351.683594 C 369.304688 352.230469 370.441406 352.5 371.644531 352.5 L 454.101562 352.5 C 454.839844 352.5 455.574219 352.535156 456.308594 352.609375 C 457.039062 352.679688 457.765625 352.789062 458.488281 352.933594 C 459.210938 353.074219 459.925781 353.253906 460.628906 353.46875 C 461.335938 353.683594 462.027344 353.929688 462.707031 354.210938 C 463.390625 354.496094 464.054688 354.808594 464.703125 355.15625 C 465.351562 355.503906 465.984375 355.882812 466.597656 356.292969 C 467.210938 356.703125 467.800781 357.140625 468.371094 357.605469 C 468.9375 358.074219 469.484375 358.570312 470.003906 359.089844 C 470.523438 359.609375 471.019531 360.15625 471.488281 360.726562 C 471.953125 361.296875 472.390625 361.886719 472.800781 362.5 C 473.210938 363.113281 473.589844 363.742188 473.9375 364.394531 C 474.28125 365.042969 474.597656 365.707031 474.878906 366.390625 C 475.160156 367.070312 475.410156 367.761719 475.621094 368.46875 C 475.835938 369.171875 476.015625 369.886719 476.160156 370.609375 C 476.304688 371.332031 476.410156 372.0625 476.484375 372.792969 C 476.554688 373.527344 476.589844 374.261719 476.589844 375 L 476.589844 450 L 491.582031 450 L 491.582031 375 C 491.582031 373.773438 491.519531 372.546875 491.398438 371.324219 C 491.277344 370.105469 491.097656 368.890625 490.855469 367.6875 C 490.617188 366.484375 490.316406 365.292969 489.960938 364.121094 C 489.601562 362.945312 489.1875 361.789062 488.71875 360.65625 C 488.25 359.523438 487.722656 358.414062 487.144531 357.332031 C 486.566406 356.25 485.933594 355.199219 485.253906 354.175781 C 484.570312 353.15625 483.839844 352.171875 483.0625 351.222656 C 482.285156 350.273438 481.460938 349.363281 480.59375 348.496094 C 479.726562 347.628906 478.816406 346.804688 477.867188 346.027344 C 476.921875 345.246094 475.9375 344.515625 474.914062 343.832031 C 473.894531 343.152344 472.84375 342.519531 471.761719 341.941406 C 470.679688 341.363281 469.574219 340.835938 468.4375 340.367188 C 467.304688 339.894531 466.152344 339.480469 464.976562 339.125 C 463.804688 338.765625 462.613281 338.46875 461.410156 338.226562 C 460.207031 337.988281 458.996094 337.804688 457.773438 337.683594 C 456.554688 337.5625 455.328125 337.5 454.101562 337.5 L 440.25 337.5 C 441.4375 336.667969 442.582031 335.777344 443.675781 334.824219 C 444.773438 333.871094 445.816406 332.863281 446.804688 331.800781 C 447.792969 330.742188 448.722656 329.628906 449.59375 328.46875 C 450.46875 327.308594 451.277344 326.105469 452.019531 324.859375 C 452.765625 323.613281 453.441406 322.332031 454.050781 321.011719 C 454.660156 319.695312 455.199219 318.351562 455.667969 316.976562 C 456.136719 315.601562 456.527344 314.207031 456.847656 312.789062 C 457.167969 311.375 457.414062 309.945312 457.582031 308.503906 C 457.753906 307.0625 457.847656 305.613281 457.863281 304.164062 C 457.878906 302.710938 457.820312 301.261719 457.683594 299.816406 C 457.546875 298.371094 457.335938 296.9375 457.046875 295.511719 C 456.761719 294.089844 456.398438 292.6875 455.964844 291.300781 C 455.527344 289.917969 455.019531 288.558594 454.441406 287.226562 C 453.863281 285.894531 453.214844 284.597656 452.5 283.335938 C 451.785156 282.074219 451.003906 280.851562 450.160156 279.671875 C 449.3125 278.492188 448.410156 277.359375 447.445312 276.273438 C 446.480469 275.1875 445.460938 274.15625 444.390625 273.179688 C 443.316406 272.203125 442.195312 271.285156 441.023438 270.425781 C 439.855469 269.566406 438.640625 268.773438 437.386719 268.042969 C 436.132812 267.3125 434.84375 266.648438 433.523438 266.054688 C 432.199219 265.460938 430.847656 264.9375 429.46875 264.484375 C 428.089844 264.03125 426.691406 263.652344 425.269531 263.351562 C 423.851562 263.046875 422.421875 262.816406 420.976562 262.664062 C 419.535156 262.511719 418.085938 262.4375 416.636719 262.4375 C 415.183594 262.4375 413.738281 262.511719 412.296875 262.664062 C 410.851562 262.816406 409.421875 263.046875 408.003906 263.351562 C 406.582031 263.652344 405.183594 264.03125 403.804688 264.484375 C 402.425781 264.9375 401.074219 265.460938 399.75 266.054688 C 398.425781 266.648438 397.136719 267.3125 395.882812 268.042969 C 394.628906 268.773438 393.417969 269.566406 392.25 270.425781 C 391.078125 271.285156 389.957031 272.203125 388.882812 273.179688 C 387.8125 274.15625 386.792969 275.1875 385.828125 276.273438 C 384.863281 277.359375 383.957031 278.492188 383.113281 279.671875 C 382.269531 280.851562 381.488281 282.074219 380.773438 283.335938 C 380.058594 284.597656 379.410156 285.894531 378.832031 287.226562 C 378.25 288.558594 377.746094 289.917969 377.308594 291.300781 C 376.875 292.6875 376.511719 294.089844 376.222656 295.515625 C 375.9375 296.9375 375.726562 298.371094 375.589844 299.816406 C 375.453125 301.261719 375.394531 302.710938 375.410156 304.164062 C 375.425781 305.613281 375.519531 307.0625 375.6875 308.503906 C 375.859375 309.945312 376.101562 311.375 376.421875 312.789062 C 376.742188 314.207031 377.136719 315.601562 377.605469 316.976562 C 378.074219 318.351562 378.613281 319.695312 379.222656 321.011719 C 379.832031 322.332031 380.507812 323.613281 381.253906 324.859375 C 381.996094 326.105469 382.804688 327.308594 383.675781 328.46875 C 384.550781 329.628906 385.480469 330.742188 386.46875 331.800781 C 387.457031 332.863281 388.5 333.871094 389.597656 334.824219 C 390.691406 335.777344 391.832031 336.667969 393.023438 337.5 L 373.433594 337.5 L 346.492188 323.78125 L 333.929688 308.78125 C 334.167969 307.585938 334.113281 306.402344 333.765625 305.230469 C 333.417969 304.0625 332.820312 303.039062 331.964844 302.167969 L 309.476562 279.667969 C 308.722656 278.941406 307.859375 278.386719 306.882812 278.011719 C 305.90625 277.636719 304.894531 277.464844 303.847656 277.5 C 302.796875 277.546875 301.800781 277.800781 300.855469 278.265625 C 299.914062 278.730469 299.105469 279.363281 298.429688 280.171875 L 261.882812 323.789062 L 234.917969 337.5 L 215.363281 337.5 C 216.550781 336.667969 217.695312 335.777344 218.789062 334.824219 C 219.886719 333.871094 220.925781 332.863281 221.917969 331.800781 C 222.90625 330.742188 223.835938 329.628906 224.707031 328.46875 C 225.578125 327.308594 226.386719 326.105469 227.132812 324.859375 C 227.878906 323.613281 228.554688 322.332031 229.164062 321.011719 C 229.773438 319.695312 230.3125 318.351562 230.78125 316.976562 C 231.246094 315.601562 231.640625 314.207031 231.960938 312.789062 C 232.28125 311.375 232.527344 309.945312 232.695312 308.503906 C 232.867188 307.0625 232.957031 305.613281 232.976562 304.164062 C 232.992188 302.710938 232.933594 301.261719 232.796875 299.816406 C 232.660156 298.371094 232.449219 296.9375 232.160156 295.511719 C 231.875 294.089844 231.511719 292.6875 231.078125 291.300781 C 230.640625 289.917969 230.132812 288.558594 229.554688 287.226562 C 228.976562 285.894531 228.328125 284.597656 227.613281 283.335938 C 226.894531 282.074219 226.117188 280.851562 225.269531 279.671875 C 224.425781 278.492188 223.523438 277.359375 222.558594 276.273438 C 221.59375 275.1875 220.574219 274.15625 219.5 273.179688 C 218.429688 272.203125 217.308594 271.285156 216.136719 270.425781 C 214.964844 269.566406 213.753906 268.773438 212.5 268.042969 C 211.246094 267.3125 209.957031 266.648438 208.632812 266.054688 C 207.308594 265.460938 205.960938 264.9375 204.578125 264.484375 C 203.199219 264.03125 201.800781 263.652344 200.382812 263.351562 C 198.964844 263.046875 197.53125 262.816406 196.089844 262.664062 C 194.648438 262.511719 193.199219 262.4375 191.75 262.4375 C 190.296875 262.4375 188.851562 262.511719 187.40625 262.664062 C 185.964844 262.816406 184.535156 263.046875 183.113281 263.351562 C 181.695312 263.652344 180.296875 264.03125 178.917969 264.484375 C 177.539062 264.9375 176.1875 265.460938 174.863281 266.054688 C 173.539062 266.648438 172.25 267.3125 170.996094 268.042969 C 169.742188 268.773438 168.53125 269.566406 167.359375 270.425781 C 166.191406 271.285156 165.070312 272.203125 163.996094 273.179688 C 162.921875 274.15625 161.90625 275.1875 160.941406 276.273438 C 159.976562 277.359375 159.070312 278.492188 158.226562 279.671875 C 157.382812 280.851562 156.601562 282.074219 155.886719 283.335938 C 155.167969 284.597656 154.523438 285.894531 153.941406 287.226562 C 153.363281 288.558594 152.855469 289.917969 152.421875 291.300781 C 151.984375 292.6875 151.625 294.089844 151.335938 295.515625 C 151.050781 296.9375 150.835938 298.371094 150.703125 299.816406 C 150.566406 301.261719 150.503906 302.710938 150.523438 304.164062 C 150.539062 305.613281 150.632812 307.0625 150.800781 308.503906 C 150.972656 309.945312 151.214844 311.375 151.535156 312.789062 C 151.855469 314.207031 152.25 315.601562 152.71875 316.976562 C 153.183594 318.351562 153.722656 319.695312 154.332031 321.011719 C 154.941406 322.332031 155.621094 323.613281 156.363281 324.859375 C 157.109375 326.105469 157.917969 327.308594 158.789062 328.46875 C 159.660156 329.628906 160.59375 330.742188 161.582031 331.800781 C 162.570312 332.863281 163.613281 333.871094 164.707031 334.824219 C 165.804688 335.777344 166.945312 336.667969 168.136719 337.5 L 154.253906 337.5 C 153.027344 337.5 151.800781 337.5625 150.582031 337.683594 C 149.359375 337.804688 148.148438 337.988281 146.945312 338.226562 C 145.738281 338.46875 144.550781 338.765625 143.378906 339.125 C 142.203125 339.480469 141.050781 339.894531 139.917969 340.367188 C 138.78125 340.835938 137.675781 341.363281 136.59375 341.941406 C 135.511719 342.519531 134.460938 343.152344 133.441406 343.832031 C 132.417969 344.515625 131.433594 345.246094 130.488281 346.027344 C 129.539062 346.804688 128.628906 347.628906 127.761719 348.496094 C 126.894531 349.363281 126.070312 350.273438 125.292969 351.222656 C 124.515625 352.171875 123.785156 353.15625 123.101562 354.175781 C 122.417969 355.199219 121.789062 356.25 121.210938 357.332031 C 120.632812 358.414062 120.105469 359.523438 119.636719 360.65625 C 119.167969 361.789062 118.753906 362.945312 118.394531 364.121094 C 118.039062 365.292969 117.738281 366.484375 117.5 367.6875 C 117.257812 368.890625 117.078125 370.105469 116.957031 371.324219 C 116.835938 372.546875 116.773438 373.773438 116.769531 375 L 116.769531 450 L 131.765625 450 Z M 390.382812 303.75 C 390.382812 302.890625 390.425781 302.03125 390.511719 301.175781 C 390.59375 300.320312 390.722656 299.472656 390.886719 298.628906 C 391.054688 297.785156 391.265625 296.953125 391.515625 296.128906 C 391.761719 295.308594 392.054688 294.5 392.382812 293.703125 C 392.710938 292.910156 393.078125 292.132812 393.484375 291.375 C 393.886719 290.617188 394.328125 289.882812 394.804688 289.167969 C 395.285156 288.453125 395.792969 287.761719 396.339844 287.097656 C 396.886719 286.433594 397.460938 285.796875 398.070312 285.1875 C 398.675781 284.582031 399.3125 284.003906 399.976562 283.457031 C 400.640625 282.914062 401.332031 282.402344 402.042969 281.925781 C 402.757812 281.445312 403.496094 281.003906 404.253906 280.601562 C 405.011719 280.195312 405.785156 279.828125 406.582031 279.5 C 407.375 279.167969 408.183594 278.878906 409.003906 278.628906 C 409.828125 278.378906 410.660156 278.171875 411.503906 278.003906 C 412.34375 277.835938 413.195312 277.710938 414.050781 277.625 C 414.90625 277.542969 415.761719 277.5 416.621094 277.5 C 417.480469 277.5 418.339844 277.542969 419.191406 277.625 C 420.046875 277.710938 420.898438 277.835938 421.738281 278.003906 C 422.582031 278.171875 423.414062 278.378906 424.238281 278.628906 C 425.058594 278.878906 425.867188 279.167969 426.660156 279.5 C 427.457031 279.828125 428.230469 280.195312 428.988281 280.601562 C 429.746094 281.003906 430.484375 281.445312 431.199219 281.925781 C 431.914062 282.402344 432.601562 282.914062 433.265625 283.457031 C 433.929688 284.003906 434.566406 284.582031 435.171875 285.1875 C 435.78125 285.796875 436.359375 286.433594 436.902344 287.097656 C 437.449219 287.761719 437.960938 288.453125 438.4375 289.167969 C 438.914062 289.882812 439.355469 290.617188 439.761719 291.375 C 440.164062 292.132812 440.53125 292.910156 440.859375 293.703125 C 441.191406 294.5 441.480469 295.308594 441.726562 296.128906 C 441.976562 296.953125 442.1875 297.785156 442.355469 298.628906 C 442.523438 299.472656 442.648438 300.320312 442.730469 301.175781 C 442.816406 302.03125 442.859375 302.890625 442.859375 303.75 C 442.859375 304.609375 442.816406 305.46875 442.730469 306.324219 C 442.648438 307.179688 442.523438 308.027344 442.355469 308.871094 C 442.1875 309.714844 441.976562 310.546875 441.726562 311.371094 C 441.480469 312.191406 441.191406 313 440.859375 313.796875 C 440.53125 314.589844 440.164062 315.367188 439.761719 316.125 C 439.355469 316.882812 438.914062 317.617188 438.4375 318.332031 C 437.960938 319.046875 437.449219 319.738281 436.902344 320.402344 C 436.359375 321.066406 435.78125 321.703125 435.171875 322.3125 C 434.566406 322.917969 433.929688 323.496094 433.265625 324.042969 C 432.601562 324.585938 431.914062 325.097656 431.199219 325.574219 C 430.484375 326.054688 429.746094 326.496094 428.988281 326.902344 C 428.230469 327.304688 427.457031 327.671875 426.660156 328 C 425.867188 328.332031 425.058594 328.621094 424.238281 328.871094 C 423.414062 329.121094 422.582031 329.328125 421.738281 329.496094 C 420.898438 329.664062 420.046875 329.789062 419.191406 329.875 C 418.339844 329.957031 417.480469 330 416.621094 330 C 415.761719 330 414.90625 329.957031 414.050781 329.875 C 413.195312 329.789062 412.34375 329.664062 411.503906 329.496094 C 410.660156 329.328125 409.828125 329.121094 409.003906 328.871094 C 408.183594 328.621094 407.375 328.332031 406.582031 328 C 405.785156 327.671875 405.011719 327.304688 404.253906 326.902344 C 403.496094 326.496094 402.757812 326.054688 402.042969 325.574219 C 401.332031 325.097656 400.640625 324.585938 399.976562 324.042969 C 399.3125 323.496094 398.675781 322.917969 398.070312 322.3125 C 397.460938 321.703125 396.886719 321.066406 396.339844 320.402344 C 395.792969 319.738281 395.285156 319.046875 394.804688 318.332031 C 394.328125 317.617188 393.886719 316.882812 393.484375 316.125 C 393.078125 315.367188 392.710938 314.589844 392.382812 313.796875 C 392.054688 313 391.761719 312.191406 391.515625 311.371094 C 391.265625 310.546875 391.054688 309.714844 390.886719 308.871094 C 390.722656 308.027344 390.59375 307.179688 390.511719 306.324219 C 390.425781 305.46875 390.382812 304.609375 390.382812 303.75 Z M 165.496094 303.75 C 165.496094 302.890625 165.539062 302.03125 165.625 301.175781 C 165.707031 300.320312 165.832031 299.472656 166 298.628906 C 166.167969 297.785156 166.378906 296.953125 166.625 296.128906 C 166.875 295.308594 167.164062 294.5 167.492188 293.703125 C 167.824219 292.910156 168.191406 292.132812 168.59375 291.375 C 169 290.617188 169.441406 289.882812 169.917969 289.167969 C 170.394531 288.453125 170.90625 287.761719 171.453125 287.097656 C 171.996094 286.433594 172.574219 285.796875 173.179688 285.1875 C 173.789062 284.582031 174.425781 284.003906 175.089844 283.457031 C 175.753906 282.914062 176.441406 282.402344 177.15625 281.925781 C 177.871094 281.445312 178.609375 281.003906 179.367188 280.601562 C 180.125 280.195312 180.898438 279.828125 181.695312 279.5 C 182.488281 279.167969 183.296875 278.878906 184.117188 278.628906 C 184.941406 278.378906 185.773438 278.171875 186.617188 278.003906 C 187.457031 277.835938 188.308594 277.710938 189.164062 277.625 C 190.015625 277.542969 190.875 277.5 191.734375 277.5 C 192.59375 277.5 193.449219 277.542969 194.304688 277.625 C 195.160156 277.710938 196.007812 277.835938 196.851562 278.003906 C 197.695312 278.171875 198.527344 278.378906 199.351562 278.628906 C 200.171875 278.878906 200.980469 279.167969 201.773438 279.5 C 202.566406 279.828125 203.34375 280.195312 204.101562 280.601562 C 204.859375 281.003906 205.597656 281.445312 206.308594 281.925781 C 207.023438 282.402344 207.714844 282.914062 208.378906 283.457031 C 209.042969 284.003906 209.679688 284.582031 210.285156 285.1875 C 210.894531 285.796875 211.46875 286.433594 212.015625 287.097656 C 212.558594 287.761719 213.070312 288.453125 213.550781 289.167969 C 214.027344 289.882812 214.46875 290.617188 214.871094 291.375 C 215.277344 292.132812 215.644531 292.910156 215.972656 293.703125 C 216.300781 294.5 216.589844 295.308594 216.839844 296.128906 C 217.089844 296.953125 217.300781 297.785156 217.464844 298.628906 C 217.632812 299.472656 217.761719 300.320312 217.84375 301.175781 C 217.929688 302.03125 217.972656 302.890625 217.972656 303.75 C 217.972656 304.609375 217.929688 305.46875 217.84375 306.324219 C 217.761719 307.179688 217.632812 308.027344 217.464844 308.871094 C 217.300781 309.714844 217.089844 310.546875 216.839844 311.371094 C 216.589844 312.191406 216.300781 313 215.972656 313.796875 C 215.644531 314.589844 215.277344 315.367188 214.871094 316.125 C 214.46875 316.882812 214.027344 317.617188 213.550781 318.332031 C 213.070312 319.046875 212.558594 319.738281 212.015625 320.402344 C 211.46875 321.066406 210.894531 321.703125 210.285156 322.3125 C 209.679688 322.917969 209.042969 323.496094 208.378906 324.042969 C 207.714844 324.585938 207.023438 325.097656 206.308594 325.574219 C 205.597656 326.054688 204.859375 326.496094 204.101562 326.902344 C 203.34375 327.304688 202.566406 327.671875 201.773438 328 C 200.980469 328.332031 200.171875 328.621094 199.351562 328.871094 C 198.527344 329.121094 197.695312 329.328125 196.851562 329.496094 C 196.007812 329.664062 195.160156 329.789062 194.304688 329.875 C 193.449219 329.957031 192.59375 330 191.734375 330 C 190.875 330 190.015625 329.957031 189.164062 329.875 C 188.308594 329.789062 187.457031 329.664062 186.617188 329.496094 C 185.773438 329.328125 184.941406 329.121094 184.117188 328.871094 C 183.296875 328.621094 182.488281 328.332031 181.695312 328 C 180.898438 327.671875 180.125 327.304688 179.367188 326.902344 C 178.609375 326.496094 177.871094 326.054688 177.15625 325.574219 C 176.441406 325.097656 175.753906 324.585938 175.089844 324.042969 C 174.425781 323.496094 173.789062 322.917969 173.179688 322.3125 C 172.574219 321.703125 171.996094 321.066406 171.453125 320.402344 C 170.90625 319.738281 170.394531 319.046875 169.917969 318.332031 C 169.441406 317.617188 169 316.882812 168.59375 316.125 C 168.191406 315.367188 167.824219 314.589844 167.492188 313.796875 C 167.164062 313 166.875 312.191406 166.625 311.371094 C 166.378906 310.546875 166.167969 309.714844 166 308.871094 C 165.832031 308.027344 165.707031 307.179688 165.625 306.324219 C 165.539062 305.46875 165.496094 304.609375 165.496094 303.75 Z M 165.496094 303.75 " fill-opacity="1" fill-rule="nonzero"/></g><path fill="#000000" d="M 446.605469 375 L 461.597656 375 L 461.597656 450 L 446.605469 450 Z M 446.605469 375 " fill-opacity="1" fill-rule="nonzero"/><path fill="#000000" d="M 193.628906 145.335938 L 186.636719 149.191406 C 185.503906 149.804688 184.449219 150.523438 183.464844 151.351562 C 182.480469 152.183594 181.589844 153.101562 180.792969 154.113281 C 179.996094 155.121094 179.3125 156.203125 178.734375 157.351562 C 178.160156 158.503906 177.703125 159.699219 177.371094 160.941406 C 177.042969 162.152344 176.84375 163.382812 176.765625 164.636719 C 176.691406 165.886719 176.742188 167.132812 176.917969 168.375 C 177.097656 169.613281 177.394531 170.824219 177.820312 172.003906 C 178.242188 173.183594 178.78125 174.308594 179.433594 175.378906 L 198.757812 207.375 C 199.089844 207.910156 199.449219 208.425781 199.832031 208.925781 C 200.214844 209.425781 200.617188 209.910156 201.046875 210.371094 C 201.472656 210.832031 201.921875 211.273438 202.394531 211.691406 C 202.863281 212.113281 203.351562 212.507812 203.859375 212.878906 C 204.367188 213.253906 204.890625 213.601562 205.429688 213.925781 C 205.96875 214.25 206.523438 214.546875 207.09375 214.816406 C 207.660156 215.085938 208.242188 215.332031 208.832031 215.546875 C 209.421875 215.761719 210.023438 215.949219 210.632812 216.109375 C 211.242188 216.265625 211.855469 216.394531 212.480469 216.496094 C 213.101562 216.597656 213.726562 216.667969 214.351562 216.707031 C 214.980469 216.75 215.609375 216.761719 216.238281 216.742188 C 216.867188 216.722656 217.496094 216.675781 218.121094 216.597656 C 218.746094 216.519531 219.363281 216.414062 219.980469 216.277344 C 220.59375 216.140625 221.199219 215.972656 221.796875 215.78125 C 222.398438 215.585938 222.984375 215.363281 223.5625 215.113281 C 224.140625 214.863281 224.707031 214.585938 225.257812 214.28125 L 232.3125 210.390625 C 232.765625 210.164062 233.238281 210.007812 233.738281 209.917969 C 234.234375 209.828125 234.734375 209.808594 235.238281 209.863281 C 235.738281 209.917969 236.226562 210.042969 236.691406 210.234375 C 237.160156 210.425781 237.589844 210.679688 237.984375 210.996094 C 245.492188 216.496094 253.5625 220.972656 262.199219 224.429688 C 262.617188 224.558594 263.011719 224.75 263.375 224.992188 C 263.742188 225.238281 264.0625 225.53125 264.34375 225.871094 C 264.621094 226.210938 264.84375 226.585938 265.015625 226.988281 C 265.183594 227.394531 265.292969 227.816406 265.339844 228.253906 L 265.339844 235.972656 C 265.347656 236.605469 265.390625 237.234375 265.460938 237.859375 C 265.53125 238.488281 265.632812 239.109375 265.765625 239.726562 C 265.898438 240.34375 266.058594 240.953125 266.25 241.554688 C 266.441406 242.15625 266.664062 242.746094 266.914062 243.324219 C 267.164062 243.90625 267.441406 244.46875 267.746094 245.023438 C 268.050781 245.574219 268.382812 246.113281 268.738281 246.632812 C 269.097656 247.152344 269.476562 247.652344 269.882812 248.136719 C 270.292969 248.617188 270.71875 249.078125 271.171875 249.519531 C 271.625 249.960938 272.097656 250.378906 272.589844 250.769531 C 273.082031 251.164062 273.59375 251.535156 274.121094 251.878906 C 274.648438 252.222656 275.195312 252.539062 275.753906 252.832031 C 276.3125 253.121094 276.886719 253.382812 277.472656 253.617188 C 278.058594 253.851562 278.652344 254.058594 279.257812 254.234375 C 279.867188 254.410156 280.476562 254.554688 281.097656 254.671875 C 281.71875 254.789062 282.34375 254.875 282.972656 254.929688 C 283.597656 254.984375 284.230469 255.007812 284.859375 255 L 323.496094 255 C 324.125 255.007812 324.757812 254.984375 325.386719 254.929688 C 326.015625 254.878906 326.640625 254.792969 327.261719 254.675781 C 327.882812 254.5625 328.496094 254.417969 329.101562 254.242188 C 329.707031 254.066406 330.304688 253.859375 330.890625 253.625 C 331.476562 253.394531 332.050781 253.128906 332.613281 252.839844 C 333.171875 252.550781 333.71875 252.234375 334.25 251.890625 C 334.777344 251.546875 335.289062 251.175781 335.78125 250.78125 C 336.277344 250.386719 336.75 249.96875 337.203125 249.53125 C 337.65625 249.089844 338.085938 248.628906 338.492188 248.144531 C 338.898438 247.664062 339.28125 247.160156 339.640625 246.640625 C 340 246.121094 340.332031 245.585938 340.636719 245.03125 C 340.941406 244.476562 341.21875 243.910156 341.46875 243.332031 C 341.71875 242.75 341.941406 242.160156 342.132812 241.558594 C 342.324219 240.957031 342.488281 240.347656 342.621094 239.730469 C 342.75 239.113281 342.851562 238.488281 342.925781 237.863281 C 342.996094 237.234375 343.035156 236.605469 343.046875 235.972656 L 343.046875 228.253906 C 343.09375 227.816406 343.199219 227.394531 343.371094 226.988281 C 343.539062 226.585938 343.765625 226.210938 344.042969 225.871094 C 344.324219 225.53125 344.644531 225.238281 345.007812 224.992188 C 345.375 224.75 345.765625 224.558594 346.1875 224.429688 C 354.8125 220.96875 362.875 216.492188 370.371094 210.996094 C 370.765625 210.683594 371.195312 210.429688 371.664062 210.238281 C 372.132812 210.050781 372.617188 209.925781 373.117188 209.871094 C 373.621094 209.820312 374.121094 209.835938 374.617188 209.925781 C 375.117188 210.011719 375.589844 210.167969 376.042969 210.390625 L 383.097656 214.28125 C 383.648438 214.585938 384.214844 214.863281 384.792969 215.113281 C 385.371094 215.363281 385.957031 215.585938 386.558594 215.777344 C 387.15625 215.972656 387.761719 216.136719 388.375 216.273438 C 388.992188 216.410156 389.609375 216.519531 390.234375 216.597656 C 390.859375 216.675781 391.488281 216.722656 392.117188 216.742188 C 392.746094 216.757812 393.375 216.746094 394 216.707031 C 394.628906 216.664062 395.253906 216.59375 395.875 216.492188 C 396.496094 216.394531 397.113281 216.265625 397.722656 216.105469 C 398.332031 215.945312 398.929688 215.757812 399.523438 215.542969 C 400.113281 215.328125 400.695312 215.085938 401.261719 214.8125 C 401.832031 214.542969 402.382812 214.246094 402.925781 213.921875 C 403.464844 213.601562 403.988281 213.25 404.496094 212.878906 C 405.003906 212.507812 405.492188 212.109375 405.960938 211.691406 C 406.429688 211.273438 406.878906 210.832031 407.308594 210.371094 C 407.734375 209.90625 408.140625 209.425781 408.523438 208.925781 C 408.90625 208.425781 409.265625 207.910156 409.597656 207.375 L 428.914062 175.378906 C 429.570312 174.308594 430.109375 173.183594 430.53125 172.003906 C 430.957031 170.824219 431.257812 169.617188 431.433594 168.375 C 431.613281 167.132812 431.664062 165.886719 431.589844 164.636719 C 431.511719 163.382812 431.3125 162.152344 430.984375 160.941406 C 430.652344 159.699219 430.195312 158.503906 429.621094 157.351562 C 429.042969 156.203125 428.355469 155.121094 427.558594 154.109375 C 426.761719 153.101562 425.871094 152.179688 424.886719 151.351562 C 423.902344 150.523438 422.84375 149.804688 421.710938 149.191406 L 414.730469 145.335938 C 414.398438 145.175781 414.09375 144.972656 413.816406 144.726562 C 413.542969 144.476562 413.308594 144.191406 413.121094 143.875 C 412.929688 143.558594 412.789062 143.21875 412.699219 142.859375 C 412.605469 142.5 412.570312 142.136719 412.589844 141.765625 C 413.96875 132.265625 413.96875 122.765625 412.589844 113.265625 C 412.570312 112.894531 412.605469 112.53125 412.691406 112.171875 C 412.78125 111.8125 412.921875 111.472656 413.109375 111.152344 C 413.300781 110.835938 413.53125 110.550781 413.804688 110.300781 C 414.078125 110.050781 414.382812 109.847656 414.71875 109.6875 L 421.710938 105.832031 C 422.84375 105.21875 423.898438 104.5 424.882812 103.667969 C 425.867188 102.839844 426.757812 101.921875 427.554688 100.910156 C 428.351562 99.898438 429.035156 98.820312 429.613281 97.667969 C 430.1875 96.519531 430.644531 95.324219 430.976562 94.078125 C 431.304688 92.871094 431.503906 91.640625 431.582031 90.386719 C 431.65625 89.136719 431.605469 87.890625 431.429688 86.648438 C 431.25 85.410156 430.953125 84.199219 430.527344 83.019531 C 430.105469 81.839844 429.566406 80.714844 428.914062 79.640625 L 409.597656 47.625 C 409.265625 47.089844 408.90625 46.574219 408.523438 46.074219 C 408.140625 45.574219 407.734375 45.09375 407.308594 44.632812 C 406.878906 44.171875 406.429688 43.730469 405.960938 43.3125 C 405.492188 42.890625 405.003906 42.496094 404.496094 42.125 C 403.988281 41.75 403.464844 41.402344 402.921875 41.078125 C 402.382812 40.757812 401.828125 40.460938 401.261719 40.1875 C 400.691406 39.917969 400.113281 39.675781 399.523438 39.460938 C 398.929688 39.242188 398.328125 39.054688 397.722656 38.898438 C 397.113281 38.738281 396.496094 38.609375 395.875 38.507812 C 395.253906 38.410156 394.628906 38.335938 394 38.296875 C 393.375 38.253906 392.746094 38.242188 392.117188 38.261719 C 391.488281 38.28125 390.859375 38.328125 390.234375 38.40625 C 389.609375 38.484375 388.992188 38.589844 388.375 38.726562 C 387.761719 38.863281 387.15625 39.027344 386.558594 39.222656 C 385.957031 39.417969 385.371094 39.636719 384.792969 39.886719 C 384.214844 40.136719 383.648438 40.414062 383.097656 40.71875 L 376.042969 44.609375 C 375.589844 44.832031 375.117188 44.988281 374.617188 45.078125 C 374.121094 45.164062 373.621094 45.179688 373.117188 45.128906 C 372.617188 45.074219 372.132812 44.953125 371.664062 44.761719 C 371.195312 44.570312 370.765625 44.316406 370.371094 44.003906 C 362.863281 38.503906 354.792969 34.027344 346.15625 30.570312 C 345.738281 30.441406 345.34375 30.25 344.980469 30.007812 C 344.613281 29.761719 344.292969 29.46875 344.011719 29.128906 C 343.734375 28.789062 343.507812 28.414062 343.339844 28.011719 C 343.171875 27.605469 343.0625 27.183594 343.015625 26.746094 L 343.015625 19.027344 C 343.007812 18.398438 342.964844 17.765625 342.894531 17.140625 C 342.824219 16.511719 342.722656 15.890625 342.589844 15.273438 C 342.457031 14.65625 342.296875 14.046875 342.105469 13.445312 C 341.914062 12.84375 341.691406 12.253906 341.441406 11.675781 C 341.191406 11.09375 340.914062 10.53125 340.609375 9.976562 C 340.304688 9.425781 339.972656 8.886719 339.617188 8.367188 C 339.257812 7.847656 338.878906 7.347656 338.46875 6.863281 C 338.0625 6.382812 337.636719 5.921875 337.183594 5.480469 C 336.730469 5.039062 336.257812 4.625 335.765625 4.230469 C 335.273438 3.835938 334.761719 3.464844 334.234375 3.121094 C 333.707031 2.777344 333.160156 2.460938 332.601562 2.167969 C 332.039062 1.878906 331.46875 1.617188 330.882812 1.382812 C 330.296875 1.148438 329.703125 0.941406 329.09375 0.765625 C 328.488281 0.589844 327.875 0.445312 327.257812 0.328125 C 326.636719 0.210938 326.011719 0.125 325.382812 0.0703125 C 324.753906 0.015625 324.125 -0.0078125 323.496094 0 L 284.859375 0 C 284.226562 -0.0078125 283.597656 0.015625 282.96875 0.0703125 C 282.339844 0.121094 281.714844 0.207031 281.09375 0.324219 C 280.472656 0.4375 279.859375 0.582031 279.253906 0.757812 C 278.648438 0.933594 278.050781 1.140625 277.464844 1.375 C 276.878906 1.609375 276.304688 1.871094 275.742188 2.160156 C 275.183594 2.449219 274.636719 2.765625 274.105469 3.109375 C 273.578125 3.457031 273.066406 3.824219 272.570312 4.21875 C 272.078125 4.613281 271.605469 5.03125 271.152344 5.46875 C 270.699219 5.910156 270.269531 6.371094 269.863281 6.855469 C 269.457031 7.335938 269.074219 7.839844 268.714844 8.359375 C 268.355469 8.878906 268.023438 9.417969 267.71875 9.96875 C 267.414062 10.523438 267.136719 11.089844 266.886719 11.667969 C 266.636719 12.25 266.414062 12.839844 266.222656 13.441406 C 266.03125 14.042969 265.867188 14.652344 265.734375 15.269531 C 265.605469 15.886719 265.5 16.511719 265.429688 17.136719 C 265.359375 17.765625 265.320312 18.394531 265.308594 19.027344 L 265.308594 26.746094 C 265.261719 27.183594 265.15625 27.605469 264.984375 28.011719 C 264.816406 28.414062 264.589844 28.789062 264.3125 29.128906 C 264.03125 29.46875 263.710938 29.761719 263.347656 30.007812 C 262.980469 30.25 262.589844 30.441406 262.167969 30.570312 C 253.542969 34.03125 245.480469 38.507812 237.984375 44.003906 C 237.589844 44.316406 237.160156 44.570312 236.691406 44.765625 C 236.222656 44.957031 235.738281 45.078125 235.238281 45.132812 C 234.734375 45.1875 234.234375 45.167969 233.738281 45.082031 C 233.238281 44.992188 232.765625 44.835938 232.3125 44.609375 L 225.257812 40.71875 C 224.707031 40.414062 224.140625 40.136719 223.5625 39.886719 C 222.984375 39.636719 222.398438 39.414062 221.796875 39.222656 C 221.199219 39.027344 220.59375 38.863281 219.976562 38.726562 C 219.363281 38.589844 218.746094 38.480469 218.121094 38.402344 C 217.496094 38.324219 216.867188 38.277344 216.238281 38.257812 C 215.609375 38.242188 214.980469 38.253906 214.351562 38.292969 C 213.726562 38.335938 213.101562 38.40625 212.480469 38.507812 C 211.859375 38.605469 211.242188 38.738281 210.632812 38.894531 C 210.023438 39.054688 209.425781 39.242188 208.832031 39.457031 C 208.242188 39.671875 207.660156 39.914062 207.09375 40.1875 C 206.523438 40.457031 205.96875 40.753906 205.429688 41.078125 C 204.890625 41.398438 204.367188 41.75 203.859375 42.121094 C 203.351562 42.492188 202.863281 42.890625 202.394531 43.308594 C 201.925781 43.730469 201.476562 44.167969 201.046875 44.628906 C 200.621094 45.09375 200.214844 45.574219 199.832031 46.074219 C 199.449219 46.574219 199.089844 47.089844 198.757812 47.625 L 179.441406 79.621094 C 178.785156 80.691406 178.246094 81.816406 177.824219 82.996094 C 177.398438 84.175781 177.097656 85.382812 176.917969 86.625 C 176.742188 87.867188 176.691406 89.113281 176.765625 90.363281 C 176.84375 91.617188 177.042969 92.847656 177.371094 94.058594 C 177.703125 95.300781 178.160156 96.496094 178.734375 97.648438 C 179.3125 98.800781 180 99.878906 180.796875 100.890625 C 181.59375 101.898438 182.484375 102.820312 183.46875 103.648438 C 184.453125 104.476562 185.511719 105.199219 186.644531 105.808594 L 193.621094 109.664062 C 193.957031 109.824219 194.261719 110.027344 194.539062 110.273438 C 194.8125 110.523438 195.046875 110.808594 195.234375 111.125 C 195.425781 111.441406 195.566406 111.78125 195.65625 112.140625 C 195.75 112.5 195.785156 112.863281 195.765625 113.234375 C 194.386719 122.734375 194.386719 132.234375 195.765625 141.734375 C 195.789062 142.105469 195.753906 142.472656 195.664062 142.835938 C 195.578125 143.199219 195.4375 143.539062 195.246094 143.859375 C 195.058594 144.183594 194.824219 144.46875 194.546875 144.71875 C 194.273438 144.96875 193.96875 145.175781 193.628906 145.335938 Z M 200.871094 158.46875 C 201.703125 158.023438 202.492188 157.519531 203.246094 156.953125 C 204 156.390625 204.707031 155.773438 205.367188 155.101562 C 206.027344 154.433594 206.636719 153.714844 207.1875 152.953125 C 207.742188 152.191406 208.234375 151.390625 208.664062 150.554688 C 209.097656 149.71875 209.464844 148.855469 209.769531 147.964844 C 210.070312 147.070312 210.304688 146.164062 210.46875 145.234375 C 210.632812 144.308594 210.730469 143.375 210.753906 142.433594 C 210.777344 141.492188 210.734375 140.554688 210.617188 139.621094 C 209.429688 131.539062 209.429688 123.460938 210.617188 115.378906 C 210.734375 114.445312 210.777344 113.507812 210.753906 112.566406 C 210.730469 111.625 210.632812 110.691406 210.46875 109.765625 C 210.304688 108.835938 210.070312 107.929688 209.769531 107.035156 C 209.464844 106.144531 209.097656 105.28125 208.664062 104.445312 C 208.234375 103.609375 207.742188 102.808594 207.1875 102.046875 C 206.636719 101.285156 206.027344 100.566406 205.367188 99.898438 C 204.707031 99.226562 204 98.609375 203.246094 98.046875 C 202.492188 97.480469 201.703125 96.976562 200.871094 96.53125 L 193.894531 92.675781 C 192.859375 92.136719 192.183594 91.304688 191.867188 90.179688 C 191.589844 89.183594 191.726562 88.25 192.28125 87.375 L 211.597656 55.371094 C 211.941406 54.867188 212.363281 54.441406 212.867188 54.09375 C 213.371094 53.75 213.917969 53.507812 214.515625 53.367188 C 215.109375 53.226562 215.707031 53.203125 216.3125 53.289062 C 216.917969 53.375 217.484375 53.570312 218.015625 53.871094 L 225.070312 57.765625 C 225.917969 58.21875 226.792969 58.613281 227.699219 58.941406 C 228.601562 59.273438 229.527344 59.539062 230.46875 59.738281 C 231.410156 59.9375 232.359375 60.066406 233.320312 60.132812 C 234.28125 60.195312 235.242188 60.191406 236.199219 60.117188 C 237.160156 60.046875 238.109375 59.90625 239.050781 59.699219 C 239.992188 59.492188 240.910156 59.21875 241.8125 58.882812 C 242.714844 58.542969 243.585938 58.144531 244.429688 57.679688 C 245.277344 57.21875 246.082031 56.699219 246.855469 56.121094 C 253.332031 51.378906 260.296875 47.511719 267.746094 44.519531 C 268.648438 44.183594 269.523438 43.78125 270.363281 43.3125 C 271.207031 42.84375 272.011719 42.316406 272.773438 41.726562 C 273.539062 41.140625 274.253906 40.5 274.921875 39.800781 C 275.589844 39.105469 276.203125 38.367188 276.757812 37.578125 C 277.316406 36.792969 277.8125 35.96875 278.246094 35.105469 C 278.679688 34.246094 279.046875 33.355469 279.347656 32.441406 C 279.648438 31.523438 279.878906 30.589844 280.039062 29.640625 C 280.203125 28.6875 280.292969 27.730469 280.308594 26.765625 L 280.308594 19.027344 C 280.328125 18.746094 280.375 18.46875 280.449219 18.199219 C 280.519531 17.925781 280.621094 17.664062 280.742188 17.410156 C 280.867188 17.15625 281.015625 16.917969 281.1875 16.695312 C 281.355469 16.472656 281.546875 16.265625 281.757812 16.078125 C 281.96875 15.894531 282.195312 15.730469 282.441406 15.585938 C 282.683594 15.445312 282.9375 15.328125 283.203125 15.234375 C 283.46875 15.140625 283.742188 15.074219 284.019531 15.035156 C 284.296875 14.996094 284.578125 14.984375 284.859375 15 L 323.496094 15 C 323.777344 14.984375 324.058594 14.996094 324.335938 15.035156 C 324.617188 15.074219 324.886719 15.140625 325.15625 15.230469 C 325.421875 15.324219 325.675781 15.441406 325.917969 15.582031 C 326.164062 15.726562 326.390625 15.890625 326.601562 16.078125 C 326.8125 16.265625 327.003906 16.46875 327.175781 16.695312 C 327.347656 16.917969 327.492188 17.15625 327.617188 17.410156 C 327.742188 17.660156 327.839844 17.925781 327.914062 18.195312 C 327.988281 18.46875 328.035156 18.746094 328.054688 19.027344 L 328.054688 26.746094 C 328.070312 27.710938 328.160156 28.667969 328.320312 29.617188 C 328.484375 30.566406 328.714844 31.5 329.015625 32.417969 C 329.316406 33.332031 329.683594 34.222656 330.117188 35.082031 C 330.550781 35.941406 331.042969 36.765625 331.601562 37.554688 C 332.15625 38.339844 332.769531 39.082031 333.4375 39.777344 C 334.105469 40.472656 334.820312 41.113281 335.582031 41.703125 C 336.347656 42.292969 337.148438 42.820312 337.992188 43.289062 C 338.835938 43.757812 339.707031 44.160156 340.609375 44.496094 C 348.0625 47.484375 355.03125 51.351562 361.507812 56.101562 C 362.28125 56.675781 363.085938 57.195312 363.933594 57.660156 C 364.777344 58.121094 365.648438 58.519531 366.550781 58.859375 C 367.453125 59.195312 368.371094 59.46875 369.3125 59.675781 C 370.253906 59.882812 371.203125 60.023438 372.160156 60.097656 C 373.121094 60.167969 374.082031 60.171875 375.042969 60.109375 C 376.003906 60.042969 376.953125 59.914062 377.894531 59.714844 C 378.835938 59.515625 379.761719 59.25 380.664062 58.921875 C 381.566406 58.589844 382.445312 58.195312 383.292969 57.742188 L 390.382812 53.851562 C 390.914062 53.546875 391.484375 53.355469 392.085938 53.265625 C 392.691406 53.179688 393.292969 53.207031 393.886719 53.34375 C 394.480469 53.484375 395.03125 53.726562 395.53125 54.074219 C 396.035156 54.417969 396.457031 54.84375 396.800781 55.351562 L 416.125 87.351562 C 416.675781 88.226562 416.8125 89.15625 416.53125 90.148438 C 416.21875 91.273438 415.542969 92.105469 414.515625 92.648438 L 407.519531 96.503906 C 406.691406 96.949219 405.898438 97.453125 405.144531 98.015625 C 404.394531 98.578125 403.683594 99.195312 403.023438 99.867188 C 402.363281 100.539062 401.757812 101.253906 401.203125 102.015625 C 400.652344 102.777344 400.160156 103.578125 399.726562 104.414062 C 399.292969 105.25 398.925781 106.113281 398.625 107.007812 C 398.324219 107.898438 398.089844 108.808594 397.921875 109.734375 C 397.757812 110.660156 397.664062 111.59375 397.636719 112.535156 C 397.613281 113.476562 397.660156 114.414062 397.777344 115.351562 C 398.960938 123.429688 398.960938 131.511719 397.777344 139.589844 C 397.660156 140.523438 397.613281 141.460938 397.636719 142.402344 C 397.664062 143.34375 397.757812 144.277344 397.921875 145.207031 C 398.089844 146.132812 398.324219 147.042969 398.625 147.933594 C 398.925781 148.824219 399.292969 149.691406 399.726562 150.527344 C 400.160156 151.363281 400.652344 152.160156 401.203125 152.921875 C 401.757812 153.683594 402.363281 154.402344 403.023438 155.074219 C 403.683594 155.742188 404.394531 156.359375 405.144531 156.925781 C 405.898438 157.488281 406.691406 157.992188 407.519531 158.4375 L 414.5 162.292969 C 415.535156 162.832031 416.210938 163.664062 416.523438 164.789062 C 416.804688 165.785156 416.667969 166.722656 416.113281 167.59375 L 396.792969 199.597656 C 396.449219 200.101562 396.027344 200.527344 395.523438 200.875 C 395.023438 201.222656 394.472656 201.464844 393.878906 201.601562 C 393.285156 201.742188 392.683594 201.765625 392.082031 201.679688 C 391.476562 201.59375 390.90625 201.398438 390.378906 201.097656 L 383.324219 197.203125 C 382.472656 196.75 381.597656 196.359375 380.695312 196.027344 C 379.789062 195.699219 378.867188 195.433594 377.925781 195.234375 C 376.984375 195.035156 376.03125 194.90625 375.070312 194.839844 C 374.113281 194.777344 373.152344 194.78125 372.191406 194.855469 C 371.230469 194.925781 370.28125 195.066406 369.34375 195.273438 C 368.402344 195.480469 367.480469 195.753906 366.582031 196.089844 C 365.679688 196.429688 364.808594 196.828125 363.960938 197.289062 C 363.117188 197.753906 362.308594 198.269531 361.539062 198.847656 C 355.0625 203.59375 348.097656 207.460938 340.648438 210.449219 C 339.742188 210.789062 338.871094 211.191406 338.027344 211.65625 C 337.183594 212.125 336.382812 212.652344 335.617188 213.242188 C 334.855469 213.832031 334.136719 214.472656 333.46875 215.167969 C 332.800781 215.863281 332.191406 216.605469 331.632812 217.390625 C 331.078125 218.179688 330.582031 219.003906 330.148438 219.863281 C 329.714844 220.726562 329.347656 221.613281 329.046875 222.53125 C 328.746094 223.445312 328.511719 224.378906 328.351562 225.328125 C 328.191406 226.28125 328.101562 227.238281 328.082031 228.203125 L 328.082031 235.921875 C 328.0625 236.203125 328.019531 236.476562 327.945312 236.75 C 327.871094 237.023438 327.773438 237.285156 327.648438 237.539062 C 327.523438 237.792969 327.375 238.03125 327.203125 238.253906 C 327.035156 238.476562 326.84375 238.683594 326.632812 238.871094 C 326.417969 239.058594 326.191406 239.222656 325.949219 239.363281 C 325.707031 239.507812 325.449219 239.625 325.183594 239.714844 C 324.917969 239.808594 324.644531 239.875 324.367188 239.914062 C 324.085938 239.953125 323.808594 239.964844 323.527344 239.949219 L 284.859375 239.949219 C 284.578125 239.964844 284.296875 239.953125 284.019531 239.914062 C 283.738281 239.875 283.46875 239.808594 283.199219 239.714844 C 282.933594 239.625 282.679688 239.507812 282.4375 239.363281 C 282.191406 239.222656 281.964844 239.058594 281.753906 238.871094 C 281.542969 238.683594 281.351562 238.476562 281.179688 238.253906 C 281.007812 238.03125 280.863281 237.792969 280.738281 237.539062 C 280.613281 237.285156 280.515625 237.023438 280.441406 236.75 C 280.367188 236.476562 280.320312 236.203125 280.300781 235.921875 L 280.300781 228.253906 C 280.285156 227.292969 280.195312 226.332031 280.03125 225.382812 C 279.871094 224.433594 279.640625 223.5 279.339844 222.582031 C 279.039062 221.667969 278.671875 220.777344 278.238281 219.917969 C 277.804688 219.058594 277.308594 218.234375 276.753906 217.445312 C 276.195312 216.660156 275.585938 215.917969 274.917969 215.222656 C 274.25 214.527344 273.535156 213.886719 272.773438 213.296875 C 272.007812 212.707031 271.207031 212.179688 270.363281 211.710938 C 269.519531 211.242188 268.648438 210.839844 267.746094 210.503906 C 260.292969 207.515625 253.324219 203.648438 246.847656 198.898438 C 245.0625 197.585938 243.121094 196.582031 241.019531 195.890625 C 238.917969 195.195312 236.757812 194.847656 234.546875 194.84375 C 231.175781 194.832031 228.015625 195.636719 225.0625 197.257812 L 218.007812 201.148438 C 217.476562 201.453125 216.910156 201.644531 216.304688 201.734375 C 215.699219 201.820312 215.101562 201.792969 214.507812 201.65625 C 213.914062 201.515625 213.363281 201.273438 212.859375 200.925781 C 212.355469 200.582031 211.933594 200.15625 211.589844 199.648438 L 192.265625 167.648438 C 191.71875 166.773438 191.582031 165.84375 191.859375 164.851562 C 192.175781 163.726562 192.847656 162.894531 193.878906 162.351562 Z M 200.871094 158.46875 " fill-opacity="1" fill-rule="nonzero"/><path fill="#000000" d="M 304.175781 191.25 C 305.21875 191.25 306.261719 191.222656 307.304688 191.171875 C 308.347656 191.121094 309.386719 191.046875 310.421875 190.941406 C 311.460938 190.839844 312.496094 190.714844 313.527344 190.558594 C 314.558594 190.40625 315.585938 190.230469 316.609375 190.023438 C 317.632812 189.820312 318.648438 189.59375 319.660156 189.339844 C 320.671875 189.085938 321.675781 188.808594 322.675781 188.503906 C 323.671875 188.203125 324.660156 187.875 325.644531 187.523438 C 326.625 187.171875 327.597656 186.796875 328.5625 186.398438 C 329.523438 186 330.476562 185.574219 331.421875 185.128906 C 332.363281 184.683594 333.292969 184.214844 334.214844 183.722656 C 335.132812 183.230469 336.039062 182.714844 336.933594 182.179688 C 337.828125 181.644531 338.710938 181.085938 339.578125 180.507812 C 340.445312 179.925781 341.296875 179.324219 342.132812 178.703125 C 342.972656 178.082031 343.792969 177.441406 344.601562 176.78125 C 345.40625 176.117188 346.195312 175.4375 346.96875 174.734375 C 347.742188 174.035156 348.496094 173.316406 349.234375 172.578125 C 349.96875 171.839844 350.6875 171.085938 351.390625 170.3125 C 352.089844 169.539062 352.769531 168.75 353.433594 167.941406 C 354.09375 167.136719 354.734375 166.3125 355.355469 165.476562 C 355.976562 164.636719 356.578125 163.785156 357.15625 162.917969 C 357.738281 162.050781 358.292969 161.167969 358.832031 160.273438 C 359.367188 159.378906 359.878906 158.472656 360.371094 157.550781 C 360.863281 156.632812 361.332031 155.699219 361.777344 154.757812 C 362.222656 153.8125 362.644531 152.859375 363.046875 151.894531 C 363.445312 150.933594 363.820312 149.960938 364.171875 148.976562 C 364.523438 147.996094 364.847656 147.003906 365.152344 146.003906 C 365.453125 145.007812 365.734375 144.003906 365.984375 142.988281 C 366.238281 141.976562 366.46875 140.960938 366.671875 139.9375 C 366.875 138.914062 367.054688 137.886719 367.207031 136.855469 C 367.359375 135.820312 367.488281 134.785156 367.589844 133.75 C 367.691406 132.710938 367.769531 131.671875 367.820312 130.628906 C 367.871094 129.585938 367.894531 128.542969 367.894531 127.5 C 367.894531 126.457031 367.871094 125.414062 367.820312 124.371094 C 367.769531 123.328125 367.691406 122.289062 367.589844 121.25 C 367.488281 120.214844 367.359375 119.179688 367.207031 118.144531 C 367.054688 117.113281 366.875 116.085938 366.671875 115.0625 C 366.46875 114.039062 366.238281 113.023438 365.984375 112.011719 C 365.734375 110.996094 365.453125 109.992188 365.152344 108.996094 C 364.847656 107.996094 364.523438 107.003906 364.171875 106.023438 C 363.820312 105.039062 363.445312 104.066406 363.046875 103.105469 C 362.644531 102.140625 362.222656 101.1875 361.777344 100.242188 C 361.332031 99.300781 360.863281 98.367188 360.371094 97.449219 C 359.878906 96.527344 359.367188 95.621094 358.832031 94.726562 C 358.292969 93.832031 357.738281 92.949219 357.15625 92.082031 C 356.578125 91.214844 355.976562 90.363281 355.355469 89.523438 C 354.734375 88.6875 354.09375 87.863281 353.433594 87.058594 C 352.769531 86.25 352.089844 85.460938 351.390625 84.6875 C 350.6875 83.914062 349.96875 83.160156 349.234375 82.421875 C 348.496094 81.683594 347.742188 80.964844 346.96875 80.265625 C 346.195312 79.5625 345.40625 78.882812 344.601562 78.21875 C 343.792969 77.558594 342.972656 76.917969 342.132812 76.296875 C 341.296875 75.675781 340.445312 75.074219 339.578125 74.492188 C 338.710938 73.914062 337.828125 73.355469 336.933594 72.820312 C 336.039062 72.285156 335.132812 71.769531 334.214844 71.277344 C 333.292969 70.785156 332.363281 70.316406 331.421875 69.871094 C 330.476562 69.425781 329.523438 69.003906 328.5625 68.601562 C 327.597656 68.203125 326.625 67.828125 325.644531 67.476562 C 324.660156 67.125 323.671875 66.796875 322.675781 66.496094 C 321.675781 66.191406 320.671875 65.914062 319.660156 65.660156 C 318.648438 65.40625 317.632812 65.179688 316.609375 64.976562 C 315.585938 64.769531 314.558594 64.59375 313.527344 64.441406 C 312.496094 64.285156 311.460938 64.160156 310.421875 64.058594 C 309.386719 63.953125 308.347656 63.878906 307.304688 63.828125 C 306.261719 63.777344 305.21875 63.75 304.175781 63.75 C 303.136719 63.75 302.09375 63.777344 301.050781 63.828125 C 300.007812 63.878906 298.96875 63.953125 297.933594 64.058594 C 296.894531 64.160156 295.859375 64.285156 294.828125 64.441406 C 293.796875 64.59375 292.769531 64.769531 291.746094 64.976562 C 290.722656 65.179688 289.707031 65.40625 288.695312 65.660156 C 287.683594 65.914062 286.679688 66.191406 285.679688 66.496094 C 284.683594 66.796875 283.695312 67.125 282.710938 67.476562 C 281.730469 67.828125 280.757812 68.203125 279.792969 68.601562 C 278.832031 69.003906 277.878906 69.425781 276.933594 69.871094 C 275.992188 70.316406 275.0625 70.785156 274.140625 71.277344 C 273.222656 71.769531 272.3125 72.285156 271.421875 72.820312 C 270.527344 73.355469 269.644531 73.914062 268.777344 74.492188 C 267.910156 75.074219 267.058594 75.675781 266.222656 76.296875 C 265.382812 76.917969 264.5625 77.558594 263.753906 78.21875 C 262.949219 78.882812 262.160156 79.5625 261.386719 80.265625 C 260.613281 80.964844 259.859375 81.683594 259.121094 82.421875 C 258.382812 83.160156 257.664062 83.914062 256.964844 84.6875 C 256.265625 85.460938 255.585938 86.25 254.921875 87.058594 C 254.261719 87.863281 253.621094 88.6875 253 89.523438 C 252.378906 90.363281 251.777344 91.214844 251.199219 92.082031 C 250.617188 92.949219 250.0625 93.832031 249.523438 94.726562 C 248.988281 95.621094 248.476562 96.527344 247.984375 97.449219 C 247.492188 98.367188 247.023438 99.300781 246.578125 100.242188 C 246.132812 101.1875 245.707031 102.140625 245.308594 103.105469 C 244.910156 104.066406 244.535156 105.039062 244.183594 106.023438 C 243.832031 107.003906 243.503906 107.996094 243.203125 108.996094 C 242.902344 109.992188 242.621094 110.996094 242.367188 112.011719 C 242.117188 113.023438 241.886719 114.039062 241.683594 115.0625 C 241.480469 116.085938 241.300781 117.113281 241.148438 118.144531 C 240.996094 119.179688 240.867188 120.214844 240.765625 121.25 C 240.664062 122.289062 240.585938 123.328125 240.535156 124.371094 C 240.484375 125.414062 240.460938 126.457031 240.460938 127.5 C 240.460938 128.542969 240.488281 129.585938 240.539062 130.628906 C 240.59375 131.667969 240.667969 132.707031 240.773438 133.746094 C 240.875 134.785156 241.003906 135.820312 241.160156 136.851562 C 241.3125 137.882812 241.492188 138.910156 241.695312 139.933594 C 241.902344 140.953125 242.128906 141.972656 242.382812 142.984375 C 242.636719 143.996094 242.917969 145 243.21875 145.996094 C 243.523438 146.996094 243.851562 147.984375 244.203125 148.964844 C 244.554688 149.949219 244.929688 150.921875 245.328125 151.882812 C 245.730469 152.847656 246.152344 153.800781 246.597656 154.742188 C 247.042969 155.6875 247.511719 156.617188 248.003906 157.535156 C 248.496094 158.457031 249.011719 159.363281 249.546875 160.257812 C 250.082031 161.152344 250.640625 162.03125 251.222656 162.898438 C 251.800781 163.765625 252.402344 164.621094 253.023438 165.457031 C 253.644531 166.292969 254.285156 167.117188 254.945312 167.921875 C 255.605469 168.730469 256.289062 169.519531 256.988281 170.289062 C 257.6875 171.0625 258.40625 171.820312 259.144531 172.554688 C 259.882812 173.292969 260.636719 174.011719 261.410156 174.714844 C 262.179688 175.414062 262.96875 176.09375 263.773438 176.757812 C 264.582031 177.417969 265.402344 178.058594 266.238281 178.679688 C 267.078125 179.304688 267.929688 179.902344 268.796875 180.484375 C 269.660156 181.0625 270.542969 181.621094 271.4375 182.15625 C 272.332031 182.695312 273.238281 183.207031 274.15625 183.699219 C 275.074219 184.191406 276.003906 184.660156 276.949219 185.109375 C 277.890625 185.554688 278.84375 185.976562 279.804688 186.378906 C 280.769531 186.777344 281.742188 187.152344 282.722656 187.503906 C 283.703125 187.855469 284.691406 188.183594 285.691406 188.488281 C 286.6875 188.792969 287.691406 189.070312 288.703125 189.324219 C 289.714844 189.578125 290.730469 189.808594 291.753906 190.011719 C 292.773438 190.21875 293.800781 190.394531 294.832031 190.550781 C 295.863281 190.703125 296.898438 190.832031 297.933594 190.9375 C 298.972656 191.039062 300.011719 191.117188 301.050781 191.167969 C 302.09375 191.222656 303.136719 191.25 304.175781 191.25 Z M 304.175781 78.75 C 305.773438 78.75 307.367188 78.828125 308.953125 78.984375 C 310.542969 79.140625 312.117188 79.375 313.683594 79.6875 C 315.25 80 316.792969 80.386719 318.320312 80.847656 C 319.847656 81.3125 321.351562 81.851562 322.824219 82.460938 C 324.296875 83.070312 325.738281 83.753906 327.148438 84.507812 C 328.554688 85.257812 329.921875 86.078125 331.25 86.964844 C 332.574219 87.851562 333.855469 88.804688 335.089844 89.816406 C 336.324219 90.828125 337.503906 91.898438 338.632812 93.027344 C 339.761719 94.15625 340.832031 95.339844 341.84375 96.574219 C 342.855469 97.808594 343.804688 99.089844 344.691406 100.414062 C 345.578125 101.742188 346.398438 103.113281 347.148438 104.519531 C 347.902344 105.925781 348.582031 107.371094 349.195312 108.84375 C 349.804688 110.320312 350.34375 111.820312 350.804688 113.347656 C 351.269531 114.875 351.65625 116.421875 351.96875 117.988281 C 352.277344 119.554688 352.511719 121.132812 352.667969 122.722656 C 352.824219 124.3125 352.902344 125.902344 352.902344 127.5 C 352.902344 129.097656 352.824219 130.691406 352.667969 132.277344 C 352.511719 133.867188 352.277344 135.445312 351.96875 137.011719 C 351.65625 138.578125 351.269531 140.125 350.804688 141.652344 C 350.34375 143.179688 349.804688 144.679688 349.195312 146.15625 C 348.582031 147.632812 347.902344 149.074219 347.148438 150.480469 C 346.398438 151.890625 345.578125 153.257812 344.691406 154.585938 C 343.804688 155.910156 342.855469 157.191406 341.84375 158.425781 C 340.832031 159.660156 339.761719 160.84375 338.632812 161.972656 C 337.503906 163.101562 336.324219 164.171875 335.089844 165.183594 C 333.855469 166.195312 332.574219 167.148438 331.25 168.035156 C 329.921875 168.921875 328.554688 169.742188 327.148438 170.492188 C 325.738281 171.246094 324.296875 171.929688 322.824219 172.539062 C 321.351562 173.148438 319.847656 173.6875 318.320312 174.152344 C 316.792969 174.613281 315.25 175 313.683594 175.3125 C 312.117188 175.625 310.542969 175.859375 308.953125 176.015625 C 307.367188 176.171875 305.773438 176.25 304.175781 176.25 C 302.582031 176.25 300.988281 176.171875 299.402344 176.015625 C 297.8125 175.859375 296.238281 175.625 294.671875 175.3125 C 293.105469 175 291.558594 174.613281 290.035156 174.152344 C 288.507812 173.6875 287.003906 173.148438 285.53125 172.539062 C 284.058594 171.929688 282.617188 171.246094 281.207031 170.492188 C 279.800781 169.742188 278.433594 168.921875 277.105469 168.035156 C 275.78125 167.148438 274.5 166.195312 273.265625 165.183594 C 272.03125 164.171875 270.851562 163.101562 269.722656 161.972656 C 268.59375 160.84375 267.523438 159.660156 266.511719 158.425781 C 265.5 157.191406 264.550781 155.910156 263.664062 154.585938 C 262.777344 153.257812 261.957031 151.890625 261.207031 150.480469 C 260.453125 149.074219 259.773438 147.632812 259.160156 146.15625 C 258.550781 144.679688 258.011719 143.179688 257.550781 141.652344 C 257.085938 140.125 256.699219 138.578125 256.386719 137.011719 C 256.078125 135.445312 255.84375 133.867188 255.6875 132.277344 C 255.53125 130.6875 255.453125 129.097656 255.453125 127.5 C 255.453125 125.902344 255.535156 124.3125 255.691406 122.722656 C 255.851562 121.136719 256.085938 119.558594 256.398438 117.992188 C 256.710938 116.429688 257.097656 114.882812 257.5625 113.355469 C 258.027344 111.828125 258.566406 110.328125 259.175781 108.855469 C 259.789062 107.378906 260.46875 105.9375 261.222656 104.53125 C 261.976562 103.125 262.796875 101.757812 263.683594 100.429688 C 264.570312 99.101562 265.519531 97.824219 266.53125 96.589844 C 267.542969 95.355469 268.613281 94.175781 269.742188 93.046875 C 270.867188 91.917969 272.050781 90.847656 273.28125 89.835938 C 274.515625 88.820312 275.796875 87.871094 277.121094 86.984375 C 278.449219 86.097656 279.8125 85.277344 281.21875 84.523438 C 282.625 83.769531 284.066406 83.089844 285.539062 82.476562 C 287.015625 81.867188 288.515625 81.328125 290.039062 80.863281 C 291.566406 80.398438 293.113281 80.007812 294.675781 79.695312 C 296.242188 79.382812 297.816406 79.148438 299.402344 78.988281 C 300.992188 78.832031 302.582031 78.753906 304.175781 78.75 Z M 304.175781 78.75 " fill-opacity="1" fill-rule="nonzero"/></svg>