<svg xmlns="http://www.w3.org/2000/svg" xmlns:xlink="http://www.w3.org/1999/xlink" width="800" zoomAndPan="magnify" viewBox="0 0 600 449.999984" height="600" preserveAspectRatio="xMidYMid meet" version="1.0"><defs><clipPath id="id1"><path d="M 96.015625 8 L 540.765625 8 L 540.765625 443.078125 L 96.015625 443.078125 Z M 96.015625 8 " clip-rule="nonzero"/></clipPath></defs><g clip-path="url(#id1)"><path fill="#100f0d" d="M 203.78125 135.539062 L 373.640625 135.539062 L 373.640625 245.769531 L 303.304688 282.050781 C 293.980469 286.859375 286 293.902344 279.542969 302.472656 C 266.4375 296.152344 234.042969 280.628906 203.78125 266.921875 Z M 175.246094 81.375 L 254.390625 81.375 C 241.765625 92.335938 236.648438 104.796875 236.324219 105.613281 C 234.769531 109.578125 236.726562 114.054688 240.683594 115.601562 C 241.609375 115.964844 242.558594 116.140625 243.5 116.140625 C 246.574219 116.140625 249.476562 114.289062 250.667969 111.246094 C 250.765625 111.015625 259.921875 88.714844 285.503906 82.113281 C 310.726562 88.617188 319.902344 110.191406 320.339844 111.265625 C 321.53125 114.292969 324.425781 116.140625 327.5 116.140625 C 328.4375 116.140625 329.382812 115.964844 330.3125 115.601562 C 334.269531 114.054688 336.226562 109.578125 334.667969 105.613281 C 334.351562 104.796875 329.230469 92.335938 316.605469 81.375 L 402.179688 81.375 L 402.179688 120.113281 L 175.246094 120.113281 Z M 225.988281 44.746094 C 222.648438 38.007812 224.21875 31.972656 226.796875 28.570312 C 228.113281 26.828125 230.867188 24.210938 235.460938 24.210938 C 236.253906 24.210938 237.097656 24.285156 237.992188 24.457031 C 254.84375 27.667969 267.65625 50.25 274.1875 65.949219 L 273.484375 65.949219 C 239.230469 63.496094 228.902344 50.621094 225.988281 44.746094 Z M 333.007812 24.457031 C 333.902344 24.285156 334.742188 24.210938 335.53125 24.210938 C 340.132812 24.210938 342.886719 26.828125 344.203125 28.570312 C 346.78125 31.972656 348.347656 38.007812 345.007812 44.746094 C 342.097656 50.621094 331.761719 63.503906 297.5 65.949219 L 296.796875 65.949219 C 303.296875 50.253906 316.101562 27.675781 333.007812 24.457031 Z M 533.003906 370.4375 L 492.796875 370.4375 C 491.910156 370.4375 491.03125 370.589844 490.195312 370.894531 L 343.222656 423.71875 C 322.023438 431.347656 299.082031 427.753906 280.265625 413.894531 L 119.117188 295.1875 C 115.15625 292.269531 112.714844 287.957031 112.242188 283.058594 C 111.761719 278.121094 113.359375 273.375 116.722656 269.707031 C 125.953125 259.621094 134.851562 255.800781 143.125 258.339844 C 166.53125 265.507812 246.921875 303.886719 271.390625 315.667969 C 267.234375 324.28125 264.386719 333.898438 263.140625 344.238281 C 263.140625 353.703125 267.40625 359.324219 270.980469 362.367188 C 277.261719 367.699219 285.824219 369.03125 292.789062 369.03125 C 296.722656 369.03125 300.136719 368.609375 302.351562 368.246094 C 336.792969 362.601562 400.25 352.394531 438.371094 347.476562 C 442.59375 346.925781 445.570312 343.0625 445.035156 338.839844 C 444.484375 334.617188 440.636719 331.730469 436.402344 332.175781 C 398.054688 337.128906 334.398438 347.363281 299.863281 353.019531 C 291.710938 354.367188 284.273438 353.425781 280.960938 350.609375 C 279.929688 349.730469 278.550781 348.105469 278.488281 345.179688 C 281.152344 323.464844 293.363281 304.523438 310.359375 295.757812 L 393.503906 252.871094 C 410.722656 244.015625 431.375 243.804688 448.746094 252.351562 L 495.386719 275.308594 C 496.449219 275.832031 497.605469 276.101562 498.789062 276.101562 L 533.003906 276.101562 C 537.265625 276.101562 540.710938 272.652344 540.710938 268.390625 C 540.710938 264.125 537.265625 260.675781 533.003906 260.675781 L 500.578125 260.675781 L 455.550781 238.511719 C 434.65625 228.21875 410.042969 228.148438 389.046875 238.011719 L 389.046875 135.539062 L 409.882812 135.539062 C 414.140625 135.539062 417.585938 132.089844 417.585938 127.828125 L 417.585938 73.660156 C 417.585938 69.398438 414.140625 65.949219 409.882812 65.949219 L 346.742188 65.949219 C 353.066406 61.019531 356.734375 55.789062 358.804688 51.609375 C 364.21875 40.6875 363.332031 28.285156 356.476562 19.246094 C 350.277344 11.054688 340.476562 7.335938 330.117188 9.304688 C 308.085938 13.5 293.453125 36.597656 285.5 53.535156 C 277.546875 36.597656 262.914062 13.5 240.882812 9.304688 C 230.558594 7.300781 220.714844 11.050781 214.515625 19.246094 C 207.664062 28.285156 206.773438 40.6875 212.191406 51.609375 C 214.265625 55.789062 217.925781 61.019531 224.253906 65.949219 L 167.539062 65.949219 C 163.28125 65.949219 159.839844 69.398438 159.839844 73.660156 L 159.839844 127.828125 C 159.839844 132.089844 163.28125 135.539062 167.539062 135.539062 L 188.375 135.539062 L 188.375 260.035156 C 171.21875 252.464844 156.09375 246.183594 147.632812 243.597656 C 137.710938 240.554688 122.316406 240.816406 105.382812 259.269531 C 99.109375 266.105469 96.015625 275.316406 96.902344 284.542969 C 97.789062 293.726562 102.558594 302.136719 109.988281 307.609375 L 271.132812 426.324219 C 286.171875 437.398438 303.40625 443.09375 320.832031 443.09375 C 330.082031 443.09375 339.378906 441.492188 348.429688 438.238281 L 494.136719 385.863281 L 533.003906 385.863281 C 537.265625 385.863281 540.710938 382.414062 540.710938 378.152344 C 540.710938 373.886719 537.265625 370.4375 533.003906 370.4375 " fill-opacity="1" fill-rule="nonzero"/></g></svg>