<svg xmlns="http://www.w3.org/2000/svg" xmlns:xlink="http://www.w3.org/1999/xlink" width="800" zoomAndPan="magnify" viewBox="0 0 600 449.999984" height="600" preserveAspectRatio="xMidYMid meet" version="1.0"><defs><clipPath id="id1"><path d="M 7.394531 414 L 576 414 L 576 438 L 7.394531 438 Z M 7.394531 414 " clip-rule="nonzero"/></clipPath><clipPath id="id2"><path d="M 7.394531 22 L 576 22 L 576 292 L 7.394531 292 Z M 7.394531 22 " clip-rule="nonzero"/></clipPath></defs><g clip-path="url(#id1)"><path fill="#080808" d="M 563.441406 414.367188 L 19.769531 414.367188 C 13.257812 414.367188 7.960938 419.660156 7.960938 426.179688 C 7.960938 432.703125 13.257812 437.976562 19.769531 437.976562 L 563.441406 437.976562 C 569.96875 437.976562 575.265625 432.703125 575.265625 426.179688 C 575.265625 419.660156 569.96875 414.367188 563.441406 414.367188 Z M 563.441406 414.367188 " fill-opacity="1" fill-rule="nonzero"/></g><g clip-path="url(#id2)"><path fill="#080808" d="M 12.355469 180.148438 L 146.636719 288.484375 C 148.746094 290.214844 151.378906 291.113281 154.046875 291.113281 C 155.414062 291.113281 156.78125 290.871094 158.097656 290.402344 L 537.417969 152.464844 C 539.1875 151.835938 540.742188 150.796875 542.023438 149.4375 C 542.421875 149.007812 552.167969 138.570312 560.894531 125 C 573.949219 104.710938 578.140625 87.707031 573.308594 74.460938 C 568.476562 61.21875 554.351562 50.875 531.289062 43.722656 C 515.847656 38.941406 501.683594 37.195312 501.097656 37.125 C 499.261719 36.902344 497.390625 37.117188 495.625 37.757812 L 354.28125 89.152344 L 183.996094 23.210938 C 181.3125 22.179688 178.351562 22.144531 175.667969 23.125 L 106.226562 48.386719 C 102.242188 49.820312 99.367188 53.261719 98.609375 57.40625 C 97.882812 61.546875 99.40625 65.769531 102.625 68.492188 L 195.351562 146.941406 L 152.9375 162.359375 L 94.230469 135.007812 C 91.390625 133.683594 88.132812 133.546875 85.191406 134.609375 L 15.734375 159.867188 C 11.734375 161.320312 8.824219 164.824219 8.117188 169.019531 C 7.40625 173.222656 9.03125 177.476562 12.355469 180.148438 Z M 179.582031 46.835938 L 390.328125 128.433594 L 264.257812 174.277344 L 133.441406 63.617188 Z M 88.671875 158.476562 L 147.398438 185.832031 C 150.234375 187.152344 153.492188 187.292969 156.433594 186.226562 L 216.128906 164.511719 L 254.214844 196.726562 C 256.398438 198.558594 259.097656 199.519531 261.851562 199.519531 C 263.21875 199.519531 264.570312 199.285156 265.886719 198.808594 L 427.96875 139.882812 C 432.589844 138.195312 435.6875 133.828125 435.742188 128.90625 C 435.792969 123.984375 432.78125 119.550781 428.195312 117.777344 L 387.75 102.113281 L 500.992188 60.929688 C 520.523438 63.757812 547.390625 72.371094 551.097656 82.535156 C 553.121094 88.101562 549.417969 99.09375 541.195312 111.957031 C 535.6875 120.558594 529.523438 127.894531 526.5625 131.285156 L 156.277344 265.929688 L 43.484375 174.910156 Z M 88.671875 158.476562 " fill-opacity="1" fill-rule="nonzero"/></g></svg>