<svg xmlns="http://www.w3.org/2000/svg" xmlns:xlink="http://www.w3.org/1999/xlink" width="800" zoomAndPan="magnify" viewBox="0 0 600 449.999984" height="600" preserveAspectRatio="xMidYMid meet" version="1.0"><path stroke-linecap="round" transform="matrix(4.48654, 0, 0, 4.48654, -47.134589, -109.920205)" fill="none" stroke-linejoin="round" d="M 114.000237 64.999606 C 107.259589 84.000015 100.519811 103.070076 93.829661 121.999962 C 90.380107 122.149715 87.939648 120.060132 85.020325 119.420197 C 81.259946 118.589587 82.960344 115.129585 83.649907 113.579811 C 87.359788 105.239761 89.769775 96.480052 92.999923 87.999826 C 96.000216 80.060279 98.849886 72.059786 101.3896 64.000088 C 101.89023 62.410264 103.029923 61.460374 103.569733 59.940202 C 106.900006 61.839982 110.999943 61.940107 114.029839 64.539898 " stroke="#000000" stroke-width="4" stroke-opacity="1" stroke-miterlimit="4"/><path stroke-linecap="round" transform="matrix(4.48654, 0, 0, 4.48654, -47.134589, -109.920205)" fill="none" stroke-linejoin="round" d="M 14.500364 87.000308 C 23.170395 87.000308 31.850002 86.690354 40.500007 87.080409 C 50.209605 87.52967 57.229735 78.950188 55.499734 68.510106 C 55.470132 68.336845 55.431823 68.164454 55.386548 67.994676 C 55.341274 67.824897 55.288164 67.65686 55.228088 67.491434 C 55.168013 67.32688 55.100101 67.164066 55.025225 67.004735 C 54.950348 66.845405 54.868506 66.690427 54.779699 66.538062 C 54.690891 66.386567 54.595119 66.238555 54.493252 66.094896 C 54.390514 65.952108 54.282552 65.813673 54.168495 65.679591 C 54.053568 65.54638 53.933417 65.417523 53.807172 65.29476 C 53.681797 65.171997 53.550327 65.054457 53.413633 64.943884 C 53.27781 64.832439 53.136764 64.727089 52.990493 64.628705 C 52.845093 64.53032 52.694468 64.438901 52.541232 64.353576 C 52.387125 64.268252 52.229536 64.189892 52.068464 64.119369 C 51.907392 64.047975 51.743708 63.984417 51.576541 63.927824 C 51.410245 63.871231 51.241337 63.822474 51.069817 63.781553 C 50.899168 63.740632 50.725907 63.706676 50.551775 63.680556 C 50.377643 63.655307 50.203511 63.637023 50.027637 63.626575 C 49.851764 63.616998 49.675891 63.614386 49.500018 63.61961 C 37.840142 63.779812 26.149792 62.9196 14.500364 64.000088 " stroke="#000000" stroke-width="4" stroke-opacity="1" stroke-miterlimit="4"/><path stroke-linecap="round" transform="matrix(4.48654, 0, 0, 4.48654, -47.134589, -109.920205)" fill="none" stroke-linejoin="round" d="M 95.499587 78.000298 C 90.750138 76.179748 88.389779 71.290123 83.669932 68.470056 L 42.669691 113.820113 C 44.769723 117.92005 48.57973 119.81983 51.530396 122.499721 " stroke="#000000" stroke-width="4" stroke-opacity="1" stroke-miterlimit="4"/><path stroke-linecap="round" transform="matrix(4.48654, 0, 0, 4.48654, -47.134589, -109.920205)" fill="none" stroke-linejoin="round" d="M 92.000405 76.99991 C 87.829945 81.830331 83.919812 86.90976 79.449844 91.450251 C 69.840372 101.199899 61.509899 112.130162 51.499923 121.500203 " stroke="#000000" stroke-width="4" stroke-opacity="1" stroke-miterlimit="4"/><path stroke-linecap="round" transform="matrix(4.48654, 0, 0, 4.48654, -47.134589, -109.920205)" fill="none" stroke-linejoin="round" d="M 33.000144 64.999606 C 32.360209 70.340233 33.999661 71.359776 38.99986 71.000193 C 44.00006 70.63974 49.439942 72.159912 53.00007 67.000382 " stroke="#000000" stroke-width="4" stroke-opacity="1" stroke-miterlimit="4"/><path stroke-linecap="round" transform="matrix(4.48654, 0, 0, 4.48654, -47.134589, -109.920205)" fill="none" stroke-linejoin="round" d="M 52.500311 26.4999 L 52.500311 46.499826 " stroke="#000000" stroke-width="4" stroke-opacity="1" stroke-miterlimit="4"/><path stroke-linecap="round" transform="matrix(4.48654, 0, 0, 4.48654, -47.134589, -109.920205)" fill="none" stroke-linejoin="round" d="M 87.499965 53.499931 L 68.500426 59.499648 " stroke="#000000" stroke-width="4" stroke-opacity="1" stroke-miterlimit="4"/><path stroke-linecap="round" transform="matrix(4.48654, 0, 0, 4.48654, -47.134589, -109.920205)" fill="none" stroke-linejoin="round" d="M 74.000384 34.500393 C 71.689653 39.760049 67.150033 43.360227 63.930333 47.999973 C 63.105818 49.067402 62.462401 50.234086 62.00008 51.500026 " stroke="#000000" stroke-width="4" stroke-opacity="1" stroke-miterlimit="4"/><path stroke-linecap="round" transform="matrix(4.48654, 0, 0, 4.48654, -47.134589, -109.920205)" fill="none" stroke-linejoin="round" d="M 125.000153 60.500036 C 121.910181 60.919694 123.000247 63.349706 123.000247 64.999606 C 122.940172 83.830236 123.000247 102.669573 123.000247 121.850208 C 126.850305 123.230204 130.819643 122.060037 134.8804 122.690395 L 134.8804 60.999795 C 131.710328 60.000277 128.580306 60.64979 125.499912 60.459986 " stroke="#000000" stroke-width="4" stroke-opacity="1" stroke-miterlimit="4"/></svg>