<svg xmlns="http://www.w3.org/2000/svg" xmlns:xlink="http://www.w3.org/1999/xlink" width="800" zoomAndPan="magnify" viewBox="0 0 600 449.999984" height="600" preserveAspectRatio="xMidYMid meet" version="1.0"><path fill="#ffffff" d="M 513.121094 199.363281 C 510.082031 197.335938 506.03125 198.011719 503.667969 201.050781 L 498.941406 207.804688 C 494.550781 112.59375 423.652344 34.941406 331.484375 20.089844 C 331.820312 21.4375 331.820312 22.789062 331.820312 24.140625 C 331.820312 27.515625 331.144531 30.554688 329.457031 33.253906 C 414.535156 47.097656 480.371094 119.011719 485.097656 206.789062 L 480.710938 200.714844 C 478.683594 197.675781 474.296875 197 471.257812 199.023438 C 468.21875 201.050781 467.542969 205.441406 469.566406 208.476562 L 486.449219 232.113281 C 487.800781 233.800781 489.824219 234.8125 491.851562 234.8125 C 493.875 234.8125 496.238281 233.800781 497.253906 232.113281 L 514.132812 208.476562 C 516.835938 205.777344 516.160156 201.386719 513.121094 199.363281 Z M 513.121094 199.363281 " fill-opacity="1" fill-rule="nonzero"/><path fill="#ffffff" d="M 483.074219 246.628906 C 469.230469 331.707031 397.316406 397.542969 309.539062 402.269531 L 315.613281 397.882812 C 318.652344 395.855469 319.328125 391.464844 317.304688 388.429688 C 315.277344 385.390625 310.886719 384.714844 307.851562 386.738281 L 284.214844 403.621094 C 282.527344 404.972656 281.515625 406.996094 281.515625 409.023438 C 281.515625 411.046875 282.527344 413.410156 284.214844 414.425781 C 284.214844 414.425781 307.851562 431.304688 307.851562 431.304688 C 310.886719 433.332031 315.277344 432.65625 317.304688 429.617188 C 319.328125 426.578125 318.652344 422.527344 315.613281 420.164062 L 308.863281 415.4375 C 404.070312 411.046875 481.722656 340.148438 496.578125 247.980469 C 495.226562 248.316406 493.875 248.316406 492.527344 248.316406 C 488.8125 248.65625 485.773438 247.980469 483.074219 246.628906 Z M 483.074219 246.628906 " fill-opacity="1" fill-rule="nonzero"/><path fill="#ffffff" d="M 252.480469 98.414062 L 252.480469 125.425781 L 265.984375 125.425781 L 265.984375 98.414062 C 265.984375 94.703125 262.945312 91.664062 259.234375 91.664062 C 255.519531 91.664062 252.480469 94.703125 252.480469 98.414062 Z M 252.480469 98.414062 " fill-opacity="1" fill-rule="nonzero"/><path fill="#ffffff" d="M 286.242188 91.664062 C 282.527344 91.664062 279.488281 94.703125 279.488281 98.414062 L 279.488281 125.425781 L 292.996094 125.425781 L 292.996094 98.414062 C 292.996094 94.703125 289.957031 91.664062 286.242188 91.664062 Z M 286.242188 91.664062 " fill-opacity="1" fill-rule="nonzero"/><path fill="#ffffff" d="M 313.25 91.664062 C 309.539062 91.664062 306.5 94.703125 306.5 98.414062 L 306.5 125.425781 L 320.003906 125.425781 L 320.003906 98.414062 C 320.003906 94.703125 316.964844 91.664062 313.25 91.664062 Z M 313.25 91.664062 " fill-opacity="1" fill-rule="nonzero"/><path fill="#ffffff" d="M 340.261719 91.664062 C 336.546875 91.664062 333.507812 94.703125 333.507812 98.414062 L 333.507812 125.425781 L 347.011719 125.425781 L 347.011719 98.414062 C 347.011719 94.703125 343.976562 91.664062 340.261719 91.664062 Z M 340.261719 91.664062 " fill-opacity="1" fill-rule="nonzero"/><path fill="#ffffff" d="M 259.234375 341.5 C 262.945312 341.5 265.984375 338.460938 265.984375 334.746094 L 265.984375 307.738281 L 252.480469 307.738281 L 252.480469 334.746094 C 252.480469 338.460938 255.519531 341.5 259.234375 341.5 Z M 259.234375 341.5 " fill-opacity="1" fill-rule="nonzero"/><path fill="#ffffff" d="M 286.242188 341.5 C 289.957031 341.5 292.996094 338.460938 292.996094 334.746094 L 292.996094 307.738281 L 279.488281 307.738281 L 279.488281 334.746094 C 279.488281 338.460938 282.527344 341.5 286.242188 341.5 Z M 286.242188 341.5 " fill-opacity="1" fill-rule="nonzero"/><path fill="#ffffff" d="M 313.25 341.5 C 316.964844 341.5 320.003906 338.460938 320.003906 334.746094 L 320.003906 307.738281 L 306.5 307.738281 L 306.5 334.746094 C 306.5 338.460938 309.539062 341.5 313.25 341.5 Z M 313.25 341.5 " fill-opacity="1" fill-rule="nonzero"/><path fill="#ffffff" d="M 340.261719 341.5 C 343.976562 341.5 347.011719 338.460938 347.011719 334.746094 L 347.011719 307.738281 L 333.507812 307.738281 L 333.507812 334.746094 C 333.507812 338.460938 336.546875 341.5 340.261719 341.5 Z M 340.261719 341.5 " fill-opacity="1" fill-rule="nonzero"/><path fill="#ffffff" d="M 417.914062 169.316406 L 390.902344 169.316406 L 390.902344 182.820312 L 417.914062 182.820312 C 421.625 182.820312 424.664062 179.78125 424.664062 176.066406 C 424.664062 172.351562 421.625 169.316406 417.914062 169.316406 Z M 417.914062 169.316406 " fill-opacity="1" fill-rule="nonzero"/><path fill="#ffffff" d="M 417.914062 196.324219 L 390.902344 196.324219 L 390.902344 209.828125 L 417.914062 209.828125 C 421.625 209.828125 424.664062 206.789062 424.664062 203.078125 C 424.664062 199.363281 421.625 196.324219 417.914062 196.324219 Z M 417.914062 196.324219 " fill-opacity="1" fill-rule="nonzero"/><path fill="#ffffff" d="M 417.914062 223.332031 L 390.902344 223.332031 L 390.902344 236.839844 L 417.914062 236.839844 C 421.625 236.839844 424.664062 233.800781 424.664062 230.085938 C 424.664062 226.371094 421.625 223.332031 417.914062 223.332031 Z M 417.914062 223.332031 " fill-opacity="1" fill-rule="nonzero"/><path fill="#ffffff" d="M 417.914062 250.34375 L 390.902344 250.34375 L 390.902344 263.847656 L 417.914062 263.847656 C 421.625 263.847656 424.664062 260.808594 424.664062 257.09375 C 424.664062 253.382812 421.625 250.34375 417.914062 250.34375 Z M 417.914062 250.34375 " fill-opacity="1" fill-rule="nonzero"/><path fill="#ffffff" d="M 181.582031 182.820312 L 208.589844 182.820312 L 208.589844 169.316406 L 181.582031 169.316406 C 177.867188 169.316406 174.828125 172.351562 174.828125 176.066406 C 174.828125 179.78125 177.867188 182.820312 181.582031 182.820312 Z M 181.582031 182.820312 " fill-opacity="1" fill-rule="nonzero"/><path fill="#ffffff" d="M 181.582031 209.828125 L 208.589844 209.828125 L 208.589844 196.324219 L 181.582031 196.324219 C 177.867188 196.324219 174.828125 199.363281 174.828125 203.078125 C 174.828125 206.789062 177.867188 209.828125 181.582031 209.828125 Z M 181.582031 209.828125 " fill-opacity="1" fill-rule="nonzero"/><path fill="#ffffff" d="M 181.582031 236.839844 L 208.589844 236.839844 L 208.589844 223.332031 L 181.582031 223.332031 C 177.867188 223.332031 174.828125 226.371094 174.828125 230.085938 C 174.828125 233.800781 177.867188 236.839844 181.582031 236.839844 Z M 181.582031 236.839844 " fill-opacity="1" fill-rule="nonzero"/><path fill="#ffffff" d="M 181.582031 263.847656 L 208.589844 263.847656 L 208.589844 250.34375 L 181.582031 250.34375 C 177.867188 250.34375 174.828125 253.382812 174.828125 257.09375 C 174.828125 260.808594 177.867188 263.847656 181.582031 263.847656 Z M 181.582031 263.847656 " fill-opacity="1" fill-rule="nonzero"/><path fill="#ffffff" d="M 266.324219 222.660156 L 270.035156 222.660156 C 271.050781 222.660156 272.0625 223.332031 272.0625 224.347656 C 272.738281 226.710938 273.414062 228.734375 274.761719 230.421875 C 275.101562 231.4375 275.101562 232.449219 274.425781 233.125 L 272.0625 235.488281 C 270.710938 236.839844 270.710938 239.539062 272.398438 240.890625 L 275.4375 243.929688 C 276.789062 245.277344 279.488281 245.617188 280.839844 244.265625 C 280.839844 244.265625 283.203125 241.902344 283.203125 241.902344 C 283.878906 241.226562 284.890625 241.226562 285.90625 241.566406 C 287.929688 242.578125 289.957031 243.589844 291.980469 244.265625 C 292.996094 244.601562 293.671875 245.277344 293.671875 246.292969 L 293.671875 250.003906 C 293.671875 252.03125 295.359375 253.71875 297.722656 253.71875 L 301.773438 253.71875 C 304.136719 253.71875 305.824219 252.03125 305.824219 250.003906 L 305.824219 246.292969 C 305.824219 245.277344 306.5 244.265625 307.511719 244.265625 C 309.875 243.589844 311.902344 242.914062 313.589844 241.566406 C 314.601562 241.226562 315.613281 241.226562 316.289062 241.902344 C 316.289062 241.902344 318.652344 244.265625 318.652344 244.265625 C 320.339844 245.953125 322.703125 245.277344 324.054688 243.929688 L 327.09375 240.890625 C 328.78125 239.203125 328.78125 236.839844 327.429688 235.488281 L 325.40625 233.460938 C 324.730469 232.785156 324.730469 231.773438 325.066406 230.761719 C 326.082031 228.734375 327.09375 226.710938 327.769531 224.683594 C 328.105469 223.671875 328.78125 222.996094 329.796875 222.996094 L 333.171875 222.996094 C 335.195312 222.996094 336.886719 221.308594 336.886719 218.945312 L 336.886719 214.894531 C 336.886719 212.53125 335.195312 210.839844 333.171875 210.839844 L 329.796875 210.839844 C 328.78125 210.839844 327.769531 210.167969 327.769531 209.152344 C 327.09375 206.789062 326.417969 204.765625 325.066406 203.078125 C 324.730469 202.0625 324.730469 201.050781 325.40625 200.375 L 327.769531 198.011719 C 329.121094 196.660156 329.121094 193.960938 327.433594 192.609375 L 324.394531 189.570312 C 323.042969 188.222656 320.339844 187.882812 318.992188 189.234375 C 318.992188 189.234375 316.628906 191.597656 316.628906 191.597656 C 315.953125 192.273438 314.941406 192.273438 313.925781 191.933594 C 311.902344 190.921875 309.875 189.910156 307.851562 189.234375 C 306.835938 188.898438 306.160156 188.222656 306.160156 187.207031 L 306.160156 183.832031 C 306.160156 181.808594 304.472656 180.117188 302.109375 180.117188 L 298.058594 180.117188 C 295.695312 180.117188 294.007812 181.808594 294.007812 183.832031 L 294.007812 187.207031 C 294.007812 188.222656 293.332031 189.234375 292.320312 189.234375 C 289.957031 189.910156 287.929688 190.585938 286.242188 191.933594 C 285.566406 192.273438 284.214844 192.273438 283.542969 191.597656 C 283.542969 191.597656 281.179688 189.234375 281.179688 189.234375 C 279.488281 187.546875 277.125 188.222656 275.777344 189.570312 C 275.777344 189.570312 272.738281 192.609375 272.738281 192.609375 C 271.050781 194.296875 271.050781 196.660156 272.398438 198.011719 L 274.761719 200.375 C 275.4375 201.050781 275.4375 202.0625 275.101562 203.078125 C 274.089844 205.101562 273.074219 207.128906 272.398438 209.152344 C 272.0625 210.167969 271.386719 210.839844 270.375 210.839844 L 266.660156 210.839844 C 264.636719 210.839844 262.945312 212.53125 262.945312 214.894531 L 262.945312 218.945312 C 262.609375 220.96875 264.296875 222.660156 266.324219 222.660156 Z M 299.746094 196.324219 C 310.886719 196.324219 320.003906 205.441406 320.003906 216.582031 C 320.003906 227.722656 310.886719 236.839844 299.746094 236.839844 C 288.605469 236.839844 279.488281 227.722656 279.488281 216.582031 C 279.488281 205.441406 288.605469 196.324219 299.746094 196.324219 Z M 299.746094 196.324219 " fill-opacity="1" fill-rule="nonzero"/><path fill="#ffffff" d="M 306.5 216.582031 C 306.5 217.023438 306.457031 217.464844 306.371094 217.898438 C 306.28125 218.332031 306.15625 218.753906 305.984375 219.164062 C 305.816406 219.574219 305.609375 219.964844 305.363281 220.332031 C 305.113281 220.703125 304.835938 221.042969 304.523438 221.355469 C 304.207031 221.667969 303.867188 221.949219 303.5 222.195312 C 303.128906 222.441406 302.742188 222.648438 302.332031 222.820312 C 301.921875 222.988281 301.5 223.117188 301.0625 223.203125 C 300.628906 223.289062 300.191406 223.332031 299.746094 223.332031 C 299.304688 223.332031 298.863281 223.289062 298.429688 223.203125 C 297.996094 223.117188 297.574219 222.988281 297.164062 222.820312 C 296.753906 222.648438 296.363281 222.441406 295.996094 222.195312 C 295.628906 221.949219 295.285156 221.667969 294.972656 221.355469 C 294.660156 221.042969 294.378906 220.703125 294.132812 220.332031 C 293.886719 219.964844 293.679688 219.574219 293.507812 219.164062 C 293.339844 218.753906 293.210938 218.332031 293.125 217.898438 C 293.039062 217.464844 292.996094 217.023438 292.996094 216.582031 C 292.996094 216.136719 293.039062 215.699219 293.125 215.265625 C 293.210938 214.828125 293.339844 214.40625 293.507812 213.996094 C 293.679688 213.585938 293.886719 213.199219 294.132812 212.828125 C 294.378906 212.460938 294.660156 212.121094 294.972656 211.804688 C 295.285156 211.492188 295.628906 211.214844 295.996094 210.964844 C 296.363281 210.71875 296.753906 210.511719 297.164062 210.34375 C 297.574219 210.171875 297.996094 210.046875 298.429688 209.957031 C 298.863281 209.871094 299.304688 209.828125 299.746094 209.828125 C 300.191406 209.828125 300.628906 209.871094 301.0625 209.957031 C 301.5 210.046875 301.921875 210.171875 302.332031 210.34375 C 302.742188 210.511719 303.128906 210.71875 303.5 210.964844 C 303.867188 211.214844 304.207031 211.492188 304.523438 211.804688 C 304.835938 212.121094 305.113281 212.460938 305.363281 212.828125 C 305.609375 213.199219 305.816406 213.585938 305.984375 213.996094 C 306.15625 214.40625 306.28125 214.828125 306.371094 215.265625 C 306.457031 215.699219 306.5 216.136719 306.5 216.582031 Z M 306.5 216.582031 " fill-opacity="1" fill-rule="nonzero"/><path fill="#ffffff" d="M 222.09375 159.1875 L 222.09375 273.976562 C 222.09375 285.117188 231.210938 294.234375 242.351562 294.234375 L 357.140625 294.234375 C 368.285156 294.234375 377.398438 285.117188 377.398438 273.976562 L 377.398438 159.1875 C 377.398438 148.046875 368.285156 138.929688 357.140625 138.929688 L 242.351562 138.929688 C 231.210938 138.929688 222.09375 148.046875 222.09375 159.1875 Z M 249.105469 214.554688 C 249.105469 208.140625 252.480469 202.402344 257.882812 199.363281 C 256.53125 193.625 257.882812 186.871094 262.609375 182.480469 L 265.648438 179.441406 C 269.023438 176.066406 273.75 174.042969 278.140625 174.042969 C 279.488281 174.042969 281.179688 174.378906 282.527344 174.714844 C 285.566406 169.652344 291.308594 165.9375 297.722656 165.9375 L 301.773438 165.9375 C 308.1875 165.9375 313.925781 169.316406 316.964844 174.714844 C 318.316406 174.378906 320.003906 174.042969 321.355469 174.042969 C 326.082031 174.042969 330.46875 176.066406 333.847656 179.441406 L 336.886719 182.480469 C 341.613281 187.207031 342.960938 193.625 341.613281 199.363281 C 346.675781 202.402344 350.390625 208.140625 350.390625 214.554688 L 350.390625 218.605469 C 350.390625 225.023438 347.011719 230.761719 341.613281 233.800781 C 342.960938 239.539062 341.613281 246.292969 336.886719 250.679688 L 334.183594 253.71875 C 330.808594 257.09375 326.082031 259.121094 321.691406 259.121094 C 320.339844 259.121094 318.652344 258.785156 317.304688 258.445312 C 313.925781 263.847656 308.523438 267.222656 301.773438 267.222656 L 297.722656 267.222656 C 291.308594 267.222656 285.566406 263.847656 282.527344 258.445312 C 281.179688 258.785156 279.488281 259.121094 278.140625 259.121094 C 273.414062 259.121094 269.023438 257.09375 265.648438 253.71875 L 262.609375 251.019531 C 257.882812 246.292969 256.53125 239.875 257.882812 234.136719 C 252.480469 230.761719 249.105469 225.359375 249.105469 218.605469 Z M 249.105469 214.554688 " fill-opacity="1" fill-rule="nonzero"/><path fill="#ffffff" d="M 218.71875 132.175781 C 218.71875 132.621094 218.675781 133.058594 218.589844 133.496094 C 218.503906 133.929688 218.375 134.351562 218.203125 134.761719 C 218.035156 135.171875 217.828125 135.558594 217.582031 135.929688 C 217.335938 136.296875 217.054688 136.636719 216.742188 136.953125 C 216.429688 137.265625 216.085938 137.546875 215.71875 137.792969 C 215.347656 138.039062 214.960938 138.246094 214.550781 138.414062 C 214.140625 138.585938 213.71875 138.714844 213.285156 138.800781 C 212.847656 138.886719 212.410156 138.929688 211.964844 138.929688 C 211.523438 138.929688 211.085938 138.886719 210.648438 138.800781 C 210.214844 138.714844 209.792969 138.585938 209.382812 138.414062 C 208.972656 138.246094 208.582031 138.039062 208.214844 137.792969 C 207.847656 137.546875 207.503906 137.265625 207.191406 136.953125 C 206.878906 136.636719 206.597656 136.296875 206.351562 135.929688 C 206.105469 135.558594 205.898438 135.171875 205.726562 134.761719 C 205.558594 134.351562 205.429688 133.929688 205.34375 133.496094 C 205.257812 133.058594 205.214844 132.621094 205.214844 132.175781 C 205.214844 131.734375 205.257812 131.292969 205.34375 130.859375 C 205.429688 130.425781 205.558594 130.003906 205.726562 129.59375 C 205.898438 129.183594 206.105469 128.792969 206.351562 128.425781 C 206.597656 128.058594 206.878906 127.714844 207.191406 127.402344 C 207.503906 127.089844 207.847656 126.808594 208.214844 126.5625 C 208.582031 126.316406 208.972656 126.109375 209.382812 125.9375 C 209.792969 125.769531 210.214844 125.640625 210.648438 125.554688 C 211.085938 125.46875 211.523438 125.425781 211.964844 125.425781 C 212.410156 125.425781 212.847656 125.46875 213.285156 125.554688 C 213.71875 125.640625 214.140625 125.769531 214.550781 125.9375 C 214.960938 126.109375 215.347656 126.316406 215.71875 126.5625 C 216.085938 126.808594 216.429688 127.089844 216.742188 127.402344 C 217.054688 127.714844 217.335938 128.058594 217.582031 128.425781 C 217.828125 128.792969 218.035156 129.183594 218.203125 129.59375 C 218.375 130.003906 218.503906 130.425781 218.589844 130.859375 C 218.675781 131.292969 218.71875 131.734375 218.71875 132.175781 Z M 218.71875 132.175781 " fill-opacity="1" fill-rule="nonzero"/><path fill="#ffffff" d="M 394.28125 132.175781 C 394.28125 132.621094 394.238281 133.058594 394.148438 133.496094 C 394.0625 133.929688 393.933594 134.351562 393.765625 134.761719 C 393.597656 135.171875 393.386719 135.558594 393.140625 135.929688 C 392.894531 136.296875 392.617188 136.636719 392.300781 136.953125 C 391.988281 137.265625 391.648438 137.546875 391.277344 137.792969 C 390.910156 138.039062 390.519531 138.246094 390.113281 138.414062 C 389.703125 138.585938 389.28125 138.714844 388.84375 138.800781 C 388.410156 138.886719 387.972656 138.929688 387.527344 138.929688 C 387.085938 138.929688 386.644531 138.886719 386.210938 138.800781 C 385.773438 138.714844 385.351562 138.585938 384.945312 138.414062 C 384.535156 138.246094 384.144531 138.039062 383.777344 137.792969 C 383.40625 137.546875 383.066406 137.265625 382.753906 136.953125 C 382.4375 136.636719 382.160156 136.296875 381.914062 135.929688 C 381.667969 135.558594 381.457031 135.171875 381.289062 134.761719 C 381.121094 134.351562 380.992188 133.929688 380.90625 133.496094 C 380.816406 133.058594 380.773438 132.621094 380.773438 132.175781 C 380.773438 131.734375 380.816406 131.292969 380.90625 130.859375 C 380.992188 130.425781 381.121094 130.003906 381.289062 129.59375 C 381.457031 129.183594 381.667969 128.792969 381.914062 128.425781 C 382.160156 128.058594 382.4375 127.714844 382.753906 127.402344 C 383.066406 127.089844 383.40625 126.808594 383.777344 126.5625 C 384.144531 126.316406 384.535156 126.109375 384.945312 125.9375 C 385.351562 125.769531 385.773438 125.640625 386.210938 125.554688 C 386.644531 125.46875 387.085938 125.425781 387.527344 125.425781 C 387.972656 125.425781 388.410156 125.46875 388.84375 125.554688 C 389.28125 125.640625 389.703125 125.769531 390.113281 125.9375 C 390.519531 126.109375 390.910156 126.316406 391.277344 126.5625 C 391.648438 126.808594 391.988281 127.089844 392.300781 127.402344 C 392.617188 127.714844 392.894531 128.058594 393.140625 128.425781 C 393.386719 128.792969 393.597656 129.183594 393.765625 129.59375 C 393.933594 130.003906 394.0625 130.425781 394.148438 130.859375 C 394.238281 131.292969 394.28125 131.734375 394.28125 132.175781 Z M 394.28125 132.175781 " fill-opacity="1" fill-rule="nonzero"/><path fill="#ffffff" d="M 218.71875 300.984375 C 218.71875 301.429688 218.675781 301.867188 218.589844 302.300781 C 218.503906 302.738281 218.375 303.160156 218.203125 303.570312 C 218.035156 303.980469 217.828125 304.367188 217.582031 304.738281 C 217.335938 305.105469 217.054688 305.445312 216.742188 305.761719 C 216.429688 306.074219 216.085938 306.351562 215.71875 306.601562 C 215.347656 306.847656 214.960938 307.054688 214.550781 307.222656 C 214.140625 307.394531 213.71875 307.519531 213.285156 307.609375 C 212.847656 307.695312 212.410156 307.738281 211.964844 307.738281 C 211.523438 307.738281 211.085938 307.695312 210.648438 307.609375 C 210.214844 307.519531 209.792969 307.394531 209.382812 307.222656 C 208.972656 307.054688 208.582031 306.847656 208.214844 306.601562 C 207.847656 306.351562 207.503906 306.074219 207.191406 305.761719 C 206.878906 305.445312 206.597656 305.105469 206.351562 304.738281 C 206.105469 304.367188 205.898438 303.980469 205.726562 303.570312 C 205.558594 303.160156 205.429688 302.738281 205.34375 302.300781 C 205.257812 301.867188 205.214844 301.429688 205.214844 300.984375 C 205.214844 300.542969 205.257812 300.101562 205.34375 299.667969 C 205.429688 299.234375 205.558594 298.8125 205.726562 298.402344 C 205.898438 297.992188 206.105469 297.601562 206.351562 297.234375 C 206.597656 296.867188 206.878906 296.523438 207.191406 296.210938 C 207.503906 295.898438 207.847656 295.617188 208.214844 295.371094 C 208.582031 295.125 208.972656 294.917969 209.382812 294.746094 C 209.792969 294.578125 210.214844 294.449219 210.648438 294.363281 C 211.085938 294.277344 211.523438 294.234375 211.964844 294.234375 C 212.410156 294.234375 212.847656 294.277344 213.285156 294.363281 C 213.71875 294.449219 214.140625 294.578125 214.550781 294.746094 C 214.960938 294.917969 215.347656 295.125 215.71875 295.371094 C 216.085938 295.617188 216.429688 295.898438 216.742188 296.210938 C 217.054688 296.523438 217.335938 296.867188 217.582031 297.234375 C 217.828125 297.601562 218.035156 297.992188 218.203125 298.402344 C 218.375 298.8125 218.503906 299.234375 218.589844 299.667969 C 218.675781 300.101562 218.71875 300.542969 218.71875 300.984375 Z M 218.71875 300.984375 " fill-opacity="1" fill-rule="nonzero"/><path fill="#ffffff" d="M 394.28125 300.984375 C 394.28125 301.429688 394.238281 301.867188 394.148438 302.300781 C 394.0625 302.738281 393.933594 303.160156 393.765625 303.570312 C 393.597656 303.980469 393.386719 304.367188 393.140625 304.738281 C 392.894531 305.105469 392.617188 305.445312 392.300781 305.761719 C 391.988281 306.074219 391.648438 306.351562 391.277344 306.601562 C 390.910156 306.847656 390.519531 307.054688 390.113281 307.222656 C 389.703125 307.394531 389.28125 307.519531 388.84375 307.609375 C 388.410156 307.695312 387.972656 307.738281 387.527344 307.738281 C 387.085938 307.738281 386.644531 307.695312 386.210938 307.609375 C 385.773438 307.519531 385.351562 307.394531 384.945312 307.222656 C 384.535156 307.054688 384.144531 306.847656 383.777344 306.601562 C 383.40625 306.351562 383.066406 306.074219 382.753906 305.761719 C 382.4375 305.445312 382.160156 305.105469 381.914062 304.738281 C 381.667969 304.367188 381.457031 303.980469 381.289062 303.570312 C 381.121094 303.160156 380.992188 302.738281 380.90625 302.300781 C 380.816406 301.867188 380.773438 301.429688 380.773438 300.984375 C 380.773438 300.542969 380.816406 300.101562 380.90625 299.667969 C 380.992188 299.234375 381.121094 298.8125 381.289062 298.402344 C 381.457031 297.992188 381.667969 297.601562 381.914062 297.234375 C 382.160156 296.867188 382.4375 296.523438 382.753906 296.210938 C 383.066406 295.898438 383.40625 295.617188 383.777344 295.371094 C 384.144531 295.125 384.535156 294.917969 384.945312 294.746094 C 385.351562 294.578125 385.773438 294.449219 386.210938 294.363281 C 386.644531 294.277344 387.085938 294.234375 387.527344 294.234375 C 387.972656 294.234375 388.410156 294.277344 388.84375 294.363281 C 389.28125 294.449219 389.703125 294.578125 390.113281 294.746094 C 390.519531 294.917969 390.910156 295.125 391.277344 295.371094 C 391.648438 295.617188 391.988281 295.898438 392.300781 296.210938 C 392.617188 296.523438 392.894531 296.867188 393.140625 297.234375 C 393.386719 297.601562 393.597656 297.992188 393.765625 298.402344 C 393.933594 298.8125 394.0625 299.234375 394.148438 299.667969 C 394.238281 300.101562 394.28125 300.542969 394.28125 300.984375 Z M 394.28125 300.984375 " fill-opacity="1" fill-rule="nonzero"/><path fill="#ffffff" d="M 283.878906 35.617188 C 280.839844 37.644531 280.164062 42.035156 282.191406 45.070312 C 284.214844 48.109375 288.605469 48.785156 291.644531 46.761719 L 315.277344 29.878906 C 316.964844 28.527344 317.976562 26.503906 317.976562 24.476562 C 317.976562 22.453125 316.964844 20.089844 315.277344 19.074219 L 291.644531 2.195312 C 288.605469 0.167969 284.554688 0.84375 282.191406 3.882812 C 280.164062 6.921875 280.839844 10.972656 283.878906 13.335938 L 290.632812 18.0625 C 195.761719 21.777344 117.773438 93.011719 103.253906 184.84375 C 104.605469 184.507812 105.953125 184.507812 107.304688 184.507812 C 110.683594 184.507812 113.71875 185.183594 116.421875 186.871094 C 130.261719 101.792969 202.175781 35.957031 289.957031 31.230469 Z M 283.878906 35.617188 " fill-opacity="1" fill-rule="nonzero"/><path fill="#ffffff" d="M 267.671875 409.023438 C 267.671875 405.648438 268.347656 402.609375 270.035156 399.90625 C 184.957031 386.066406 119.121094 314.152344 114.394531 226.371094 C 114.394531 226.371094 118.785156 232.449219 118.785156 232.449219 C 120.808594 235.488281 125.199219 236.164062 128.238281 234.136719 C 131.277344 232.113281 131.953125 227.722656 129.925781 224.683594 L 113.046875 201.050781 C 111.695312 199.363281 109.667969 198.351562 107.644531 198.351562 C 105.617188 198.351562 103.253906 199.363281 102.242188 201.050781 L 85.359375 224.683594 C 83.335938 227.722656 84.011719 231.773438 87.046875 234.136719 C 90.085938 236.164062 94.136719 235.488281 96.5 232.449219 L 101.226562 225.695312 C 105.617188 320.90625 176.515625 398.558594 268.6875 413.410156 C 268.011719 411.722656 267.671875 410.375 267.671875 409.023438 Z M 267.671875 409.023438 " fill-opacity="1" fill-rule="nonzero"/></svg>