<svg xmlns="http://www.w3.org/2000/svg" width="410.176" height="80.678" viewBox="0 0 410.176 80.678">
  <g id="Grupo_1919" data-name="Grupo 1919" transform="translate(-229.88 -206.034)">
    <rect id="Rectángulo_177" data-name="Rectángulo 177" width="13.684" height="13.684" transform="translate(567.932 223.139)" fill="#e0007a"/>
    <path id="Trazado_5029" data-name="Trazado 5029" d="M604.52,237.761c-3.753-6.615,3.017-13.389,9.635-9.638a5.076,5.076,0,0,1,1.909,1.912c3.729,6.613-3.021,13.363-9.632,9.634a5.093,5.093,0,0,1-1.912-1.908" transform="translate(-69.542 -3.912)" fill="#e0007a"/>
    <path id="Trazado_5030" data-name="Trazado 5030" d="M631.192,229.979l-6.113-13.236c-2.271-4.921,1.033-10.709,6.113-10.709s8.383,5.788,6.112,10.709Z" transform="translate(-73.434)" fill="#e0007a"/>
    <path id="Trazado_5031" data-name="Trazado 5031" d="M267.335,282.68v9.708a1.368,1.368,0,0,1-1.369,1.367H231.247a1.368,1.368,0,0,1-1.367-1.367v-41.7a1.367,1.367,0,0,1,1.367-1.368h34.4a1.368,1.368,0,0,1,1.369,1.368v9.706a1.37,1.37,0,0,1-1.369,1.371H245.215a1.367,1.367,0,0,0-1.369,1.368v1.514a1.37,1.37,0,0,0,1.369,1.369h11.864a1.368,1.368,0,0,1,1.368,1.367v8.182a1.368,1.368,0,0,1-1.368,1.369H245.215a1.37,1.37,0,0,0-1.369,1.368v1.644a1.37,1.37,0,0,0,1.369,1.369h20.751a1.368,1.368,0,0,1,1.369,1.367" transform="translate(0 -8.058)" fill="#e0007a"/>
    <path id="Trazado_5032" data-name="Trazado 5032" d="M322.291,282.428v9.958a1.368,1.368,0,0,1-1.367,1.368H287.475a1.368,1.368,0,0,1-1.369-1.368v-41.7a1.369,1.369,0,0,1,1.369-1.369h11.231a1.37,1.37,0,0,1,1.369,1.369v29a1.367,1.367,0,0,0,1.366,1.371h19.483a1.368,1.368,0,0,1,1.367,1.369" transform="translate(-10.467 -8.058)" fill="#e0007a"/>
    <path id="Trazado_5033" data-name="Trazado 5033" d="M392.06,265.7c0-2.729-1.841-4.315-4.7-4.315H380.1a1.367,1.367,0,0,0-1.369,1.369v5.768a1.368,1.368,0,0,0,1.369,1.368h7.265c2.855,0,4.7-1.586,4.7-4.19m13.968-.19c0,9.714-6.92,16.188-16.506,16.188H380.1a1.368,1.368,0,0,0-1.369,1.367v9.327a1.368,1.368,0,0,1-1.367,1.368h-11.23a1.369,1.369,0,0,1-1.369-1.368v-41.7a1.369,1.369,0,0,1,1.369-1.367h23.389c9.586,0,16.506,6.474,16.506,16.187" transform="translate(-25.11 -8.058)" fill="#e0007a"/>
    <path id="Trazado_5034" data-name="Trazado 5034" d="M456.187,271.3c0-5.9-3.682-10.285-9.9-10.285s-9.9,4.38-9.9,10.285,3.68,10.283,9.9,10.283,9.9-4.38,9.9-10.283m-34.025,0c0-12.633,9.015-23.235,24.123-23.235s24.122,10.6,24.122,23.235-9.013,23.234-24.122,23.234-24.123-10.6-24.123-23.234" transform="translate(-35.795 -7.825)" fill="#e0007a"/>
    <path id="Trazado_5035" data-name="Trazado 5035" d="M505.614,269.02a.483.483,0,0,0,.483.484h7.577c2.921,0,4.638-1.589,4.638-4.062s-1.717-4.064-4.638-4.064H506.1a.484.484,0,0,0-.483.483Zm27.033,24.735H520.953a1.362,1.362,0,0,1-1.143-.62l-7.57-11.584a1.375,1.375,0,0,0-1.147-.62h-4.112a1.369,1.369,0,0,0-1.368,1.368v10.089a1.37,1.37,0,0,1-1.37,1.367H493.016a1.368,1.368,0,0,1-1.369-1.367v-41.7a1.368,1.368,0,0,1,1.369-1.367h22.755c9.585,0,16.5,6.347,16.5,15.806a15.174,15.174,0,0,1-6.995,13.26.485.485,0,0,0-.141.685l8.636,12.542a1.369,1.369,0,0,1-1.128,2.144" transform="translate(-48.73 -8.058)" fill="#e0007a"/>
    <path id="Trazado_5036" data-name="Trazado 5036" d="M586.354,262.013H575.759a1.37,1.37,0,0,0-1.37,1.368v29.005a1.368,1.368,0,0,1-1.366,1.368H561.793a1.369,1.369,0,0,1-1.37-1.368V263.381a1.369,1.369,0,0,0-1.37-1.368H548.461a1.369,1.369,0,0,1-1.368-1.367v-9.96a1.37,1.37,0,0,1,1.368-1.369h37.892a1.368,1.368,0,0,1,1.368,1.369v9.96a1.368,1.368,0,0,1-1.368,1.367" transform="translate(-59.052 -8.057)" fill="#e0007a"/>
    <path id="Trazado_5037" data-name="Trazado 5037" d="M637.143,271.3c0-5.9-3.683-10.285-9.9-10.285s-9.9,4.38-9.9,10.285,3.683,10.283,9.9,10.283,9.9-4.38,9.9-10.283m-34.027,0c0-12.633,9.016-23.235,24.122-23.235s24.125,10.6,24.125,23.235-9.017,23.234-24.125,23.234-24.122-10.6-24.122-23.234" transform="translate(-69.481 -7.825)" fill="#e0007a"/>
    <path id="Trazado_5038" data-name="Trazado 5038" d="M712.219,250.686v41.7a1.367,1.367,0,0,1-1.367,1.367H700.822a1.376,1.376,0,0,1-1.077-.52L686.1,275.906a1.369,1.369,0,0,0-2.442.847v15.634a1.37,1.37,0,0,1-1.369,1.367H671.054a1.366,1.366,0,0,1-1.366-1.367v-41.7a1.367,1.367,0,0,1,1.366-1.368h10.03a1.366,1.366,0,0,1,1.076.522l13.648,17.38a1.371,1.371,0,0,0,2.447-.846V250.686a1.368,1.368,0,0,1,1.369-1.368h11.227a1.368,1.368,0,0,1,1.367,1.368" transform="translate(-81.874 -8.058)" fill="#e0007a"/>
    <path id="Trazado_5039" data-name="Trazado 5039" d="M732.46,252.348a3.105,3.105,0,1,1-3.1-3.03,2.987,2.987,0,0,1,3.1,3.03m-.518,0a2.588,2.588,0,1,0-2.586,2.545,2.488,2.488,0,0,0,2.586-2.545m-1.594.492.743,1.009v.033h-.942l-.66-.917h-.5v.917h-.91V250.8h1.694a1.1,1.1,0,0,1,.576,2.045m-1.36-.592h.617a.328.328,0,0,0,.359-.342.319.319,0,0,0-.359-.317h-.617Z" transform="translate(-92.403 -8.058)" fill="#e0007a"/>
  </g>
</svg>
