<svg xmlns="http://www.w3.org/2000/svg" xmlns:xlink="http://www.w3.org/1999/xlink" width="800" zoomAndPan="magnify" viewBox="0 0 600 449.999984" height="600" preserveAspectRatio="xMidYMid meet" version="1.0"><defs><clipPath id="id1"><path d="M 268 90.515625 L 358 90.515625 L 358 231 L 268 231 Z M 268 90.515625 " clip-rule="nonzero"/></clipPath><clipPath id="id2"><path d="M 230 4 L 478 4 L 478 233 L 230 233 Z M 230 4 " clip-rule="nonzero"/></clipPath><clipPath id="id3"><path d="M 400.238281 -13.429688 L 492.316406 106.878906 L 308.28125 247.730469 L 216.203125 127.425781 Z M 400.238281 -13.429688 " clip-rule="nonzero"/></clipPath><clipPath id="id4"><path d="M 400.238281 -13.429688 L 492.316406 106.878906 L 308.28125 247.730469 L 216.203125 127.425781 Z M 400.238281 -13.429688 " clip-rule="nonzero"/></clipPath><clipPath id="id5"><path d="M 400.238281 -13.429688 L 492.316406 106.878906 L 308.28125 247.730469 L 216.203125 127.425781 Z M 400.238281 -13.429688 " clip-rule="nonzero"/></clipPath></defs><g clip-path="url(#id1)"><path fill="#000000" d="M 323.863281 90.515625 L 301.277344 90.515625 C 293.132812 90.515625 286.835938 97.167969 286.835938 104.933594 L 286.835938 158.910156 C 286.835938 158.910156 275.730469 158.910156 275.730469 158.910156 C 269.804688 158.910156 266.472656 165.5625 269.433594 170.371094 L 306.460938 227.304688 C 307.941406 229.523438 310.164062 230.632812 312.753906 230.632812 C 315.347656 230.632812 317.570312 229.523438 319.050781 227.304688 C 319.050781 227.304688 356.078125 170.371094 356.078125 170.371094 C 359.410156 165.5625 355.707031 158.910156 349.78125 158.910156 L 338.675781 158.910156 C 338.675781 158.910156 338.675781 104.933594 338.675781 104.933594 C 338.304688 97.167969 331.640625 90.515625 323.863281 90.515625 Z M 323.863281 90.515625 " fill-opacity="1" fill-rule="nonzero"/></g><path fill="#000000" d="M 473.078125 229.894531 C 459.007812 215.84375 433.089844 216.953125 421.984375 219.171875 C 416.429688 213.996094 410.132812 211.039062 402.730469 209.558594 C 392.363281 207.710938 379.402344 210.667969 370.144531 217.691406 L 338.304688 239.136719 C 342.746094 240.246094 357.925781 242.832031 358.667969 243.203125 L 378.664062 229.523438 C 384.585938 225.085938 393.472656 222.867188 399.765625 223.976562 C 403.46875 224.71875 406.433594 226.195312 409.394531 228.042969 L 379.773438 249.117188 C 381.625 250.226562 383.476562 251.335938 385.328125 252.816406 C 387.546875 254.664062 389.769531 256.511719 391.621094 258.730469 L 427.90625 232.851562 C 435.683594 231.742188 448.273438 232.109375 456.789062 236.546875 L 400.878906 275.367188 C 402.359375 280.914062 402.359375 287.199219 400.878906 293.113281 C 400.878906 293.113281 400.878906 293.113281 400.878906 293.480469 L 471.96875 245.421875 C 475.671875 245.050781 501.960938 241.722656 504.921875 259.101562 C 506.402344 267.601562 501.589844 276.84375 492.332031 282.019531 C 492.332031 282.019531 336.824219 380.734375 336.824219 381.101562 C 324.605469 388.867188 308.3125 388.128906 295.722656 381.84375 L 206.859375 336.367188 C 206.488281 336.367188 206.488281 336 206.121094 336 C 200.195312 333.78125 193.53125 333.78125 187.605469 335.628906 L 134.660156 353.746094 L 134.660156 245.421875 L 166.132812 235.4375 C 203.15625 223.609375 242.777344 238.027344 281.28125 251.707031 C 293.871094 256.140625 306.460938 260.949219 319.421875 264.644531 C 328.304688 267.234375 337.191406 269.820312 346.820312 271.300781 C 352.003906 272.039062 357.558594 272.039062 362.742188 273.886719 C 367.554688 275.367188 373.480469 279.804688 371.996094 285.71875 C 370.144531 293.113281 359.039062 301.984375 349.78125 303.464844 C 328.675781 306.792969 302.386719 307.53125 264.621094 288.675781 C 260.917969 286.828125 256.476562 288.304688 254.625 292.003906 C 252.773438 295.699219 254.253906 300.136719 257.957031 301.984375 C 286.097656 316.402344 308.683594 320.472656 327.566406 320.472656 C 336.453125 320.472656 344.597656 319.730469 352.003906 318.253906 C 365.332031 316.035156 382.363281 304.203125 386.066406 289.785156 C 388.289062 280.542969 384.957031 271.667969 376.8125 265.015625 C 369.777344 259.839844 361.628906 258.730469 354.59375 257.992188 C 343.488281 256.511719 332.75 253.554688 322.011719 250.597656 C 310.535156 247.269531 298.683594 243.203125 286.464844 238.394531 C 247.589844 224.347656 203.898438 208.449219 162.058594 221.757812 L 133.179688 231.003906 C 132.066406 228.785156 130.585938 226.566406 128.363281 225.085938 C 126.511719 223.609375 124.660156 222.5 122.070312 221.757812 C 121.699219 221.757812 121.328125 221.390625 120.960938 221.390625 C 120.21875 221.390625 119.847656 221.019531 119.109375 221.019531 C 118.738281 221.019531 117.996094 221.019531 117.625 221.019531 C 117.257812 221.019531 116.886719 221.019531 116.144531 221.019531 L 64.308594 221.019531 C 53.941406 221.019531 45.796875 229.152344 45.796875 239.503906 L 45.796875 372.597656 C 45.796875 382.949219 53.941406 391.085938 64.308594 391.085938 L 116.144531 391.085938 C 126.511719 391.085938 134.660156 382.949219 134.660156 372.597656 L 134.660156 370.382812 L 192.421875 350.785156 C 195.011719 350.046875 197.972656 350.046875 200.566406 350.785156 C 200.566406 350.785156 288.6875 395.890625 288.6875 395.890625 C 306.089844 404.765625 327.195312 404.394531 344.226562 394.78125 L 499.738281 296.070312 C 514.179688 287.566406 521.953125 272.777344 519.363281 257.621094 C 514.917969 232.109375 489.371094 228.414062 473.078125 229.894531 Z M 97.632812 375.1875 L 82.820312 375.1875 L 82.820312 364.097656 C 82.820312 360.03125 86.15625 356.703125 90.226562 356.703125 C 94.300781 356.703125 97.632812 360.03125 97.632812 364.097656 Z M 97.632812 375.1875 " fill-opacity="1" fill-rule="nonzero"/><g clip-path="url(#id2)"><g clip-path="url(#id3)"><g clip-path="url(#id4)"><g clip-path="url(#id5)"><path fill="#000000" d="M 417.109375 9.148438 C 412.929688 3.683594 404.945312 2.617188 399.488281 6.792969 C 396.496094 9.082031 394.898438 12.484375 394.6875 16.015625 C 393.679688 16.3125 392.410156 16.691406 390.765625 16.835938 C 387.679688 17.09375 383.808594 17.011719 379.769531 16.933594 C 375.730469 16.855469 371.460938 16.828125 367.519531 17.199219 C 364.285156 17.496094 361.109375 17.992188 358.242188 19.542969 C 358.195312 19.578125 358.164062 19.605469 358.117188 19.640625 C 356.96875 19.949219 355.96875 20.640625 355.277344 21.613281 L 240.703125 109.304688 C 236.464844 112.550781 234.34375 117.171875 233.863281 122.066406 C 233.832031 122.21875 233.8125 122.355469 233.804688 122.507812 C 233.714844 122.875 233.667969 123.234375 233.660156 123.609375 C 233.675781 123.921875 233.707031 124.21875 233.765625 124.519531 C 233.792969 126.207031 233.941406 127.949219 234.320312 129.640625 L 232.929688 131.695312 C 229.292969 137.054688 229.457031 144.207031 233.398438 149.359375 L 291.90625 225.800781 C 295.847656 230.953125 302.710938 232.980469 308.832031 230.871094 L 311.179688 230.0625 C 312.855469 230.960938 314.699219 231.65625 316.515625 232.121094 C 316.664062 232.15625 316.800781 232.175781 316.953125 232.179688 C 317.078125 232.210938 317.148438 232.304688 317.269531 232.335938 C 317.421875 232.367188 317.558594 232.386719 317.710938 232.394531 C 322.761719 233.40625 328.035156 232.613281 332.476562 229.214844 L 447.425781 141.234375 C 447.699219 141.074219 447.949219 140.882812 448.175781 140.664062 C 448.34375 140.53125 448.5 140.410156 448.671875 140.28125 C 448.910156 140.074219 449.125 139.835938 449.324219 139.582031 C 451.84375 137.160156 453.300781 134.089844 454.511719 130.859375 C 455.898438 127.148438 456.988281 123.023438 457.96875 119.101562 C 458.949219 115.183594 459.863281 111.4375 460.933594 108.511719 C 461.503906 106.964844 462.199219 105.839844 462.75 104.945312 C 466.214844 105.660156 469.914062 105.007812 472.90625 102.71875 C 478.363281 98.542969 479.417969 90.554688 475.234375 85.089844 Z M 409.132812 15.257812 L 467.253906 91.199219 C 468.128906 92.335938 467.925781 93.851562 466.789062 94.722656 C 465.652344 95.59375 464.136719 95.390625 463.265625 94.25 L 405.140625 18.308594 C 404.269531 17.171875 404.46875 15.65625 405.609375 14.785156 C 406.746094 13.914062 408.257812 14.117188 409.132812 15.257812 Z M 397.546875 24.917969 L 454.902344 99.859375 C 453.820312 101.605469 452.253906 103.050781 451.535156 105.011719 C 450.179688 108.699219 449.179688 112.757812 448.203125 116.675781 C 447.222656 120.59375 446.199219 124.421875 445.109375 127.359375 C 445.019531 127.628906 444.90625 127.738281 444.800781 127.992188 L 394.039062 61.667969 C 393.945312 61.542969 393.847656 61.417969 393.753906 61.292969 C 391.960938 59.175781 388.773438 58.890625 386.660156 60.679688 C 384.546875 62.472656 384.269531 65.65625 386.0625 67.773438 L 438.066406 135.722656 L 326.359375 221.21875 C 324.878906 222.351562 323.230469 222.945312 321.507812 223.148438 L 270.363281 156.324219 C 270.269531 156.199219 270.171875 156.074219 270.078125 155.949219 C 268.285156 153.832031 265.097656 153.546875 262.984375 155.339844 C 260.871094 157.128906 260.589844 160.316406 262.386719 162.433594 L 307.027344 220.761719 L 305.496094 221.34375 C 303.425781 222.058594 301.210938 221.425781 299.886719 219.695312 L 241.378906 143.253906 C 240.054688 141.519531 240.035156 139.207031 241.253906 137.40625 L 242.214844 136.078125 L 250.148438 146.445312 C 251.234375 147.894531 253.007812 148.664062 254.816406 148.441406 C 256.613281 148.207031 258.140625 147.039062 258.835938 145.367188 C 259.523438 143.679688 259.242188 141.761719 258.128906 140.339844 L 243.691406 121.476562 C 244.335938 119.894531 245.339844 118.433594 246.820312 117.300781 L 358.53125 31.800781 L 373.824219 51.785156 C 374.910156 53.234375 376.683594 54.003906 378.492188 53.785156 C 380.289062 53.550781 381.816406 52.378906 382.515625 50.707031 C 383.199219 49.019531 382.917969 47.105469 381.804688 45.679688 L 367.75 27.320312 C 368.023438 27.285156 368.160156 27.207031 368.441406 27.1875 C 371.5625 26.902344 375.523438 26.917969 379.5625 26.996094 C 383.601562 27.074219 387.777344 27.167969 391.691406 26.824219 C 393.773438 26.640625 395.578125 25.507812 397.546875 24.917969 Z M 397.546875 24.917969 " fill-opacity="1" fill-rule="nonzero"/></g></g></g></g></svg>