<svg xmlns="http://www.w3.org/2000/svg" xmlns:xlink="http://www.w3.org/1999/xlink" width="800" zoomAndPan="magnify" viewBox="0 0 600 449.999984" height="600" preserveAspectRatio="xMidYMid meet" version="1.0"><defs><clipPath id="id1"><path d="M 76.578125 0 L 502.578125 0 L 502.578125 444 L 76.578125 444 Z M 76.578125 0 " clip-rule="nonzero"/></clipPath></defs><g clip-path="url(#id1)"><path fill="#000000" d="M 502.441406 73.980469 C 502.441406 33.117188 469.292969 0 428.394531 0 C 387.496094 0 354.34375 33.117188 354.34375 73.980469 C 354.34375 84.023438 356.335938 93.589844 359.953125 102.3125 L 273.539062 151.515625 C 253.167969 126.773438 222.28125 111.003906 187.714844 111.003906 C 126.355469 111.003906 76.628906 160.6875 76.628906 222.003906 C 76.628906 283.296875 126.355469 333 187.714844 333 C 223.054688 333 254.523438 316.496094 274.863281 290.800781 L 327.765625 332.082031 C 321.121094 343.160156 317.308594 356.140625 317.308594 369.992188 C 317.308594 410.859375 350.464844 444 391.355469 444 C 432.273438 444 465.429688 410.859375 465.429688 369.992188 C 465.429688 335.4375 441.710938 306.414062 409.667969 298.285156 L 428.460938 147.996094 C 469.335938 147.953125 502.441406 114.835938 502.441406 73.980469 Z M 435.585938 83.574219 C 432.886719 87.042969 430.0625 89.15625 428.394531 90.078125 C 426.726562 89.15625 423.902344 87.042969 421.222656 83.574219 C 417.859375 79.238281 415.929688 74.425781 415.929688 70.363281 C 415.929688 61.324219 420.828125 55.5 428.394531 55.5 C 435.957031 55.5 440.859375 61.324219 440.859375 70.363281 C 440.859375 74.425781 438.925781 79.238281 435.585938 83.574219 Z M 420.054688 106.582031 C 423 108.128906 425.875 108.96875 428.394531 108.96875 C 430.929688 108.96875 433.789062 108.128906 436.75 106.582031 C 440.59375 111.488281 446.867188 115.375 456.753906 119.128906 C 456.914062 119.210938 457.414062 119.457031 457.789062 119.617188 C 458.179688 119.8125 458.605469 120.023438 459.066406 120.246094 C 450.277344 126.082031 439.726562 129.480469 428.394531 129.480469 C 417.058594 129.480469 406.507812 126.082031 397.722656 120.246094 C 398.179688 120.023438 398.605469 119.8125 398.996094 119.617188 C 399.363281 119.457031 399.875 119.210938 400.035156 119.128906 C 409.921875 115.375 416.195312 111.488281 420.054688 106.582031 Z M 428.394531 18.480469 C 459.023438 18.480469 483.9375 43.386719 483.9375 73.980469 C 483.9375 85.878906 480.183594 96.910156 473.777344 105.949219 C 467.976562 104.363281 465.96875 102.84375 463.339844 101.855469 C 453.929688 98.261719 451.476562 95.691406 450.847656 94.46875 C 450.839844 94.414062 450.804688 94.371094 450.796875 94.335938 L 450.796875 94.117188 C 455.800781 87.394531 459.363281 79.035156 459.363281 70.363281 C 459.363281 50.253906 445.496094 36.992188 428.394531 36.992188 C 411.292969 36.992188 397.421875 50.253906 397.421875 70.363281 C 397.421875 79.035156 400.988281 87.394531 405.992188 94.117188 L 405.992188 94.335938 C 405.980469 94.371094 405.964844 94.414062 405.9375 94.46875 C 405.308594 95.691406 402.859375 98.261719 393.449219 101.855469 C 390.820312 102.84375 388.820312 104.363281 383.007812 105.949219 C 376.601562 96.910156 372.847656 85.878906 372.847656 73.980469 C 372.851562 43.386719 397.765625 18.480469 428.394531 18.480469 Z M 122.246094 156.582031 C 139.738281 139.101562 162.980469 129.480469 187.714844 129.480469 C 212.433594 129.480469 235.6875 139.101562 253.167969 156.582031 C 270.648438 174.0625 280.277344 197.289062 280.277344 222.003906 C 280.277344 241.695312 274.144531 260.476562 262.769531 276.144531 C 260.925781 274.648438 258.796875 273.433594 256.433594 272.640625 L 255.828125 272.480469 C 246.917969 270.097656 243.90625 267.796875 239.933594 266.273438 C 225.875 260.933594 222.210938 257.066406 221.273438 255.246094 C 221.25 255.195312 221.21875 255.109375 221.183594 255.058594 L 221.101562 242.757812 C 228.625 232.707031 234.007812 220.132812 234.007812 207.125 C 234.007812 177.070312 213.277344 157.230469 187.714844 157.230469 C 162.136719 157.230469 141.417969 177.070312 141.417969 207.125 C 141.417969 220.132812 146.789062 232.707031 154.3125 242.757812 L 154.234375 255.058594 C 154.207031 255.109375 154.175781 255.195312 154.140625 255.246094 C 153.203125 257.066406 149.539062 260.933594 135.480469 266.273438 C 131.519531 267.796875 128.496094 270.097656 119.585938 272.480469 L 118.980469 272.640625 C 116.617188 273.433594 114.492188 274.648438 112.644531 276.144531 C 101.28125 260.476562 95.140625 241.695312 95.140625 222.003906 C 95.140625 197.289062 104.765625 174.0625 122.246094 156.582031 Z M 215.484375 207.125 C 215.484375 216.027344 211.296875 226.042969 203.972656 234.578125 C 196.597656 243.160156 189.542969 246.167969 187.714844 246.328125 C 185.871094 246.167969 178.820312 243.160156 171.453125 234.578125 C 164.132812 226.042969 159.929688 216.027344 159.929688 207.125 C 159.929688 197.53125 162.832031 189.441406 168.324219 183.738281 C 173.289062 178.589844 180.164062 175.746094 187.714844 175.746094 C 195.253906 175.746094 202.144531 178.589844 207.09375 183.738281 C 212.585938 189.441406 215.484375 197.53125 215.484375 207.125 Z M 125.136719 290.15625 C 132.445312 288.125 136.863281 286.007812 139.820312 284.597656 C 140.742188 284.164062 141.542969 283.789062 142.070312 283.566406 C 158.015625 277.496094 166.546875 271.5625 170.585938 263.757812 C 170.847656 263.273438 171.035156 262.839844 171.167969 262.535156 L 172.457031 259.695312 C 177.816406 262.976562 183.144531 264.839844 187.714844 264.839844 C 192.285156 264.839844 197.585938 262.976562 202.957031 259.695312 L 204.269531 262.566406 C 204.40625 262.867188 204.582031 263.273438 204.828125 263.757812 C 208.871094 271.5625 217.414062 277.496094 233.355469 283.566406 C 233.882812 283.789062 234.6875 284.164062 235.605469 284.597656 C 238.550781 286.007812 242.972656 288.125 250.292969 290.15625 C 233.167969 305.867188 211.109375 314.488281 187.714844 314.488281 C 164.308594 314.488281 142.246094 305.867188 125.136719 290.15625 Z M 284.113281 166.800781 L 369.132812 118.375 C 379.132812 131.679688 393.492188 141.492188 410.082031 145.714844 L 391.296875 295.980469 C 370.953125 296.003906 352.542969 304.21875 339.160156 317.5 L 285.144531 275.355469 C 293.832031 259.507812 298.804688 241.320312 298.804688 222.003906 C 298.804688 201.890625 293.457031 183.0625 284.113281 166.800781 Z M 360.683594 416.226562 C 361.152344 416.027344 361.585938 415.816406 361.960938 415.628906 C 362.34375 415.46875 362.847656 415.21875 363.023438 415.136719 C 372.894531 411.371094 379.15625 407.492188 383.019531 402.59375 C 385.964844 404.132812 388.839844 404.976562 391.355469 404.976562 C 393.902344 404.976562 396.769531 404.132812 399.710938 402.59375 C 403.574219 407.492188 409.828125 411.371094 419.714844 415.136719 C 419.878906 415.222656 420.394531 415.46875 420.761719 415.628906 C 421.152344 415.816406 421.570312 416.027344 422.046875 416.226562 C 413.25 422.074219 402.699219 425.492188 391.355469 425.492188 C 380.042969 425.492188 369.488281 422.074219 360.683594 416.226562 Z M 398.546875 379.582031 C 395.851562 383.050781 393.03125 385.167969 391.355469 386.085938 C 389.707031 385.167969 386.890625 383.050781 384.183594 379.582031 C 380.839844 375.246094 378.910156 370.425781 378.910156 366.359375 C 378.910156 357.332031 383.792969 351.480469 391.355469 351.480469 C 398.929688 351.480469 403.820312 357.332031 403.820312 366.359375 C 403.820312 370.425781 401.898438 375.246094 398.546875 379.582031 Z M 446.898438 369.992188 C 446.898438 381.882812 443.148438 392.921875 436.757812 401.941406 C 430.945312 400.367188 428.9375 398.855469 426.308594 397.851562 C 416.890625 394.273438 414.457031 391.695312 413.816406 390.480469 C 413.800781 390.421875 413.792969 390.371094 413.757812 390.34375 L 413.757812 390.125 C 418.761719 383.40625 422.335938 375.03125 422.335938 366.359375 C 422.335938 346.253906 408.476562 333 391.355469 333 C 374.265625 333 360.386719 346.253906 360.386719 366.359375 C 360.386719 375.03125 363.96875 383.40625 368.972656 390.125 L 368.972656 390.34375 C 368.945312 390.371094 368.929688 390.421875 368.902344 390.480469 C 368.28125 391.695312 365.839844 394.273438 356.414062 397.851562 C 353.800781 398.855469 351.792969 400.367188 345.972656 401.941406 C 339.589844 392.921875 335.8125 381.882812 335.8125 369.992188 C 335.8125 339.390625 360.742188 314.488281 391.355469 314.488281 C 421.996094 314.488281 446.898438 339.390625 446.898438 369.992188 Z M 446.898438 369.992188 " fill-opacity="1" fill-rule="nonzero"/></g></svg>